<svg xmlns="http://www.w3.org/2000/svg" width="300" height="150" viewBox="0 0 300 150">
    <path fill="#212121" fill-rule="nonzero" d="M177.5 55.4334499L177.5 56 164 56 164 42.5 164.685649 42.5 125 42.5C124.171573 42.5 123.5 43.1715729 123.5 44L123.5 110C123.5 110.828427 124.171573 111.5 125 111.5L176 111.5C176.828427 111.5 177.5 110.828427 177.5 110L177.5 55.4334499zM177.174175 54.5C177.140565 54.4577252 177.104543 54.4171056 177.066199 54.3783574L165.751847 42.9449075C165.674932 42.8671829 165.590403 42.7987377 165.5 42.740298L165.5 54.5 177.174175 54.5zM125 41L164.685649 41C165.486742 41 166.254561 41.3203983 166.818046 41.889815L178.132398 53.3232648C178.688226 53.8849442 179 54.6432417 179 55.4334499L179 110C179 111.656854 177.656854 113 176 113L125 113C123.343146 113 122 111.656854 122 110L122 44C122 42.3431458 123.343146 41 125 41zM138.5 84.900745L140.224693 83.1760518C140.486375 82.91437 140.944587 82.9483116 141.248137 83.2518625 141.551688 83.5554134 141.58563 84.013625 141.323948 84.2753068L139.599255 86 141.323948 87.7246932C141.58563 87.986375 141.551688 88.4445866 141.248137 88.7481375 140.944587 89.0516884 140.486375 89.08563 140.224693 88.8239482L138.5 87.099255 136.775307 88.8239482C136.513625 89.08563 136.055413 89.0516884 135.751863 88.7481375 135.448312 88.4445866 135.41437 87.986375 135.676052 87.7246932L137.400745 86 135.676052 84.2753068C135.41437 84.013625 135.448312 83.5554134 135.751863 83.2518625 136.055413 82.9483116 136.513625 82.91437 136.775307 83.1760518L138.5 84.900745zM162.5 84.900745L164.224693 83.1760518C164.486375 82.91437 164.944587 82.9483116 165.248137 83.2518625 165.551688 83.5554134 165.58563 84.013625 165.323948 84.2753068L163.599255 86 165.323948 87.7246932C165.58563 87.986375 165.551688 88.4445866 165.248137 88.7481375 164.944587 89.0516884 164.486375 89.08563 164.224693 88.8239482L162.5 87.099255 160.775307 88.8239482C160.513625 89.08563 160.055413 89.0516884 159.751863 88.7481375 159.448312 88.4445866 159.41437 87.986375 159.676052 87.7246932L161.400745 86 159.676052 84.2753068C159.41437 84.013625 159.448312 83.5554134 159.751863 83.2518625 160.055413 82.9483116 160.513625 82.91437 160.775307 83.1760518L162.5 84.900745zM137 29L133 33 129 29 112 29 112 11 144 11 144 29 137 29z"/>
    <polygon fill="#F20000" points="179.272 24 178.992 26.516 181.542 25.805 181.768 27.527 179.443 27.691 180.968 29.722 179.416 30.549 178.35 28.409 177.413 30.535 175.8 29.722 177.311 27.691 175 27.514 175.267 25.805 177.762 26.516 177.481 24"/>
    <polygon fill="#F20000" points="203.272 66 202.992 68.516 205.542 67.805 205.768 69.527 203.443 69.691 204.968 71.722 203.416 72.549 202.35 70.409 201.413 72.535 199.8 71.722 201.311 69.691 199 69.514 199.267 67.805 201.762 68.516 201.481 66"/>
    <polygon fill="#F20000" points="102.272 87 101.992 89.516 104.542 88.805 104.768 90.527 102.443 90.691 103.968 92.722 102.416 93.549 101.35 91.409 100.413 93.535 98.8 92.722 100.311 90.691 98 90.514 98.267 88.805 100.762 89.516 100.481 87"/>
    <path fill="#FFF" d="M119,22.8515625 C119,22.5234359 119.08789,22.2753915 119.263672,22.1074219 C119.439454,21.9394523 119.695311,21.8554688 120.03125,21.8554688 C120.35547,21.8554688 120.606444,21.9414054 120.78418,22.1132812 C120.961915,22.2851571 121.050781,22.5312484 121.050781,22.8515625 C121.050781,23.1601578 120.960938,23.4033194 120.78125,23.5810547 C120.601562,23.75879 120.351564,23.8476562 120.03125,23.8476562 C119.703123,23.8476562 119.44922,23.7607431 119.269531,23.5869141 C119.089843,23.4130851 119,23.1679703 119,22.8515625 Z M122.416016,22.8515625 C122.416016,22.5234359 122.503905,22.2753915 122.679688,22.1074219 C122.85547,21.9394523 123.11328,21.8554688 123.453125,21.8554688 C123.777345,21.8554688 124.028319,21.9414054 124.206055,22.1132812 C124.38379,22.2851571 124.472656,22.5312484 124.472656,22.8515625 C124.472656,23.1601578 124.382813,23.4033194 124.203125,23.5810547 C124.023437,23.75879 123.773439,23.8476562 123.453125,23.8476562 C123.121092,23.8476562 122.865235,23.7607431 122.685547,23.5869141 C122.505858,23.4130851 122.416016,23.1679703 122.416016,22.8515625 Z M125.837891,22.8515625 C125.837891,22.5234359 125.92578,22.2753915 126.101562,22.1074219 C126.277345,21.9394523 126.533201,21.8554688 126.869141,21.8554688 C127.193361,21.8554688 127.444335,21.9414054 127.62207,22.1132812 C127.799806,22.2851571 127.888672,22.5312484 127.888672,22.8515625 C127.888672,23.1601578 127.798829,23.4033194 127.619141,23.5810547 C127.439452,23.75879 127.189455,23.8476562 126.869141,23.8476562 C126.541014,23.8476562 126.28711,23.7607431 126.107422,23.5869141 C125.927733,23.4130851 125.837891,23.1679703 125.837891,22.8515625 Z M131.011719,20.8476562 L129.582031,20.8476562 L129.283203,15.1230469 L131.310547,15.1230469 L131.011719,20.8476562 Z M129.259766,22.8515625 C129.259766,22.5234359 129.347655,22.2753915 129.523438,22.1074219 C129.69922,21.9394523 129.955076,21.8554688 130.291016,21.8554688 C130.615236,21.8554688 130.86621,21.9414054 131.043945,22.1132812 C131.221681,22.2851571 131.310547,22.5312484 131.310547,22.8515625 C131.310547,23.1601578 131.220704,23.4033194 131.041016,23.5810547 C130.861327,23.75879 130.61133,23.8476562 130.291016,23.8476562 C129.962889,23.8476562 129.708985,23.7607431 129.529297,23.5869141 C129.349608,23.4130851 129.259766,23.1679703 129.259766,22.8515625 Z M133.625,20.8476562 L133.625,20.4140625 C133.625,20.0390606 133.705077,19.712892 133.865234,19.4355469 C134.025391,19.1582017 134.318357,18.8632828 134.744141,18.5507812 C135.154299,18.257811 135.424804,18.0195322 135.555664,17.8359375 C135.686524,17.6523428 135.751953,17.4472668 135.751953,17.2207031 C135.751953,16.9667956 135.658204,16.7734382 135.470703,16.640625 C135.283202,16.5078118 135.021486,16.4414062 134.685547,16.4414062 C134.099606,16.4414062 133.431644,16.6328106 132.681641,17.015625 L132.042969,15.7324219 C132.914067,15.2441382 133.837886,15 134.814453,15 C135.619145,15 136.258787,15.1933574 136.733398,15.5800781 C137.20801,15.9667988 137.445312,16.4824187 137.445312,17.1269531 C137.445312,17.5566428 137.347657,17.9277328 137.152344,18.2402344 C136.95703,18.5527359 136.58594,18.9042949 136.039062,19.2949219 C135.664061,19.572267 135.426758,19.7832024 135.327148,19.9277344 C135.227539,20.0722663 135.177734,20.2617176 135.177734,20.4960938 L135.177734,20.8476562 L133.625,20.8476562 Z M133.4375,22.8515625 C133.4375,22.5234359 133.52539,22.2753915 133.701172,22.1074219 C133.876954,21.9394523 134.132811,21.8554688 134.46875,21.8554688 C134.79297,21.8554688 135.043944,21.9414054 135.22168,22.1132812 C135.399415,22.2851571 135.488281,22.5312484 135.488281,22.8515625 C135.488281,23.1601578 135.398438,23.4033194 135.21875,23.5810547 C135.039062,23.75879 134.789064,23.8476562 134.46875,23.8476562 C134.140623,23.8476562 133.88672,23.7607431 133.707031,23.5869141 C133.527343,23.4130851 133.4375,23.1679703 133.4375,22.8515625 Z"/>
    <path fill="#212121" d="M140.627834,102.513645 C140.707283,102.481769 140.791772,102.459795 140.879775,102.44925 C140.919614,102.444527 140.959752,102.442097 141,102.442097 L141.007673,102.442127 C141.136029,102.443014 141.259193,102.468319 141.372166,102.513645 L156.350575,108.120536 C156.741165,108.266746 157,108.640012 157,109.057071 L157,135.557903 C157,136.110187 156.552285,136.557903 156,136.557903 C155.880285,136.557903 155.761543,136.536406 155.649425,136.494437 L141,131.010695 L126.372166,136.486355 C126.259193,136.531681 126.136029,136.556986 126.007064,136.557878 L126,136.557903 C125.959752,136.557903 125.919614,136.555473 125.8798,136.550652 C125.791772,136.540205 125.707283,136.518231 125.627834,136.486355 L110.649425,130.879464 C110.258835,130.733254 110,130.359988 110,129.942929 L110,103.442097 C110,102.889813 110.447715,102.442097 111,102.442097 C111.119715,102.442097 111.238457,102.463594 111.350575,102.505563 L126,107.989305 L140.627834,102.513645 L140.627834,102.513645 Z"/>
    <path fill="#FFF" d="M126.354543,109.504328 L140.786006,104.129882 C141.010975,104.046101 141.258576,104.046046 141.483583,104.129728 L155.624932,109.389 L155.624932,134.963756 L141.488682,129.500417 C141.260668,129.412295 141.008274,129.410743 140.779194,129.496055 L126.355704,134.867532 C126.126544,134.952873 125.874057,134.95129 125.645986,134.863081 L111.426754,129.363636 L111.426754,104.036244 L125.646846,109.500656 C125.874411,109.588103 126.126083,109.589409 126.354543,109.504328 Z"/>
    <path fill="#212121" fill-rule="nonzero" d="M114.954368,119.708686 L114.745682,120.163054 L113.836946,119.745682 L114.045632,119.291314 C114.351583,118.625173 114.669664,118.018228 115.000164,117.470411 L115.258451,117.04229 L116.114694,117.558865 L115.856406,117.986986 C115.54598,118.50153 115.245204,119.075453 114.954368,119.708686 Z M116.980376,116.430446 L116.649113,116.804965 L115.900075,116.142437 L116.231339,115.767918 C116.749645,115.181933 117.295985,114.716032 117.871174,114.372223 L118.30035,114.115691 L118.813413,114.974042 L118.384238,115.230574 C117.901501,115.519121 117.433275,115.918409 116.980376,116.430446 Z M120.120003,114.667613 L119.621334,114.704078 L119.548405,113.706741 L120.047073,113.670276 C120.512374,113.636251 120.98829,113.6695 121.480537,113.770721 C121.804297,113.841974 122.049437,113.906982 122.293226,113.985146 L122.769352,114.137802 L122.464041,115.090054 L121.987915,114.937399 C121.775307,114.869232 121.560112,114.812165 121.272409,114.748797 C120.875576,114.667237 120.491804,114.640426 120.120003,114.667613 Z M123.640853,115.7678 L123.237632,115.472144 L123.828946,114.665702 L124.232167,114.961358 C124.801307,115.378673 125.292943,115.882709 125.743316,116.488897 L126.041504,116.89025 L125.238799,117.486626 L124.940611,117.085274 C124.54704,116.555539 124.124794,116.122644 123.640853,115.7678 Z M125.961327,118.754906 L125.726865,118.313286 L126.610104,117.844363 L126.844566,118.285983 C126.949996,118.484567 127.04469,118.667246 127.209419,118.988141 C127.27122,119.108567 127.27122,119.108567 127.332915,119.228654 C127.514089,119.58101 127.63826,119.817983 127.767107,120.054554 L128.00626,120.493651 L127.128066,120.971956 L126.888913,120.532859 C126.755434,120.287783 126.628097,120.044768 126.443589,119.685928 C126.381532,119.565137 126.381532,119.565137 126.319789,119.444825 C126.157047,119.127799 126.064002,118.9483 125.961327,118.754906 Z M127.993824,122.271544 L127.688582,121.87553 L128.480612,121.265047 L128.785853,121.661061 C129.183825,122.177383 129.614803,122.608867 130.107105,122.970249 L130.510167,123.266122 L129.918421,124.072246 L129.515359,123.776373 C128.943842,123.356843 128.446763,122.85918 127.993824,122.271544 Z M131.489603,124.800383 L131.01712,124.636798 L131.34429,123.691833 L131.816773,123.855418 C132.369562,124.046807 132.983322,124.186403 133.666381,124.272103 L134.162492,124.334348 L134.038002,125.326569 L133.541892,125.264324 C132.791517,125.170178 132.109927,125.015155 131.489603,124.800383 Z M135.772421,124.933529 L135.317531,125.141075 L134.90244,124.231295 L135.35733,124.02375 C135.832217,123.80708 136.367804,123.473971 136.961121,123.023943 L137.359491,122.721782 L137.963814,123.518521 L137.565444,123.820683 C136.917274,124.312316 136.320589,124.683425 135.772421,124.933529 Z M139.141056,122.48389 L138.774554,122.824002 L138.09433,122.090998 L138.460832,121.750886 C138.905632,121.338113 139.373397,120.876462 139.863975,120.365995 L140.210435,120.005489 L140.931448,120.69841 L140.584988,121.058917 C140.081656,121.582654 139.600396,122.057624 139.141056,122.48389 Z M141.772581,119.841695 L141.278302,119.91712 L141.127452,118.928563 L141.621731,118.853138 C142.020122,118.792345 142.702839,118.755096 143.685706,118.738532 L144.185635,118.730106 L144.202485,119.729964 L143.702556,119.73839 C142.76243,119.754234 142.11383,119.789622 141.772581,119.841695 Z M145.617314,119.779507 L145.124359,119.695867 L145.291639,118.709957 L145.784593,118.793597 C146.528123,118.919752 147.212956,119.229098 147.832886,119.716972 L148.225802,120.026192 L147.607364,120.812025 L147.214447,120.502806 C146.724024,120.11685 146.193715,119.877305 145.617314,119.779507 Z M148.437083,121.895695 L148.166481,121.475249 L149.007372,120.934045 L149.277974,121.354491 C149.624781,121.893339 149.941587,122.514264 150.229243,123.21725 L150.418599,123.680007 L149.493085,124.05872 L149.303728,123.595962 C149.038296,122.947287 148.749131,122.380537 148.437083,121.895695 Z M149.958964,125.535076 L149.824367,125.053533 L150.787454,124.78434 L150.92205,125.265883 C150.951768,125.372852 150.951768,125.372852 150.981081,125.48096 L151.111187,125.963736 L150.145635,126.223948 L150.015529,125.741173 C149.987423,125.637516 149.987423,125.637516 149.958964,125.535076 Z"/>
    <polygon fill="#212121" points="125.5 109 126.5 109 126.5 136 125.5 136"/>
    <polygon fill="#212121" points="140.5 103 141.5 103 141.5 130 140.5 130"/>
    <path fill="#212121" fill-rule="nonzero" d="M145.760493,100.171018 C145.762321,97.2382879 148.177393,94.8593725 151.154707,94.8575616 C154.132022,94.8557507 156.54413,97.2317301 156.542302,100.16446 L145.760493,100.171018 Z"/>
    <circle cx="182" cy="107" r="13" fill="#FFF"/>
    <path fill="#212121" fill-rule="nonzero" d="M174.073781,116.340432 C176.210205,118.155175 178.977248,119.25 182,119.25 C185.022752,119.25 187.789795,118.155175 189.926219,116.340432 L189.071068,115.485281 L190.485281,114.071068 L191.340432,114.926219 C193.155175,112.789795 194.25,110.022752 194.25,107 C194.25,103.977248 193.155175,101.210205 191.340432,99.0737814 L190.485281,99.9289322 L189.071068,98.5147186 L189.926219,97.6595679 C187.789795,95.8448254 185.022752,94.75 182,94.75 C178.977248,94.75 176.210205,95.8448254 174.073781,97.6595679 L174.928932,98.5147186 L173.514719,99.9289322 L172.659568,99.0737814 C170.844825,101.210205 169.75,103.977248 169.75,107 C169.75,110.022752 170.844825,112.789795 172.659568,114.926219 L173.514719,114.071068 L174.928932,115.485281 L174.073781,116.340432 L174.073781,116.340432 Z M182,120.75 C174.406085,120.75 168.25,114.593915 168.25,107 C168.25,99.4060847 174.406085,93.25 182,93.25 C189.593915,93.25 195.75,99.4060847 195.75,107 C195.75,114.593915 189.593915,120.75 182,120.75 Z"/>
    <path fill="#E0E0E0" fill-rule="nonzero" d="M182,108.155172 L185.465517,110.465517 L183.155172,107 L185.465517,103.534483 L182,105.844828 L178.534483,103.534483 L180.844828,107 L178.534483,110.465517 L182,108.155172 Z M182,109.357023 L174.928932,114.071068 L179.642977,107 L174.928932,99.9289322 L182,104.642977 L189.071068,99.9289322 L184.357023,107 L189.071068,114.071068 L182,109.357023 Z"/>
    <polygon fill="red" points="185.42 97.603 183.879 107.684 180.121 106.316"/>
    <polygon fill="#212121" points="178.58 116.397 180.121 106.316 183.879 107.684"/>
    <path fill="#212121" d="M130.514087,57.9305053 L144.370493,49.9305053 C146.283664,48.8259358 148.730025,49.4814364 149.834595,51.3946069 C150.939164,53.3077774 150.283664,55.754139 148.370493,56.8587085 L134.514087,64.8587085 C132.600916,65.963278 130.154555,65.3077774 129.049985,63.3946069 C127.945416,61.4814364 128.600916,59.0350748 130.514087,57.9305053 Z"/>
    <path fill="#FFF" d="M144.870493,50.7965307 C146.305371,49.9681035 148.140142,50.459729 148.968569,51.8946069 C149.796997,53.3294847 149.305371,55.164256 147.870493,55.9926831 L134.014087,63.9926831 C132.579209,64.8211102 130.744438,64.3294847 129.916011,62.8946069 C129.087583,61.459729 129.579209,59.6249578 131.014087,58.7965307 L144.870493,50.7965307 Z"/>
    <path fill="#212121" d="M135.094214,55.863518 L139.424341,53.363518 C140.380926,52.8112332 141.604107,53.1389835 142.156392,54.0955688 L143.656392,56.693645 C144.208676,57.6502302 143.880926,58.873411 142.924341,59.4256958 L138.594214,61.9256958 C137.637628,62.4779805 136.414448,62.1502302 135.862163,61.193645 L134.362163,58.5955688 C133.809878,57.6389835 134.137628,56.4158027 135.094214,55.863518 Z"/>
    <path fill="#FFF" d="M135.616025,56.75 L139.946152,54.25 C140.424445,53.9738576 141.036035,54.1377328 141.312178,54.6160254 L142.812178,57.2141016 C143.08832,57.6923942 142.924445,58.3039846 142.446152,58.580127 L138.116025,61.080127 C137.637733,61.3562694 137.026142,61.1923942 136.75,60.7141016 L135.25,58.1160254 C134.973858,57.6377328 135.137733,57.0261424 135.616025,56.75 Z"/>
    <path fill="#212121" d="M136.527226,57.3455688 C136.766373,57.2074976 137.072168,57.2894352 137.210239,57.5285815 C137.34831,57.7677278 137.266373,58.073523 137.027226,58.2115942 C136.78808,58.3496654 136.482285,58.2677278 136.344214,58.0285815 C136.206143,57.7894352 136.28808,57.4836399 136.527226,57.3455688 Z M138.259277,56.3455688 C138.498424,56.2074976 138.804219,56.2894352 138.94229,56.5285815 C139.080361,56.7677278 138.998424,57.073523 138.759277,57.2115942 C138.520131,57.3496654 138.214336,57.2677278 138.076265,57.0285815 C137.938193,56.7894352 138.020131,56.4836399 138.259277,56.3455688 Z M139.991328,55.3455688 C140.230474,55.2074976 140.53627,55.2894352 140.674341,55.5285815 C140.812412,55.7677278 140.730474,56.073523 140.491328,56.2115942 C140.252182,56.3496654 139.946387,56.2677278 139.808315,56.0285815 C139.670244,55.7894352 139.752182,55.4836399 139.991328,55.3455688 Z M140.991328,57.0776196 C141.230474,56.9395484 141.53627,57.021486 141.674341,57.2606323 C141.812412,57.4997786 141.730474,57.8055738 141.491328,57.943645 C141.252182,58.0817162 140.946387,57.9997786 140.808315,57.7606323 C140.670244,57.521486 140.752182,57.2156908 140.991328,57.0776196 Z M139.259277,58.0776196 C139.498424,57.9395484 139.804219,58.021486 139.94229,58.2606323 C140.080361,58.4997786 139.998424,58.8055738 139.759277,58.943645 C139.520131,59.0817162 139.214336,58.9997786 139.076265,58.7606323 C138.938193,58.521486 139.020131,58.2156908 139.259277,58.0776196 Z M137.527226,59.0776196 C137.766373,58.9395484 138.072168,59.021486 138.210239,59.2606323 C138.34831,59.4997786 138.266373,59.8055738 138.027226,59.943645 C137.78808,60.0817162 137.482285,59.9997786 137.344214,59.7606323 C137.206143,59.521486 137.28808,59.2156908 137.527226,59.0776196 Z"/>
</svg>
