<svg width="195" height="81" viewBox="0 0 195 81" fill="none" xmlns="http://www.w3.org/2000/svg">
<path fill-rule="evenodd" clip-rule="evenodd" d="M2.15095 79.4086C2.55704 79.3961 2.87677 79.059 2.86507 78.6557C2.84113 77.8305 2.86463 77.0249 2.9321 76.2381C2.96658 75.836 2.66638 75.4829 2.26158 75.4495C1.85678 75.4161 1.50067 75.715 1.46618 76.1172C1.39394 76.9596 1.36893 77.8207 1.39446 78.7009C1.40616 79.1042 1.74484 79.4211 2.15095 79.4086ZM136.753 56.4254C135.127 56.6254 133.499 56.7953 131.884 56.8995C131.479 56.9257 131.171 57.2733 131.196 57.676C131.222 58.0787 131.571 58.3839 131.977 58.3577C133.629 58.251 135.287 58.0776 136.931 57.8756C137.334 57.826 137.621 57.4612 137.572 57.0607C137.523 56.6603 137.157 56.3758 136.753 56.4254ZM144.265 56.147C144.315 56.5473 144.682 56.831 145.085 56.7806C145.91 56.6775 146.721 56.584 147.518 56.5054C148.295 56.4287 149.1 56.3225 149.926 56.1878C150.327 56.1224 150.599 55.7466 150.534 55.3485C150.469 54.9503 150.091 54.6805 149.69 54.7459C148.893 54.8759 148.12 54.9779 147.375 55.0513C146.563 55.1315 145.738 55.2266 144.905 55.3308C144.501 55.3812 144.215 55.7466 144.265 56.147ZM124.452 57.5124C124.513 57.1133 124.236 56.7416 123.834 56.6823C123.038 56.5648 122.255 56.4125 121.488 56.2205C120.625 56.0049 119.755 55.8412 118.891 55.6986C118.491 55.6325 118.111 55.9015 118.044 56.2995C117.976 56.6976 118.246 57.0739 118.647 57.1401C119.491 57.2794 120.318 57.4356 121.126 57.6376C121.944 57.8423 122.775 58.0037 123.615 58.1277C124.017 58.187 124.392 57.9115 124.452 57.5124ZM156.827 53.7854C156.952 54.169 157.367 54.3784 157.754 54.2532C159.25 53.7683 160.768 53.2137 162.286 52.5932C162.662 52.4394 162.842 52.0124 162.688 51.6393C162.534 51.2662 162.104 51.0884 161.728 51.2421C160.244 51.8488 158.761 52.3907 157.3 52.8641C156.914 52.9894 156.702 53.4018 156.827 53.7854ZM4.17374 68.8632C4.5361 69.0449 4.97878 68.9001 5.16245 68.5398C5.89552 67.1019 6.78258 65.7372 7.7928 64.4415C8.04178 64.1221 7.98339 63.6633 7.66236 63.4166C7.34133 63.17 6.87925 63.229 6.63026 63.5484C5.56913 64.9094 4.62998 66.3523 3.85019 67.8819C3.6665 68.2422 3.81135 68.6816 4.17374 68.8632ZM106.043 57.1969C104.534 57.3861 102.976 57.5096 101.441 57.5763C101.035 57.5939 100.72 57.935 100.737 58.3381C100.754 58.7412 101.096 59.0537 101.502 59.0361C103.072 58.9679 104.67 58.8415 106.224 58.6466C106.628 58.5961 106.914 58.2305 106.864 57.8302C106.814 57.4299 106.446 57.1463 106.043 57.1969ZM94.4138 58.2271C94.4513 57.8253 94.1539 57.4699 93.7493 57.4335C92.9051 57.3574 92.1439 57.2624 91.4895 57.1526C90.7224 57.0239 89.9489 56.8857 89.1704 56.7385C88.7715 56.6631 88.3858 56.9233 88.309 57.3196C88.2322 57.716 88.4933 58.0985 88.8923 58.174C89.6805 58.323 90.464 58.463 91.2415 58.5934C91.9408 58.7107 92.7404 58.81 93.6133 58.8887C94.0178 58.9252 94.3762 58.629 94.4138 58.2271ZM113.017 56.3964C113.176 56.7674 113.608 56.9395 113.982 56.7808C114.795 56.4356 115.536 56.0396 116.169 55.5846C116.919 55.046 117.564 54.4489 118.111 53.8022C118.372 53.4928 118.332 53.032 118.021 52.7729C117.71 52.5139 117.246 52.5546 116.985 52.864C116.519 53.4152 115.963 53.9307 115.308 54.4014C114.785 54.7774 114.146 55.1232 113.406 55.4373C113.032 55.596 112.858 56.0254 113.017 56.3964ZM111.053 54.812C111.221 54.4445 111.058 54.0115 110.689 53.845C109.963 53.5184 109.268 53.119 108.608 52.6203C108.205 52.3164 107.82 51.948 107.46 51.5264C107.197 51.2191 106.733 51.182 106.423 51.4435C106.113 51.705 106.075 52.1661 106.337 52.4734C106.758 52.9653 107.219 53.4089 107.716 53.7841C108.472 54.3555 109.264 54.809 110.078 55.176C110.448 55.3425 110.884 55.1795 111.053 54.812ZM168.522 48.8234C168.722 49.1742 169.171 49.2969 169.524 49.0976C170.931 48.3046 172.306 47.4552 173.63 46.5522C173.965 46.3236 174.051 45.8687 173.821 45.5362C173.592 45.2037 173.134 45.1195 172.799 45.3481C171.511 46.226 170.172 47.0535 168.8 47.8272C168.446 48.0266 168.322 48.4726 168.522 48.8234ZM82.029 55.9291C82.1296 55.538 81.8921 55.1406 81.4985 55.0414C79.976 54.658 78.4543 54.248 76.9444 53.8153C76.5542 53.7034 76.1461 53.9271 76.0327 54.3148C75.9192 54.7025 76.1436 55.1074 76.5337 55.2193C78.0587 55.6564 79.5958 56.0705 81.1341 56.4579C81.5277 56.557 81.9284 56.3203 82.029 55.9291ZM12.5411 58.5387C12.7983 58.8505 13.2617 58.8957 13.5762 58.6396C14.8534 57.5996 16.1943 56.6198 17.5693 55.6962C17.9062 55.47 17.9951 55.0157 17.7681 54.6816C17.5409 54.3475 17.0838 54.2601 16.7469 54.4864C15.3398 55.4315 13.9619 56.438 12.6449 57.5104C12.3304 57.7664 12.2839 58.2268 12.5411 58.5387ZM69.9021 52.3781C70.0367 51.9971 69.835 51.5805 69.4517 51.4476C68.7031 51.1882 67.9628 50.9244 67.2323 50.6568C66.6237 50.4338 66.0096 50.2134 65.3906 49.9966C65.0077 49.8625 64.5872 50.0623 64.4514 50.4429C64.3155 50.8235 64.5158 51.2407 64.8987 51.3748C65.5107 51.5891 66.1181 51.8071 66.7206 52.0278C67.4593 52.2985 68.2077 52.5652 68.9643 52.8274C69.3477 52.9603 69.7675 52.7591 69.9021 52.3781ZM178.843 41.4592C179.128 41.7453 179.594 41.7466 179.883 41.4621C181.059 40.3031 182.139 39.086 183.098 37.8143C183.342 37.4911 183.276 37.0332 182.951 36.7918C182.627 36.5503 182.165 36.6165 181.922 36.9398C181.01 38.1483 179.978 39.3118 178.848 40.426C178.559 40.7105 178.557 41.1731 178.843 41.4592ZM119.809 46.4116C120.214 46.3805 120.518 46.0291 120.488 45.6268C120.424 44.7899 120.292 43.9454 120.101 43.1029C119.895 42.1939 119.574 41.4136 119.148 40.751C118.93 40.4112 118.475 40.3121 118.132 40.5297C117.79 40.7473 117.689 41.1991 117.907 41.539C118.231 42.0422 118.492 42.6615 118.666 43.4266C118.843 44.2064 118.963 44.9803 119.02 45.7395C119.051 46.1418 119.404 46.4427 119.809 46.4116ZM104.562 47.5217C104.96 47.4393 105.216 47.0522 105.134 46.6572C104.903 45.5472 104.853 44.4459 105.009 43.4514C105.072 43.0527 104.797 42.6795 104.396 42.618C103.995 42.5565 103.618 42.8299 103.556 43.2287C103.367 44.4263 103.433 45.7066 103.693 46.9559C103.775 47.3509 104.164 47.6042 104.562 47.5217ZM59.6662 48.9175C59.7783 48.5295 59.5526 48.1253 59.1621 48.0148C57.9054 47.6591 56.6355 47.329 55.3562 47.0315C54.9608 46.9396 54.5645 47.1835 54.4711 47.5764C54.3777 47.9693 54.6225 48.3624 55.0179 48.4543C56.2725 48.746 57.5198 49.0703 58.7562 49.4201C59.1467 49.5306 59.5541 49.3056 59.6662 48.9175ZM23.7215 51.1624C23.912 51.5184 24.3573 51.653 24.7162 51.463C25.4639 51.0672 26.2062 50.6858 26.9387 50.3182C27.5104 50.0312 28.0865 49.7645 28.6665 49.5171C29.0401 49.3578 29.2135 48.9281 29.0539 48.5574C28.8943 48.1867 28.462 48.0153 28.0884 48.1746C27.4805 48.4339 26.8767 48.7135 26.2774 49.0143C25.5365 49.3862 24.7845 49.7725 24.0263 50.1738C23.6675 50.3638 23.531 50.8064 23.7215 51.1624ZM49.529 46.6689C49.5823 46.2688 49.299 45.9021 48.8963 45.85C47.5871 45.6806 46.2738 45.5564 44.9602 45.4849C44.5546 45.4629 44.2071 45.7716 44.184 46.1745C44.161 46.5774 44.4711 46.9219 44.8767 46.944C46.1508 47.0133 47.4275 47.1339 48.7031 47.299C49.1059 47.3511 49.4756 47.069 49.529 46.6689ZM33.8511 47.0645C33.9332 47.4595 34.3223 47.7129 34.7202 47.6305C35.968 47.3721 37.2278 47.1846 38.4963 47.0611C38.9008 47.0218 39.1972 46.6643 39.1584 46.2627C39.1196 45.8611 38.7603 45.5675 38.3559 45.6069C37.0376 45.7352 35.7252 45.9303 34.4228 46.2001C34.0249 46.2825 33.7689 46.6695 33.8511 47.0645ZM106.99 39.2224C107.129 39.601 107.552 39.7949 107.933 39.6553C108.378 39.4928 108.886 39.3763 109.465 39.3191C110.22 39.2447 110.974 39.191 111.711 39.179C112.117 39.1724 112.442 38.84 112.436 38.4365C112.43 38.0331 112.096 37.7114 111.69 37.718C110.9 37.7309 110.102 37.7882 109.323 37.8651C108.632 37.9332 108 38.0748 107.427 38.2842C107.046 38.4237 106.85 38.8438 106.99 39.2224ZM185.972 31.1072C186.36 31.226 186.773 31.0098 186.893 30.6241C187.138 29.8402 187.334 29.0423 187.478 28.2312C187.662 27.1918 187.816 26.175 187.941 25.1723C187.991 24.7717 187.704 24.4074 187.301 24.3586C186.898 24.3098 186.531 24.5949 186.481 24.9955C186.359 25.9728 186.209 26.9651 186.029 27.9812C185.896 28.7293 185.715 29.4671 185.488 30.1939C185.367 30.5795 185.584 30.9884 185.972 31.1072ZM187.573 15.6473C187.979 15.6239 188.289 15.2783 188.266 14.8755C188.209 13.8681 188.129 12.8458 188.027 11.7999C187.987 11.3984 187.628 11.1052 187.223 11.1451C186.819 11.185 186.523 11.5428 186.562 11.9444C186.663 12.9723 186.742 13.9747 186.797 14.9604C186.82 15.3632 187.167 15.6707 187.573 15.6473Z" fill="#0055FF"/>
<path fill-rule="evenodd" clip-rule="evenodd" d="M180.309 10.242C180.703 10.7029 181.399 10.7584 181.864 10.3661C183.902 8.64608 185.4 6.78728 186.376 4.383C187.582 5.84692 189.528 7.70925 191.976 8.79166C192.533 9.03756 193.185 8.78856 193.434 8.2355C193.683 7.68244 193.434 7.03476 192.877 6.78886C190.02 5.52578 187.886 2.90419 187.205 1.78307C187.186 1.75163 187.166 1.72121 187.144 1.69192C187.124 1.63946 187.074 1.52007 186.977 1.39521C186.852 1.23608 186.601 1.01251 186.21 0.973105C185.861 0.938012 185.606 1.07297 185.503 1.13665C185.391 1.20564 185.315 1.27959 185.282 1.313C185.19 1.40595 185.094 1.5382 185.045 1.60637C185.039 1.61356 185.035 1.62003 185.031 1.62566C184.952 1.73408 184.893 1.85589 184.858 1.98509C184.092 4.82363 182.68 6.80374 180.437 8.69712C179.972 9.08948 179.915 9.78116 180.309 10.242Z" fill="#0055FF"/>
<path fill-rule="evenodd" clip-rule="evenodd" d="M2.15095 79.4086C2.55704 79.3961 2.87677 79.059 2.86507 78.6557C2.84113 77.8305 2.86463 77.0249 2.9321 76.2381C2.96658 75.836 2.66638 75.4829 2.26158 75.4495C1.85678 75.4161 1.50067 75.715 1.46618 76.1172C1.39394 76.9596 1.36893 77.8207 1.39446 78.7009C1.40616 79.1042 1.74484 79.4211 2.15095 79.4086ZM136.753 56.4254C135.127 56.6254 133.499 56.7953 131.884 56.8995C131.479 56.9257 131.171 57.2733 131.196 57.676C131.222 58.0787 131.571 58.3839 131.977 58.3577C133.629 58.251 135.287 58.0776 136.931 57.8756C137.334 57.826 137.621 57.4612 137.572 57.0607C137.523 56.6603 137.157 56.3758 136.753 56.4254ZM144.265 56.147C144.315 56.5473 144.682 56.831 145.085 56.7806C145.91 56.6775 146.721 56.584 147.518 56.5054C148.295 56.4287 149.1 56.3225 149.926 56.1878C150.327 56.1224 150.599 55.7466 150.534 55.3485C150.469 54.9503 150.091 54.6805 149.69 54.7459C148.893 54.8759 148.12 54.9779 147.375 55.0513C146.563 55.1315 145.738 55.2266 144.905 55.3308C144.501 55.3812 144.215 55.7466 144.265 56.147ZM124.452 57.5124C124.513 57.1133 124.236 56.7416 123.834 56.6823C123.038 56.5648 122.255 56.4125 121.488 56.2205C120.625 56.0049 119.755 55.8412 118.891 55.6986C118.491 55.6325 118.111 55.9015 118.044 56.2995C117.976 56.6976 118.246 57.0739 118.647 57.1401C119.491 57.2794 120.318 57.4356 121.126 57.6376C121.944 57.8423 122.775 58.0037 123.615 58.1277C124.017 58.187 124.392 57.9115 124.452 57.5124ZM156.827 53.7854C156.952 54.169 157.367 54.3784 157.754 54.2532C159.25 53.7683 160.768 53.2137 162.286 52.5932C162.662 52.4394 162.842 52.0124 162.688 51.6393C162.534 51.2662 162.104 51.0884 161.728 51.2421C160.244 51.8488 158.761 52.3907 157.3 52.8641C156.914 52.9894 156.702 53.4018 156.827 53.7854ZM4.17374 68.8632C4.5361 69.0449 4.97878 68.9001 5.16245 68.5398C5.89552 67.1019 6.78258 65.7372 7.7928 64.4415C8.04178 64.1221 7.98339 63.6633 7.66236 63.4166C7.34133 63.17 6.87925 63.229 6.63026 63.5484C5.56913 64.9094 4.62998 66.3523 3.85019 67.8819C3.6665 68.2422 3.81135 68.6816 4.17374 68.8632ZM106.043 57.1969C104.534 57.3861 102.976 57.5096 101.441 57.5763C101.035 57.5939 100.72 57.935 100.737 58.3381C100.754 58.7412 101.096 59.0537 101.502 59.0361C103.072 58.9679 104.67 58.8415 106.224 58.6466C106.628 58.5961 106.914 58.2305 106.864 57.8302C106.814 57.4299 106.446 57.1463 106.043 57.1969ZM94.4138 58.2271C94.4513 57.8253 94.1539 57.4699 93.7493 57.4335C92.9051 57.3574 92.1439 57.2624 91.4895 57.1526C90.7224 57.0239 89.9489 56.8857 89.1704 56.7385C88.7715 56.6631 88.3858 56.9233 88.309 57.3196C88.2322 57.716 88.4933 58.0985 88.8923 58.174C89.6805 58.323 90.464 58.463 91.2415 58.5934C91.9408 58.7107 92.7404 58.81 93.6133 58.8887C94.0178 58.9252 94.3762 58.629 94.4138 58.2271ZM113.017 56.3964C113.176 56.7674 113.608 56.9395 113.982 56.7808C114.795 56.4356 115.536 56.0396 116.169 55.5846C116.919 55.046 117.564 54.4489 118.111 53.8022C118.372 53.4928 118.332 53.032 118.021 52.7729C117.71 52.5139 117.246 52.5546 116.985 52.864C116.519 53.4152 115.963 53.9307 115.308 54.4014C114.785 54.7774 114.146 55.1232 113.406 55.4373C113.032 55.596 112.858 56.0254 113.017 56.3964ZM111.053 54.812C111.221 54.4445 111.058 54.0115 110.689 53.845C109.963 53.5184 109.268 53.119 108.608 52.6203C108.205 52.3164 107.82 51.948 107.46 51.5264C107.197 51.2191 106.733 51.182 106.423 51.4435C106.113 51.705 106.075 52.1661 106.337 52.4734C106.758 52.9653 107.219 53.4089 107.716 53.7841C108.472 54.3555 109.264 54.809 110.078 55.176C110.448 55.3425 110.884 55.1795 111.053 54.812ZM168.522 48.8234C168.722 49.1742 169.171 49.2969 169.524 49.0976C170.931 48.3046 172.306 47.4552 173.63 46.5522C173.965 46.3236 174.051 45.8687 173.821 45.5362C173.592 45.2037 173.134 45.1195 172.799 45.3481C171.511 46.226 170.172 47.0535 168.8 47.8272C168.446 48.0266 168.322 48.4726 168.522 48.8234ZM82.029 55.9291C82.1296 55.538 81.8921 55.1406 81.4985 55.0414C79.976 54.658 78.4543 54.248 76.9444 53.8153C76.5542 53.7034 76.1461 53.9271 76.0327 54.3148C75.9192 54.7025 76.1436 55.1074 76.5337 55.2193C78.0587 55.6564 79.5958 56.0705 81.1341 56.4579C81.5277 56.557 81.9284 56.3203 82.029 55.9291ZM12.5411 58.5387C12.7983 58.8505 13.2617 58.8957 13.5762 58.6396C14.8534 57.5996 16.1943 56.6198 17.5693 55.6962C17.9062 55.47 17.9951 55.0157 17.7681 54.6816C17.5409 54.3475 17.0838 54.2601 16.7469 54.4864C15.3398 55.4315 13.9619 56.438 12.6449 57.5104C12.3304 57.7664 12.2839 58.2268 12.5411 58.5387ZM69.9021 52.3781C70.0367 51.9971 69.835 51.5805 69.4517 51.4476C68.7031 51.1882 67.9628 50.9244 67.2323 50.6568C66.6237 50.4338 66.0096 50.2134 65.3906 49.9966C65.0077 49.8625 64.5872 50.0623 64.4514 50.4429C64.3155 50.8235 64.5158 51.2407 64.8987 51.3748C65.5107 51.5891 66.1181 51.8071 66.7206 52.0278C67.4593 52.2985 68.2077 52.5652 68.9643 52.8274C69.3477 52.9603 69.7675 52.7591 69.9021 52.3781ZM178.843 41.4592C179.128 41.7453 179.594 41.7466 179.883 41.4621C181.059 40.3031 182.139 39.086 183.098 37.8143C183.342 37.4911 183.276 37.0332 182.951 36.7918C182.627 36.5503 182.165 36.6165 181.922 36.9398C181.01 38.1483 179.978 39.3118 178.848 40.426C178.559 40.7105 178.557 41.1731 178.843 41.4592ZM119.809 46.4116C120.214 46.3805 120.518 46.0291 120.488 45.6268C120.424 44.7899 120.292 43.9454 120.101 43.1029C119.895 42.1939 119.574 41.4136 119.148 40.751C118.93 40.4112 118.475 40.3121 118.132 40.5297C117.79 40.7473 117.689 41.1991 117.907 41.539C118.231 42.0422 118.492 42.6615 118.666 43.4266C118.843 44.2064 118.963 44.9803 119.02 45.7395C119.051 46.1418 119.404 46.4427 119.809 46.4116ZM104.562 47.5217C104.96 47.4393 105.216 47.0522 105.134 46.6572C104.903 45.5472 104.853 44.4459 105.009 43.4514C105.072 43.0527 104.797 42.6795 104.396 42.618C103.995 42.5565 103.618 42.8299 103.556 43.2287C103.367 44.4263 103.433 45.7066 103.693 46.9559C103.775 47.3509 104.164 47.6042 104.562 47.5217ZM59.6662 48.9175C59.7783 48.5295 59.5526 48.1253 59.1621 48.0148C57.9054 47.6591 56.6355 47.329 55.3562 47.0315C54.9608 46.9396 54.5645 47.1835 54.4711 47.5764C54.3777 47.9693 54.6225 48.3624 55.0179 48.4543C56.2725 48.746 57.5198 49.0703 58.7562 49.4201C59.1467 49.5306 59.5541 49.3056 59.6662 48.9175ZM23.7215 51.1624C23.912 51.5184 24.3573 51.653 24.7162 51.463C25.4639 51.0672 26.2062 50.6858 26.9387 50.3182C27.5104 50.0312 28.0865 49.7645 28.6665 49.5171C29.0401 49.3578 29.2135 48.9281 29.0539 48.5574C28.8943 48.1867 28.462 48.0153 28.0884 48.1746C27.4805 48.4339 26.8767 48.7135 26.2774 49.0143C25.5365 49.3862 24.7845 49.7725 24.0263 50.1738C23.6675 50.3638 23.531 50.8064 23.7215 51.1624ZM49.529 46.6689C49.5823 46.2688 49.299 45.9021 48.8963 45.85C47.5871 45.6806 46.2738 45.5564 44.9602 45.4849C44.5546 45.4629 44.2071 45.7716 44.184 46.1745C44.161 46.5774 44.4711 46.9219 44.8767 46.944C46.1508 47.0133 47.4275 47.1339 48.7031 47.299C49.1059 47.3511 49.4756 47.069 49.529 46.6689ZM33.8511 47.0645C33.9332 47.4595 34.3223 47.7129 34.7202 47.6305C35.968 47.3721 37.2278 47.1846 38.4963 47.0611C38.9008 47.0218 39.1972 46.6643 39.1584 46.2627C39.1196 45.8611 38.7603 45.5675 38.3559 45.6069C37.0376 45.7352 35.7252 45.9303 34.4228 46.2001C34.0249 46.2825 33.7689 46.6695 33.8511 47.0645ZM106.99 39.2224C107.129 39.601 107.552 39.7949 107.933 39.6553C108.378 39.4928 108.886 39.3763 109.465 39.3191C110.22 39.2447 110.974 39.191 111.711 39.179C112.117 39.1724 112.442 38.84 112.436 38.4365C112.43 38.0331 112.096 37.7114 111.69 37.718C110.9 37.7309 110.102 37.7882 109.323 37.8651C108.632 37.9332 108 38.0748 107.427 38.2842C107.046 38.4237 106.85 38.8438 106.99 39.2224ZM185.972 31.1072C186.36 31.226 186.773 31.0098 186.893 30.6241C187.138 29.8402 187.334 29.0423 187.478 28.2312C187.662 27.1918 187.816 26.175 187.941 25.1723C187.991 24.7717 187.704 24.4074 187.301 24.3586C186.898 24.3098 186.531 24.5949 186.481 24.9955C186.359 25.9728 186.209 26.9651 186.029 27.9812C185.896 28.7293 185.715 29.4671 185.488 30.1939C185.367 30.5795 185.584 30.9884 185.972 31.1072ZM187.573 15.6473C187.979 15.6239 188.289 15.2783 188.266 14.8755C188.209 13.8681 188.129 12.8458 188.027 11.7999C187.987 11.3984 187.628 11.1052 187.223 11.1451C186.819 11.185 186.523 11.5428 186.562 11.9444C186.663 12.9723 186.742 13.9747 186.797 14.9604C186.82 15.3632 187.167 15.6707 187.573 15.6473Z" stroke="#0055FF" stroke-width="1.84207" stroke-linecap="round" stroke-linejoin="round"/>
<path fill-rule="evenodd" clip-rule="evenodd" d="M180.309 10.242C180.703 10.7029 181.399 10.7584 181.864 10.3661C183.902 8.64608 185.4 6.78728 186.376 4.383C187.582 5.84692 189.528 7.70925 191.976 8.79166C192.533 9.03756 193.185 8.78856 193.434 8.2355C193.683 7.68244 193.434 7.03476 192.877 6.78886C190.02 5.52578 187.886 2.90419 187.205 1.78307C187.186 1.75163 187.166 1.72121 187.144 1.69192C187.124 1.63946 187.074 1.52007 186.977 1.39521C186.852 1.23608 186.601 1.01251 186.21 0.973105C185.861 0.938012 185.606 1.07297 185.503 1.13665C185.391 1.20564 185.315 1.27959 185.282 1.313C185.19 1.40595 185.094 1.5382 185.045 1.60637C185.039 1.61356 185.035 1.62003 185.031 1.62566C184.952 1.73408 184.893 1.85589 184.858 1.98509C184.092 4.82363 182.68 6.80374 180.437 8.69712C179.972 9.08948 179.915 9.78116 180.309 10.242Z" stroke="#0055FF" stroke-width="1.84207" stroke-linecap="round" stroke-linejoin="round"/>
</svg>
