<svg xmlns="http://www.w3.org/2000/svg" xmlns:xlink="http://www.w3.org/1999/xlink" width="24" height="24" viewBox="0 0 24 24" fill="currentColor">
  <path d="M18,7 L13.2286363,7 L14.5,8.1990569 L13.6507576,9 L11,6.5 L13.6507576,4 L14.5,4.8009431 L13.2286363,6 L18,6 L19,6 L19,11 L18,11 L18,7 Z M6,17 L10.7713637,17 L9.5,15.8009431 L10.3492424,15 L13,17.5 L10.3492424,20 L9.5,19.1990569 L10.7713637,18 L6,18 L5,18 L5,13 L6,13 L6,17 Z M3,3 L10,3 L10,12 L3,12 L3,3 Z M4,11 L9,11 L9,4 L4,4 L4,11 Z M14,12 L21,12 L21,21 L14,21 L14,12 Z M15,20 L20,20 L20,13 L15,13 L15,20 Z"/>
</svg>
