<svg xmlns="http://www.w3.org/2000/svg" xmlns:xlink="http://www.w3.org/1999/xlink" width="24" height="24" viewBox="0 0 24 24" fill="currentColor">
  <path d="M20,20 L20,8 L14,8 L14,16 L14,17 L11,17 L11,20 L20,20 Z M21,20 L21,21 L10,21 L10,20 L10,17 L3,17 L3,16 L3,4 L3,3 L14,3 L14,4 L14,7 L21,7 L21,8 L21,20 Z M13,16 L13,4 L4,4 L4,16 L13,16 Z M9,14 L11,14 L11,12 L9,12 L9,14 Z M8,14 L8,12 L6,12 L6,14 L8,14 Z M9,9 L9,11 L11,11 L11,9 L9,9 Z M8,9 L6,9 L6,11 L8,11 L8,9 Z M12,14 L12,15 L5,15 L5,14 L5,8 L6,8 L12,8 L12,9 L12,14 Z"/>
</svg>
