<svg xmlns="http://www.w3.org/2000/svg" xmlns:xlink="http://www.w3.org/1999/xlink" width="24" height="24" viewBox="0 0 24 24" fill="currentColor">
  <path d="M20,17.1833491 L18.9232994,16.0660185 L15.4050892,18.5 L14,17.0418887 L14.0403655,17 L10.988368,17 L10,17.7161353 L10,20 L20,20 L20,17.1833491 Z M20,15.4622643 L20,8 L15,8 L15,16 L15,16.3585396 L15.5545169,16.9339815 L19.072727,14.5 L20,15.4622643 Z M21,20 L21,21 L9,21 L9,20 L9,17 L3,17 L3,16 L3,4 L3,3 L15,3 L15,4 L15,7 L21,7 L21,8 L21,20 Z M14,16 L14,4 L4,4 L4,16 L14,16 Z M17.5,14 C16.6715729,14 16,13.3284271 16,12.5 C16,11.6715729 16.6715729,11 17.5,11 C18.3284271,11 19,11.6715729 19,12.5 C19,13.3284271 18.3284271,14 17.5,14 Z"/>
</svg>
