<svg xmlns="http://www.w3.org/2000/svg" width="24" height="24" viewBox="0 0 24 24" fill="currentColor"><path d="M8.382 18.239l.768-.768A8.115 8.115 0 0 0 12 18c2.365 0 4.614-1.087 6.556-2.905a13.285 13.285 0 0 0 1.893-2.196c.201-.298.362-.57.467-.787.058-.12.084-.197.084-.112s-.026.008-.084-.112a6.738 6.738 0 0 0-.467-.787 13.285 13.285 0 0 0-2.336-2.593l.709-.708C20.832 9.54 22 11.534 22 12c0 .866-4.03 7-10 7a9.193 9.193 0 0 1-3.618-.761zm-2.655-1.587C3.382 14.822 2 12.507 2 12c0-.866 4.03-7 10-7 1.582 0 3.028.43 4.299 1.08l-.745.745C14.418 6.292 13.224 6 12 6 9.635 6 7.386 7.087 5.444 8.905a13.285 13.285 0 0 0-1.893 2.196c-.201.298-.362.57-.467.787-.058.12-.084.197-.084.112s.026-.008.084.112c.105.216.266.489.467.787a13.285 13.285 0 0 0 1.893 2.196c.324.302.655.585.995.845l-.712.712zm5.076-.834l5.015-5.015a4 4 0 0 1-5.015 5.015zM8.48 13.9a4 4 0 0 1 5.42-5.42L8.48 13.9zm10.739-9.325l.707.707L5.782 19.425l-.707-.707L19.218 4.575z"/></svg>