<svg width="683" height="640" viewBox="0 0 683 640" fill="none" xmlns="http://www.w3.org/2000/svg">
<rect x="305.09" y="46" width="260.715" height="260.715" rx="24" transform="rotate(56.9235 305.09 46)" fill="#FF5975"/>
<rect x="610.941" y="296.969" width="185.855" height="185.855" rx="24" transform="rotate(107.406 610.941 296.969)" fill="#E5EEFF"/>
<rect x="197.209" y="239.372" width="185.855" height="185.855" rx="24" transform="rotate(44.9079 197.209 239.372)" fill="#FFB700"/>
<path fill-rule="evenodd" clip-rule="evenodd" d="M394 405.372L404.862 411.782L402.112 413.614L405 417.539L402.251 419.372L399.363 415.446L396.614 417.279L394 405.372Z" fill="#1A1A1A"/>
<path d="M222.25 137.372C222.25 135.853 223.481 134.622 225 134.622H520C521.519 134.622 522.75 135.853 522.75 137.372V511.372C522.75 512.89 521.519 514.122 520 514.122H225C223.481 514.122 222.25 512.89 222.25 511.372V137.372Z" fill="#FAFAFA" stroke="#F4F4F4" stroke-width="2.5"/>
<rect x="246.848" y="161.331" width="193.591" height="4.74745" rx="2.37373" fill="#F4F4F4"/>
<rect x="325" y="354.372" width="135" height="5" rx="2.5" fill="#F4F4F4"/>
<rect x="246.848" y="173.989" width="214.69" height="4.74745" rx="2.37373" fill="#F4F4F4"/>
<rect x="325" y="367.372" width="157" height="4" rx="2" fill="#F4F4F4"/>
<rect x="246.848" y="187.704" width="156.666" height="4.74745" rx="2.37373" fill="#F4F4F4"/>
<rect x="325" y="380.745" width="156.666" height="4.74745" rx="2.37373" fill="#F4F4F4"/>
<rect x="246.848" y="227.793" width="251.615" height="4.74745" rx="2.37373" fill="#F4F4F4"/>
<rect x="246.848" y="420.834" width="251.615" height="4.74745" rx="2.37373" fill="#F4F4F4"/>
<rect x="246.848" y="238.872" width="241.065" height="4.74745" rx="2.37373" fill="#F4F4F4"/>
<rect x="246.848" y="431.913" width="241.065" height="4.74745" rx="2.37373" fill="#F4F4F4"/>
<rect x="246.848" y="249.95" width="246.34" height="4.74745" rx="2.37373" fill="#F4F4F4"/>
<rect x="246.848" y="442.991" width="246.34" height="4.74745" rx="2.37373" fill="#F4F4F4"/>
<rect x="246.848" y="261.026" width="246.34" height="4.74745" rx="2.37373" fill="#F4F4F4"/>
<rect x="246.848" y="272.104" width="230.515" height="4.74745" rx="2.37373" fill="#F4F4F4"/>
<rect x="246.848" y="283.18" width="230.515" height="4.74745" rx="2.37373" fill="#F4F4F4"/>
<rect x="246.848" y="294.258" width="230.515" height="4.74745" rx="2.37373" fill="#F4F4F4"/>
<rect x="246.848" y="305.336" width="230.515" height="4.74745" rx="2.37373" fill="#F4F4F4"/>
<rect x="325" y="332.239" width="109.191" height="4.74745" rx="2.37373" fill="#F4F4F4"/>
<rect x="325" y="391.372" width="125" height="5" rx="2.5" fill="#F4F4F4"/>
<rect x="325" y="343.315" width="109.191" height="4.74745" rx="2.37373" fill="#F4F4F4"/>
<path d="M197.25 161.372C197.25 159.853 198.481 158.622 200 158.622H495C496.519 158.622 497.75 159.853 497.75 161.372V535.372C497.75 536.89 496.519 538.122 495 538.122H200C198.481 538.122 197.25 536.89 197.25 535.372V161.372Z" fill="white" stroke="#E8E8E8" stroke-width="2.5"/>
<path d="M221.848 187.704C221.848 186.393 222.91 185.331 224.221 185.331H413.065C414.376 185.331 415.438 186.393 415.438 187.704C415.438 189.015 414.376 190.078 413.065 190.078H224.221C222.91 190.078 221.848 189.015 221.848 187.704Z" fill="#F4F4F4"/>
<path d="M300 380.872C300 379.491 301.119 378.372 302.5 378.372H432.5C433.881 378.372 435 379.491 435 380.872C435 382.252 433.881 383.372 432.5 383.372H302.5C301.119 383.372 300 382.252 300 380.872Z" fill="#F4F4F4"/>
<path d="M221.848 200.362C221.848 199.052 222.91 197.989 224.221 197.989H434.164C435.475 197.989 436.538 199.052 436.538 200.362C436.538 201.673 435.475 202.736 434.164 202.736H224.221C222.91 202.736 221.848 201.673 221.848 200.362Z" fill="#F4F4F4"/>
<path d="M300 393.372C300 392.267 300.895 391.372 302 391.372H455C456.105 391.372 457 392.267 457 393.372C457 394.476 456.105 395.372 455 395.372H302C300.895 395.372 300 394.476 300 393.372Z" fill="#F4F4F4"/>
<path d="M221.848 214.077C221.848 212.766 222.91 211.704 224.221 211.704H376.14C377.451 211.704 378.514 212.766 378.514 214.077C378.514 215.388 377.451 216.451 376.14 216.451H224.221C222.91 216.451 221.848 215.388 221.848 214.077Z" fill="#F4F4F4"/>
<path d="M300 407.118C300 405.807 301.063 404.745 302.374 404.745H454.292C455.603 404.745 456.666 405.807 456.666 407.118C456.666 408.429 455.603 409.492 454.292 409.492H302.374C301.063 409.492 300 408.429 300 407.118Z" fill="#F4F4F4"/>
<path d="M221.848 254.167C221.848 252.856 222.91 251.793 224.221 251.793H471.089C472.4 251.793 473.463 252.856 473.463 254.167C473.463 255.478 472.4 256.541 471.089 256.541H224.221C222.91 256.541 221.848 255.478 221.848 254.167Z" fill="#F4F4F4"/>
<path d="M221.848 447.208C221.848 445.897 222.91 444.834 224.221 444.834H471.089C472.4 444.834 473.463 445.897 473.463 447.208C473.463 448.519 472.4 449.582 471.089 449.582H224.221C222.91 449.582 221.848 448.519 221.848 447.208Z" fill="#F4F4F4"/>
<path d="M221.848 265.245C221.848 263.934 222.91 262.872 224.221 262.872H460.539C461.85 262.872 462.913 263.934 462.913 265.245C462.913 266.556 461.85 267.619 460.539 267.619H224.221C222.91 267.619 221.848 266.556 221.848 265.245Z" fill="#F4F4F4"/>
<path d="M221.848 458.286C221.848 456.975 222.91 455.913 224.221 455.913H460.539C461.85 455.913 462.913 456.975 462.913 458.286C462.913 459.597 461.85 460.66 460.539 460.66H224.221C222.91 460.66 221.848 459.597 221.848 458.286Z" fill="#F4F4F4"/>
<path d="M221.848 276.323C221.848 275.012 222.91 273.95 224.221 273.95H465.814C467.125 273.95 468.188 275.012 468.188 276.323C468.188 277.634 467.125 278.697 465.814 278.697H224.221C222.91 278.697 221.848 277.634 221.848 276.323Z" fill="#F4F4F4"/>
<path d="M221.848 469.364C221.848 468.053 222.91 466.991 224.221 466.991H465.814C467.125 466.991 468.188 468.053 468.188 469.364C468.188 470.675 467.125 471.738 465.814 471.738H224.221C222.91 471.738 221.848 470.675 221.848 469.364Z" fill="#F4F4F4"/>
<path d="M221.848 287.4C221.848 286.089 222.91 285.026 224.221 285.026H465.814C467.125 285.026 468.188 286.089 468.188 287.4C468.188 288.711 467.125 289.773 465.814 289.773H224.221C222.91 289.773 221.848 288.711 221.848 287.4Z" fill="#F4F4F4"/>
<path d="M221.848 298.478C221.848 297.167 222.91 296.104 224.221 296.104H449.989C451.3 296.104 452.363 297.167 452.363 298.478C452.363 299.789 451.3 300.851 449.989 300.851H224.221C222.91 300.851 221.848 299.789 221.848 298.478Z" fill="#F4F4F4"/>
<path d="M221.848 309.554C221.848 308.243 222.91 307.18 224.221 307.18H449.989C451.3 307.18 452.363 308.243 452.363 309.554C452.363 310.865 451.3 311.928 449.989 311.928H224.221C222.91 311.928 221.848 310.865 221.848 309.554Z" fill="#F4F4F4"/>
<path d="M221.848 320.632C221.848 319.321 222.91 318.258 224.221 318.258H449.989C451.3 318.258 452.363 319.321 452.363 320.632C452.363 321.943 451.3 323.006 449.989 323.006H224.221C222.91 323.006 221.848 321.943 221.848 320.632Z" fill="#F4F4F4"/>
<path d="M221.848 331.71C221.848 330.399 222.91 329.336 224.221 329.336H449.989C451.3 329.336 452.363 330.399 452.363 331.71C452.363 333.021 451.3 334.084 449.989 334.084H224.221C222.91 334.084 221.848 333.021 221.848 331.71Z" fill="#F4F4F4"/>
<path d="M300 358.613C300 357.302 301.063 356.239 302.374 356.239H406.818C408.129 356.239 409.191 357.302 409.191 358.613C409.191 359.923 408.129 360.986 406.818 360.986H302.374C301.063 360.986 300 359.923 300 358.613Z" fill="#F4F4F4"/>
<path d="M300 417.872C300 416.491 301.119 415.372 302.5 415.372H422.5C423.881 415.372 425 416.491 425 417.872C425 419.252 423.881 420.372 422.5 420.372H302.5C301.119 420.372 300 419.252 300 417.872Z" fill="#F4F4F4"/>
<path d="M300 369.689C300 368.378 301.063 367.315 302.374 367.315H406.818C408.129 367.315 409.191 368.378 409.191 369.689C409.191 371 408.129 372.062 406.818 372.062H302.374C301.063 372.062 300 371 300 369.689Z" fill="#F4F4F4"/>
<path d="M221 355.372C221 352.058 223.686 349.372 227 349.372H280C283.314 349.372 286 352.058 286 355.372V415.372C286 418.685 283.314 421.372 280 421.372H227C223.686 421.372 221 418.685 221 415.372V355.372Z" fill="#F4F4F4"/>
<path fill-rule="evenodd" clip-rule="evenodd" d="M135.845 405.979C135.778 405.431 136.169 404.933 136.717 404.866C137.838 404.729 138.924 404.532 139.975 404.28C140.512 404.152 141.052 404.483 141.18 405.02C141.309 405.557 140.978 406.096 140.441 406.225C139.316 406.495 138.156 406.705 136.959 406.851C136.411 406.918 135.912 406.528 135.845 405.979ZM139.172 220.411C139.237 222.637 139.343 224.86 139.535 227.05C139.583 227.6 139.176 228.085 138.626 228.134C138.076 228.182 137.591 227.775 137.542 227.225C137.346 224.982 137.238 222.719 137.173 220.469C137.156 219.917 137.591 219.456 138.143 219.44C138.695 219.424 139.156 219.859 139.172 220.411ZM137.998 210.26C137.446 210.275 136.987 209.84 136.972 209.288C136.941 208.159 136.9 207.05 136.842 205.963C136.785 204.903 136.763 203.8 136.775 202.663C136.781 202.111 137.233 201.668 137.785 201.673C138.338 201.679 138.781 202.131 138.775 202.684C138.763 203.782 138.785 204.842 138.839 205.856C138.898 206.965 138.94 208.093 138.971 209.234C138.986 209.786 138.55 210.246 137.998 210.26ZM140.239 237.162C140.767 236.999 141.327 237.294 141.49 237.822C141.813 238.867 142.181 239.888 142.599 240.881C143.069 241.995 143.47 243.131 143.841 244.262C144.013 244.787 143.728 245.352 143.203 245.524C142.678 245.696 142.113 245.411 141.941 244.886C141.578 243.781 141.196 242.701 140.756 241.657C140.31 240.599 139.92 239.516 139.579 238.413C139.416 237.885 139.711 237.325 140.239 237.162ZM138.602 192.897C138.057 192.807 137.688 192.293 137.778 191.748C138.125 189.638 138.562 187.485 139.089 185.319C139.219 184.782 139.76 184.453 140.297 184.583C140.834 184.714 141.163 185.254 141.032 185.791C140.518 187.909 140.09 190.013 139.751 192.073C139.661 192.618 139.147 192.987 138.602 192.897ZM149.699 401.101C149.378 400.651 149.483 400.027 149.933 399.706C151.727 398.427 153.391 396.955 154.936 395.332C155.317 394.932 155.95 394.917 156.35 395.297C156.75 395.678 156.765 396.311 156.385 396.711C154.762 398.416 153.003 399.973 151.094 401.335C150.644 401.655 150.02 401.551 149.699 401.101ZM144.465 261.833C144.52 263.899 144.675 266.018 144.901 268.094C144.961 268.643 144.565 269.137 144.016 269.196C143.467 269.256 142.973 268.86 142.913 268.311C142.681 266.188 142.523 264.014 142.466 261.886C142.451 261.334 142.886 260.874 143.439 260.86C143.991 260.845 144.45 261.28 144.465 261.833ZM145.471 277.67C146.007 277.537 146.549 277.864 146.682 278.4C146.959 279.519 147.245 280.522 147.528 281.379C147.861 282.383 148.207 283.394 148.567 284.41C148.752 284.931 148.479 285.502 147.959 285.686C147.438 285.871 146.866 285.598 146.682 285.078C146.318 284.049 145.966 283.025 145.63 282.007C145.326 281.092 145.027 280.038 144.74 278.881C144.608 278.345 144.935 277.803 145.471 277.67ZM144.109 252.298C143.574 252.16 143.252 251.615 143.39 251.08C143.689 249.917 144.072 248.84 144.557 247.896C145.132 246.779 145.806 245.79 146.569 244.923C146.933 244.508 147.565 244.467 147.98 244.832C148.395 245.197 148.435 245.829 148.071 246.243C147.421 246.982 146.838 247.834 146.336 248.811C145.935 249.591 145.599 250.52 145.327 251.579C145.189 252.113 144.644 252.435 144.109 252.298ZM146.659 254.613C147.121 254.311 147.741 254.441 148.042 254.904C148.634 255.811 149.318 256.664 150.129 257.449C150.624 257.928 151.202 258.37 151.846 258.768C152.317 259.057 152.463 259.674 152.173 260.144C151.883 260.614 151.267 260.76 150.797 260.47C150.044 260.006 149.349 259.477 148.738 258.886C147.809 257.987 147.032 257.016 146.367 255.996C146.066 255.534 146.196 254.914 146.659 254.613ZM142.904 176.167C142.388 175.97 142.129 175.392 142.326 174.876C143.109 172.824 143.974 170.803 144.923 168.838C145.163 168.341 145.761 168.132 146.259 168.373C146.756 168.613 146.964 169.211 146.724 169.708C145.802 171.618 144.958 173.587 144.194 175.589C143.998 176.105 143.42 176.364 142.904 176.167ZM151.136 293.84C151.645 293.624 152.232 293.862 152.447 294.371C153.28 296.338 154.149 298.299 155.046 300.239C155.278 300.74 155.06 301.334 154.558 301.566C154.057 301.798 153.463 301.579 153.231 301.078C152.325 299.119 151.447 297.138 150.605 295.151C150.39 294.642 150.628 294.055 151.136 293.84ZM161.944 387.743C161.469 387.461 161.312 386.847 161.594 386.372C162.738 384.443 163.787 382.441 164.753 380.404C164.99 379.905 165.586 379.692 166.085 379.929C166.584 380.166 166.797 380.762 166.56 381.261C165.572 383.345 164.494 385.403 163.315 387.392C163.033 387.867 162.419 388.024 161.944 387.743ZM158.444 309.407C158.932 309.148 159.538 309.333 159.796 309.821C160.302 310.774 160.812 311.715 161.325 312.641C161.752 313.413 162.177 314.193 162.598 314.981C162.859 315.468 162.675 316.074 162.188 316.334C161.701 316.595 161.095 316.411 160.835 315.924C160.418 315.146 159.998 314.374 159.575 313.61C159.056 312.673 158.541 311.722 158.03 310.759C157.771 310.271 157.957 309.666 158.444 309.407ZM150.74 160.791C150.294 160.465 150.196 159.839 150.521 159.393C151.847 157.576 153.271 155.875 154.794 154.325C155.181 153.932 155.814 153.926 156.208 154.313C156.602 154.7 156.608 155.333 156.22 155.727C154.773 157.2 153.411 158.825 152.137 160.572C151.811 161.018 151.186 161.116 150.74 160.791ZM156.22 241.126C156.178 240.575 156.591 240.095 157.142 240.054C158.288 239.967 159.458 239.972 160.637 240.056C161.91 240.146 163.032 240.418 164.017 240.854C164.522 241.078 164.75 241.669 164.526 242.174C164.302 242.679 163.711 242.907 163.206 242.683C162.459 242.352 161.567 242.127 160.495 242.051C159.404 241.973 158.331 241.97 157.292 242.048C156.741 242.09 156.261 241.677 156.22 241.126ZM157.864 261.84C157.893 261.289 158.364 260.866 158.916 260.895C160.466 260.978 161.966 260.82 163.28 260.406C163.807 260.24 164.368 260.532 164.534 261.059C164.7 261.585 164.408 262.147 163.881 262.313C162.3 262.812 160.553 262.986 158.809 262.892C158.258 262.863 157.834 262.392 157.864 261.84ZM165.24 322.451C165.742 322.221 166.335 322.441 166.565 322.943C167.306 324.559 168.015 326.198 168.682 327.856C168.888 328.368 168.639 328.951 168.127 329.157C167.614 329.363 167.032 329.114 166.826 328.602C166.172 326.976 165.476 325.367 164.747 323.777C164.517 323.275 164.738 322.681 165.24 322.451ZM169.619 371.209C169.098 371.025 168.824 370.455 169.007 369.934C169.389 368.848 169.752 367.772 170.098 366.713C170.368 365.886 170.61 365.057 170.825 364.227C170.964 363.692 171.51 363.371 172.044 363.51C172.579 363.648 172.9 364.194 172.762 364.729C172.536 365.599 172.282 366.467 171.999 367.334C171.649 368.406 171.281 369.495 170.894 370.596C170.711 371.117 170.14 371.392 169.619 371.209ZM170.375 335.611C170.905 335.458 171.46 335.763 171.613 336.294C172.113 338.018 172.552 339.757 172.92 341.508C173.033 342.048 172.687 342.578 172.147 342.692C171.606 342.805 171.076 342.459 170.963 341.919C170.606 340.221 170.179 338.53 169.692 336.85C169.539 336.32 169.844 335.765 170.375 335.611ZM173.075 356.758C172.523 356.729 172.1 356.258 172.129 355.706C172.222 353.977 172.215 352.246 172.121 350.516C172.09 349.964 172.513 349.493 173.064 349.463C173.616 349.433 174.087 349.855 174.118 350.407C174.216 352.204 174.223 354.008 174.127 355.813C174.097 356.364 173.626 356.788 173.075 356.758ZM168.594 256.878C168.053 256.768 167.704 256.24 167.814 255.699C167.942 255.069 167.995 254.362 167.953 253.571C167.898 252.542 167.815 251.518 167.679 250.525C167.604 249.978 167.987 249.474 168.534 249.399C169.081 249.324 169.585 249.707 169.66 250.254C169.806 251.319 169.893 252.402 169.95 253.465C170 254.407 169.939 255.285 169.774 256.098C169.664 256.639 169.136 256.988 168.594 256.878ZM163.278 149.089C163.037 148.592 163.244 147.994 163.741 147.753C164.752 147.264 165.791 146.837 166.859 146.477C168.228 146.017 169.572 145.602 170.903 145.229C171.435 145.079 171.987 145.389 172.136 145.921C172.286 146.453 171.975 147.005 171.444 147.154C170.146 147.518 168.834 147.923 167.497 148.373C166.511 148.704 165.55 149.099 164.614 149.553C164.117 149.794 163.519 149.586 163.278 149.089ZM183.869 143.771C183.817 143.221 184.221 142.734 184.771 142.681C186.146 142.551 187.546 142.45 188.982 142.373C189.534 142.344 190.005 142.767 190.034 143.318C190.064 143.87 189.64 144.341 189.089 144.37C187.677 144.446 186.304 144.545 184.959 144.673C184.409 144.725 183.921 144.321 183.869 143.771Z" fill="white"/>
<path fill-rule="evenodd" clip-rule="evenodd" d="M192.683 152.424C191.978 151.989 191.759 151.065 192.194 150.36C194.101 147.269 196.308 144.876 199.36 143.071C197.13 141.751 194.208 139.518 192.238 136.45C191.791 135.753 191.993 134.825 192.69 134.377C193.387 133.93 194.315 134.132 194.763 134.829C197.062 138.41 201.05 140.74 202.707 141.424C202.754 141.444 202.799 141.465 202.843 141.489C202.919 141.505 203.09 141.547 203.279 141.652C203.521 141.787 203.875 142.079 204.009 142.596C204.128 143.058 203.998 143.428 203.933 143.579C203.863 143.744 203.779 143.861 203.74 143.913C203.634 144.056 203.474 144.211 203.392 144.292C203.384 144.3 203.376 144.308 203.369 144.314C203.239 144.443 203.086 144.546 202.918 144.619C199.235 146.231 196.847 148.533 194.747 151.935C194.312 152.64 193.388 152.859 192.683 152.424Z" fill="white"/>
<path fill-rule="evenodd" clip-rule="evenodd" d="M495.871 551.748C495.526 552.092 494.968 552.092 494.624 551.748C494.279 551.403 494.279 550.845 494.624 550.501L496.494 548.63C496.839 548.285 497.397 548.285 497.742 548.63C498.086 548.974 498.086 549.533 497.742 549.877L495.871 551.748ZM490.258 549.877C489.914 549.533 489.914 548.974 490.258 548.63C490.603 548.286 491.161 548.286 491.506 548.63L493.376 550.501C493.721 550.845 493.721 551.404 493.376 551.748C493.032 552.092 492.474 552.092 492.129 551.748L490.258 549.877ZM494.624 554.242C494.279 553.898 494.279 553.34 494.624 552.995C494.968 552.651 495.526 552.651 495.871 552.995L497.742 554.866C498.086 555.21 498.086 555.769 497.742 556.113C497.397 556.458 496.839 556.458 496.494 556.113L494.624 554.242ZM490.258 556.113C490.603 556.458 491.161 556.458 491.506 556.113L493.376 554.242C493.721 553.898 493.721 553.34 493.376 552.995C493.032 552.651 492.474 552.651 492.129 552.995L490.258 554.866C489.914 555.21 489.914 555.769 490.258 556.113Z" fill="#FFB700"/>
<path fill-rule="evenodd" clip-rule="evenodd" d="M569.871 260.748C569.526 261.092 568.968 261.092 568.624 260.748C568.279 260.403 568.279 259.845 568.624 259.501L570.494 257.63C570.839 257.285 571.397 257.285 571.742 257.63C572.086 257.974 572.086 258.533 571.742 258.877L569.871 260.748ZM564.258 258.877C563.914 258.533 563.914 257.974 564.258 257.63C564.603 257.286 565.161 257.286 565.506 257.63L567.376 259.501C567.721 259.845 567.721 260.404 567.376 260.748C567.032 261.092 566.474 261.092 566.129 260.748L564.258 258.877ZM568.624 263.242C568.279 262.898 568.279 262.34 568.624 261.995C568.968 261.651 569.526 261.651 569.871 261.995L571.742 263.866C572.086 264.21 572.086 264.769 571.742 265.113C571.397 265.458 570.839 265.458 570.494 265.113L568.624 263.242ZM564.258 265.113C564.603 265.458 565.161 265.458 565.506 265.113L567.376 263.242C567.721 262.898 567.721 262.34 567.376 261.995C567.032 261.651 566.474 261.651 566.129 261.995L564.258 263.866C563.914 264.21 563.914 264.769 564.258 265.113Z" fill="#FFB700"/>
<path fill-rule="evenodd" clip-rule="evenodd" d="M516.871 542.748C516.526 543.092 515.968 543.092 515.624 542.748C515.279 542.403 515.279 541.845 515.624 541.501L517.494 539.63C517.839 539.285 518.397 539.285 518.742 539.63C519.086 539.974 519.086 540.533 518.742 540.877L516.871 542.748ZM511.258 540.877C510.914 540.533 510.914 539.974 511.258 539.63C511.603 539.286 512.161 539.286 512.506 539.63L514.376 541.501C514.721 541.845 514.721 542.404 514.376 542.748C514.032 543.092 513.474 543.092 513.129 542.748L511.258 540.877ZM515.624 545.242C515.279 544.898 515.279 544.34 515.624 543.995C515.968 543.651 516.526 543.651 516.871 543.995L518.742 545.866C519.086 546.21 519.086 546.769 518.742 547.113C518.397 547.458 517.839 547.458 517.494 547.113L515.624 545.242ZM511.258 547.113C511.603 547.458 512.161 547.458 512.506 547.113L514.376 545.242C514.721 544.898 514.721 544.34 514.376 543.995C514.032 543.651 513.474 543.651 513.129 543.995L511.258 545.866C510.914 546.21 510.914 546.769 511.258 547.113Z" fill="#FFB700"/>
<path fill-rule="evenodd" clip-rule="evenodd" d="M472.333 507.705H485V520.372H472.333V507.705Z" fill="#FF46FB"/>
<path fill-rule="evenodd" clip-rule="evenodd" d="M459.667 507.705H472.333V520.372H459.667V507.705Z" fill="#CA41FC"/>
<path fill-rule="evenodd" clip-rule="evenodd" d="M447 507.705H459.667V520.372H447V507.705Z" fill="#8B48FE"/>
<path fill-rule="evenodd" clip-rule="evenodd" d="M485 495.038H472.333V507.705H485V495.038Z" fill="#81E650"/>
<path fill-rule="evenodd" clip-rule="evenodd" d="M472.333 495.038H459.667V507.705H472.333V495.038Z" fill="#00D267"/>
<path fill-rule="evenodd" clip-rule="evenodd" d="M459.667 495.038H447V507.705H459.667V495.038Z" fill="#00C0FF"/>
<path fill-rule="evenodd" clip-rule="evenodd" d="M472.333 482.372H485V495.038H472.333V482.372Z" fill="#FFD200"/>
<path fill-rule="evenodd" clip-rule="evenodd" d="M459.667 482.372H472.333V495.038H459.667V482.372Z" fill="#FF8E00"/>
<path fill-rule="evenodd" clip-rule="evenodd" d="M447 482.372H459.667V495.038H447V482.372Z" fill="#FF5400"/>
<rect x="181" y="502.372" width="134" height="56" rx="2.78542" fill="#F4F4F4"/>
<rect x="192.143" y="519.229" width="22.2833" height="22.2833" rx="4" fill="#0FC0C5"/>
<path fill-rule="evenodd" clip-rule="evenodd" d="M207.462 535.942V528.282H208.158V536.638H197.713V524.104H206.069V524.8H198.409V535.942H207.462ZM203.284 528.978L208.158 524.104L209.551 525.497L204.677 530.371H203.284V528.978ZM202.588 530.371H201.195H200.499H199.106V531.067H200.499V534.549H199.106V535.246H200.499H201.195H202.588V534.549H201.195V531.067H202.588V530.371Z" fill="white"/>
<path d="M226.607 534.871V526.069H232.115V527.743H228.591V529.511H231.588V531.172H228.591V533.197H232.25V534.871H226.607Z" fill="#1A1A1A"/>
<path d="M236.099 535.033C235.685 535.033 235.307 534.952 234.965 534.79C234.632 534.628 234.344 534.398 234.101 534.101C233.867 533.795 233.682 533.426 233.547 532.994C233.421 532.562 233.358 532.072 233.358 531.523C233.358 530.974 233.435 530.483 233.588 530.051C233.75 529.619 233.957 529.255 234.209 528.958C234.47 528.652 234.767 528.418 235.1 528.256C235.442 528.094 235.788 528.013 236.139 528.013C236.517 528.013 236.828 528.076 237.071 528.202C237.314 528.328 237.552 528.499 237.786 528.715L237.705 527.689V525.407H239.69V534.871H238.07L237.935 534.209H237.881C237.647 534.443 237.372 534.641 237.057 534.803C236.742 534.956 236.423 535.033 236.099 535.033ZM236.612 533.413C236.828 533.413 237.021 533.368 237.192 533.278C237.372 533.188 237.543 533.03 237.705 532.805V530.065C237.525 529.903 237.341 529.79 237.152 529.727C236.963 529.664 236.778 529.633 236.598 529.633C236.283 529.633 236.004 529.786 235.761 530.092C235.518 530.389 235.397 530.857 235.397 531.496C235.397 532.162 235.5 532.648 235.707 532.954C235.923 533.26 236.225 533.413 236.612 533.413Z" fill="#1A1A1A"/>
<path d="M241.448 534.871V528.175H243.432V534.871H241.448ZM242.433 527.189C242.1 527.189 241.826 527.095 241.61 526.906C241.394 526.708 241.286 526.456 241.286 526.15C241.286 525.844 241.394 525.596 241.61 525.407C241.826 525.218 242.1 525.124 242.433 525.124C242.775 525.124 243.05 525.218 243.257 525.407C243.473 525.596 243.581 525.844 243.581 526.15C243.581 526.456 243.473 526.708 243.257 526.906C243.05 527.095 242.775 527.189 242.433 527.189Z" fill="#1A1A1A"/>
<path d="M247.757 535.033C247.343 535.033 246.988 534.97 246.691 534.844C246.403 534.718 246.164 534.542 245.975 534.317C245.795 534.092 245.66 533.822 245.57 533.507C245.489 533.183 245.449 532.828 245.449 532.441V529.727H244.531V528.256L245.557 528.175L245.786 526.393H247.433V528.175H249.04V529.727H247.433V532.414C247.433 532.792 247.51 533.066 247.663 533.237C247.825 533.399 248.036 533.48 248.297 533.48C248.405 533.48 248.513 533.467 248.621 533.44C248.738 533.413 248.842 533.381 248.932 533.345L249.242 534.79C249.062 534.844 248.851 534.898 248.608 534.952C248.365 535.006 248.081 535.033 247.757 535.033Z" fill="#1A1A1A"/>
<path d="M253.211 534.871V526.069H256.235C256.721 526.069 257.176 526.118 257.599 526.217C258.022 526.307 258.391 526.465 258.706 526.69C259.021 526.906 259.268 527.198 259.448 527.567C259.637 527.927 259.732 528.373 259.732 528.904C259.732 529.417 259.637 529.862 259.448 530.24C259.268 530.618 259.021 530.929 258.706 531.172C258.391 531.415 258.026 531.595 257.612 531.712C257.198 531.829 256.757 531.887 256.289 531.887H255.196V534.871H253.211ZM255.196 530.308H256.168C257.248 530.308 257.788 529.84 257.788 528.904C257.788 528.445 257.644 528.121 257.356 527.932C257.068 527.743 256.654 527.648 256.114 527.648H255.196V530.308Z" fill="#1A1A1A"/>
<path d="M261.253 534.871V526.069H263.737C264.412 526.069 265.02 526.154 265.56 526.325C266.1 526.496 266.563 526.762 266.95 527.122C267.337 527.473 267.634 527.923 267.841 528.472C268.048 529.021 268.152 529.673 268.152 530.429C268.152 531.185 268.048 531.842 267.841 532.4C267.634 532.958 267.342 533.422 266.964 533.791C266.586 534.151 266.131 534.421 265.6 534.601C265.078 534.781 264.493 534.871 263.845 534.871H261.253ZM263.238 533.264H263.616C263.994 533.264 264.336 533.215 264.642 533.116C264.948 533.017 265.209 532.859 265.425 532.643C265.641 532.418 265.807 532.126 265.924 531.766C266.05 531.406 266.113 530.96 266.113 530.429C266.113 529.907 266.05 529.471 265.924 529.12C265.807 528.76 265.641 528.476 265.425 528.269C265.209 528.053 264.948 527.9 264.642 527.81C264.336 527.72 263.994 527.675 263.616 527.675H263.238V533.264Z" fill="#1A1A1A"/>
<path d="M269.823 534.871V526.069H275.371V527.743H271.807V529.781H274.858V531.455H271.807V534.871H269.823Z" fill="#1A1A1A"/>
<rect x="358" y="211" width="189" height="57" rx="2.81132" fill="#F4F4F4"/>
<rect x="369.245" y="227.756" width="22.4905" height="22.4905" rx="4" fill="#3D99F5"/>
<path fill-rule="evenodd" clip-rule="evenodd" d="M381.895 232.676H374.866H374.163V233.379V241.813H374.163V242.516H379.082V244.624V245.327H379.785H386.111H386.814V244.624V236.19V235.487H386.111H381.894V233.379H381.895V232.676ZM386.111 236.19H381.894V239.704H385.408V240.407H381.894V241.11H385.408V241.813H381.894V242.516H385.408V243.218H380.488V242.516H379.785V244.624H386.111V236.19ZM381.191 241.11V241.813H379.785H379.082H374.866V233.379H381.191V235.487V236.19V239.704V240.407V241.11Z" fill="white"/>
<path d="M407.071 243.814C406.513 243.814 405.987 243.72 405.492 243.531C404.997 243.333 404.56 243.045 404.182 242.667C403.813 242.289 403.521 241.821 403.305 241.263C403.089 240.696 402.981 240.043 402.981 239.305C402.981 238.576 403.093 237.928 403.318 237.361C403.543 236.785 403.845 236.299 404.223 235.903C404.601 235.507 405.042 235.206 405.546 234.999C406.05 234.792 406.581 234.688 407.139 234.688C407.706 234.688 408.214 234.805 408.664 235.039C409.114 235.264 409.488 235.53 409.785 235.836L408.732 237.105C408.507 236.898 408.268 236.731 408.016 236.605C407.773 236.47 407.494 236.403 407.179 236.403C406.882 236.403 406.599 236.47 406.329 236.605C406.068 236.731 405.838 236.916 405.64 237.159C405.451 237.402 405.298 237.699 405.181 238.05C405.073 238.401 405.019 238.797 405.019 239.238C405.019 240.147 405.213 240.853 405.6 241.357C405.987 241.852 406.504 242.1 407.152 242.1C407.512 242.1 407.832 242.023 408.111 241.87C408.399 241.708 408.651 241.51 408.867 241.276L409.92 242.518C409.182 243.382 408.232 243.814 407.071 243.814Z" fill="#1A1A1A"/>
<path d="M413.97 243.814C413.547 243.814 413.138 243.738 412.742 243.585C412.346 243.423 411.995 243.193 411.689 242.896C411.392 242.599 411.153 242.235 410.973 241.803C410.793 241.362 410.703 240.862 410.703 240.304C410.703 239.746 410.793 239.251 410.973 238.819C411.153 238.378 411.392 238.009 411.689 237.712C411.995 237.415 412.346 237.19 412.742 237.037C413.138 236.875 413.547 236.794 413.97 236.794C414.393 236.794 414.798 236.875 415.185 237.037C415.581 237.19 415.928 237.415 416.225 237.712C416.531 238.009 416.774 238.378 416.954 238.819C417.134 239.251 417.224 239.746 417.224 240.304C417.224 240.862 417.134 241.362 416.954 241.803C416.774 242.235 416.531 242.599 416.225 242.896C415.928 243.193 415.581 243.423 415.185 243.585C414.798 243.738 414.393 243.814 413.97 243.814ZM413.97 242.208C414.375 242.208 414.681 242.037 414.888 241.695C415.095 241.353 415.199 240.889 415.199 240.304C415.199 239.719 415.095 239.256 414.888 238.914C414.681 238.572 414.375 238.401 413.97 238.401C413.556 238.401 413.246 238.572 413.039 238.914C412.841 239.256 412.742 239.719 412.742 240.304C412.742 240.889 412.841 241.353 413.039 241.695C413.246 242.037 413.556 242.208 413.97 242.208Z" fill="#1A1A1A"/>
<path d="M418.583 243.652V236.956H420.203L420.338 237.807H420.392C420.68 237.537 420.995 237.303 421.337 237.105C421.679 236.898 422.08 236.794 422.539 236.794C423.268 236.794 423.794 237.033 424.118 237.51C424.451 237.987 424.618 238.648 424.618 239.494V243.652H422.633V239.751C422.633 239.265 422.566 238.932 422.431 238.752C422.305 238.572 422.098 238.482 421.81 238.482C421.558 238.482 421.342 238.54 421.162 238.657C420.982 238.765 420.784 238.923 420.568 239.13V243.652H418.583Z" fill="#1A1A1A"/>
<path d="M427.848 243.652L425.593 236.956H427.591L428.455 240.115C428.545 240.448 428.631 240.79 428.712 241.141C428.802 241.483 428.892 241.83 428.982 242.181H429.036C429.117 241.83 429.198 241.483 429.279 241.141C429.369 240.79 429.459 240.448 429.549 240.115L430.426 236.956H432.33L430.143 243.652H427.848Z" fill="#1A1A1A"/>
<path d="M436.267 243.814C435.79 243.814 435.344 243.738 434.93 243.585C434.516 243.423 434.156 243.193 433.85 242.896C433.544 242.59 433.306 242.221 433.135 241.789C432.964 241.357 432.878 240.862 432.878 240.304C432.878 239.764 432.968 239.278 433.148 238.846C433.328 238.405 433.562 238.036 433.85 237.739C434.147 237.433 434.485 237.199 434.863 237.037C435.241 236.875 435.632 236.794 436.037 236.794C436.514 236.794 436.928 236.875 437.279 237.037C437.639 237.199 437.936 237.424 438.17 237.712C438.413 238 438.593 238.342 438.71 238.738C438.827 239.125 438.886 239.548 438.886 240.007C438.886 240.187 438.877 240.358 438.859 240.52C438.841 240.682 438.823 240.804 438.805 240.885H434.795C434.885 241.371 435.083 241.731 435.389 241.965C435.704 242.19 436.087 242.302 436.537 242.302C437.014 242.302 437.495 242.154 437.981 241.857L438.643 243.058C438.301 243.292 437.918 243.477 437.495 243.612C437.081 243.747 436.672 243.814 436.267 243.814ZM434.782 239.575H437.198C437.198 239.197 437.113 238.891 436.942 238.657C436.771 238.423 436.483 238.306 436.078 238.306C435.763 238.306 435.484 238.41 435.241 238.617C435.007 238.824 434.854 239.143 434.782 239.575Z" fill="#1A1A1A"/>
<path d="M440.257 243.652V236.956H441.877L442.012 238.131H442.066C442.309 237.672 442.601 237.334 442.943 237.118C443.285 236.902 443.627 236.794 443.969 236.794C444.158 236.794 444.311 236.808 444.428 236.835C444.554 236.853 444.667 236.884 444.766 236.929L444.442 238.644C444.316 238.608 444.199 238.581 444.091 238.563C443.983 238.545 443.857 238.536 443.713 238.536C443.461 238.536 443.195 238.626 442.916 238.806C442.646 238.986 442.421 239.305 442.241 239.764V243.652H440.257Z" fill="#1A1A1A"/>
<path d="M448.214 243.814C447.8 243.814 447.445 243.751 447.148 243.625C446.86 243.499 446.621 243.324 446.432 243.099C446.252 242.874 446.117 242.604 446.027 242.289C445.946 241.965 445.906 241.609 445.906 241.222V238.509H444.988V237.037L446.014 236.956L446.243 235.174H447.89V236.956H449.497V238.509H447.89V241.195C447.89 241.573 447.967 241.848 448.12 242.019C448.282 242.181 448.493 242.262 448.754 242.262C448.862 242.262 448.97 242.248 449.078 242.221C449.195 242.194 449.299 242.163 449.389 242.127L449.699 243.571C449.519 243.625 449.308 243.679 449.065 243.733C448.822 243.787 448.538 243.814 448.214 243.814Z" fill="#1A1A1A"/>
<path d="M453.669 243.652V234.85H456.693C457.179 234.85 457.633 234.9 458.056 234.999C458.479 235.089 458.848 235.246 459.163 235.471C459.478 235.687 459.726 235.98 459.906 236.349C460.095 236.709 460.189 237.154 460.189 237.685C460.189 238.198 460.095 238.644 459.906 239.022C459.726 239.4 459.478 239.71 459.163 239.953C458.848 240.196 458.484 240.376 458.07 240.493C457.656 240.61 457.215 240.669 456.747 240.669H455.653V243.652H453.669ZM455.653 239.089H456.625C457.705 239.089 458.245 238.621 458.245 237.685C458.245 237.226 458.101 236.902 457.813 236.713C457.525 236.524 457.111 236.43 456.571 236.43H455.653V239.089Z" fill="#1A1A1A"/>
<path d="M461.71 243.652V234.85H464.194C464.869 234.85 465.477 234.936 466.017 235.107C466.557 235.278 467.02 235.543 467.407 235.903C467.794 236.254 468.091 236.704 468.298 237.253C468.505 237.802 468.609 238.455 468.609 239.211C468.609 239.967 468.505 240.624 468.298 241.182C468.091 241.74 467.799 242.203 467.421 242.572C467.043 242.932 466.588 243.202 466.057 243.382C465.535 243.562 464.95 243.652 464.302 243.652H461.71ZM463.695 242.046H464.073C464.451 242.046 464.793 241.996 465.099 241.897C465.405 241.798 465.666 241.641 465.882 241.425C466.098 241.2 466.264 240.907 466.381 240.547C466.507 240.187 466.57 239.742 466.57 239.211C466.57 238.689 466.507 238.252 466.381 237.901C466.264 237.541 466.098 237.258 465.882 237.051C465.666 236.835 465.405 236.682 465.099 236.592C464.793 236.502 464.451 236.457 464.073 236.457H463.695V242.046Z" fill="#1A1A1A"/>
<path d="M470.28 243.652V234.85H475.828V236.524H472.264V238.563H475.315V240.237H472.264V243.652H470.28Z" fill="#1A1A1A"/>
<path d="M482.479 243.814C482.065 243.814 481.709 243.751 481.412 243.625C481.124 243.499 480.886 243.324 480.697 243.099C480.517 242.874 480.382 242.604 480.292 242.289C480.211 241.965 480.17 241.609 480.17 241.222V238.509H479.252V237.037L480.278 236.956L480.508 235.174H482.155V236.956H483.761V238.509H482.155V241.195C482.155 241.573 482.231 241.848 482.384 242.019C482.546 242.181 482.758 242.262 483.019 242.262C483.127 242.262 483.235 242.248 483.343 242.221C483.46 242.194 483.563 242.163 483.653 242.127L483.964 243.571C483.784 243.625 483.572 243.679 483.329 243.733C483.086 243.787 482.803 243.814 482.479 243.814Z" fill="#1A1A1A"/>
<path d="M487.706 243.814C487.283 243.814 486.874 243.738 486.478 243.585C486.082 243.423 485.731 243.193 485.425 242.896C485.128 242.599 484.889 242.235 484.709 241.803C484.529 241.362 484.439 240.862 484.439 240.304C484.439 239.746 484.529 239.251 484.709 238.819C484.889 238.378 485.128 238.009 485.425 237.712C485.731 237.415 486.082 237.19 486.478 237.037C486.874 236.875 487.283 236.794 487.706 236.794C488.129 236.794 488.534 236.875 488.921 237.037C489.317 237.19 489.664 237.415 489.961 237.712C490.267 238.009 490.51 238.378 490.69 238.819C490.87 239.251 490.96 239.746 490.96 240.304C490.96 240.862 490.87 241.362 490.69 241.803C490.51 242.235 490.267 242.599 489.961 242.896C489.664 243.193 489.317 243.423 488.921 243.585C488.534 243.738 488.129 243.814 487.706 243.814ZM487.706 242.208C488.111 242.208 488.417 242.037 488.624 241.695C488.831 241.353 488.935 240.889 488.935 240.304C488.935 239.719 488.831 239.256 488.624 238.914C488.417 238.572 488.111 238.401 487.706 238.401C487.292 238.401 486.982 238.572 486.775 238.914C486.577 239.256 486.478 239.719 486.478 240.304C486.478 240.889 486.577 241.353 486.775 241.695C486.982 242.037 487.292 242.208 487.706 242.208Z" fill="#1A1A1A"/>
<path d="M495.967 243.652L494.333 234.85H496.372L496.979 238.968C497.033 239.427 497.092 239.89 497.155 240.358C497.218 240.817 497.276 241.281 497.33 241.749H497.384C497.474 241.281 497.56 240.817 497.641 240.358C497.731 239.89 497.821 239.427 497.911 238.968L498.856 234.85H500.543L501.488 238.968C501.578 239.418 501.664 239.877 501.745 240.345C501.835 240.804 501.925 241.272 502.015 241.749H502.069C502.132 241.272 502.19 240.804 502.244 240.345C502.307 239.886 502.37 239.427 502.433 238.968L503.041 234.85H504.944L503.378 243.652H500.881L500.017 239.656C499.945 239.314 499.877 238.972 499.814 238.63C499.76 238.279 499.711 237.942 499.666 237.618H499.612C499.558 237.942 499.499 238.279 499.436 238.63C499.382 238.972 499.319 239.314 499.247 239.656L498.424 243.652H495.967Z" fill="#1A1A1A"/>
<path d="M508.879 243.814C508.456 243.814 508.047 243.738 507.651 243.585C507.255 243.423 506.904 243.193 506.598 242.896C506.301 242.599 506.062 242.235 505.882 241.803C505.702 241.362 505.612 240.862 505.612 240.304C505.612 239.746 505.702 239.251 505.882 238.819C506.062 238.378 506.301 238.009 506.598 237.712C506.904 237.415 507.255 237.19 507.651 237.037C508.047 236.875 508.456 236.794 508.879 236.794C509.302 236.794 509.707 236.875 510.094 237.037C510.49 237.19 510.837 237.415 511.134 237.712C511.44 238.009 511.683 238.378 511.863 238.819C512.043 239.251 512.133 239.746 512.133 240.304C512.133 240.862 512.043 241.362 511.863 241.803C511.683 242.235 511.44 242.599 511.134 242.896C510.837 243.193 510.49 243.423 510.094 243.585C509.707 243.738 509.302 243.814 508.879 243.814ZM508.879 242.208C509.284 242.208 509.59 242.037 509.797 241.695C510.004 241.353 510.108 240.889 510.108 240.304C510.108 239.719 510.004 239.256 509.797 238.914C509.59 238.572 509.284 238.401 508.879 238.401C508.465 238.401 508.155 238.572 507.948 238.914C507.75 239.256 507.651 239.719 507.651 240.304C507.651 240.889 507.75 241.353 507.948 241.695C508.155 242.037 508.465 242.208 508.879 242.208Z" fill="#1A1A1A"/>
<path d="M513.492 243.652V236.956H515.112L515.247 238.131H515.301C515.544 237.672 515.836 237.334 516.178 237.118C516.52 236.902 516.862 236.794 517.204 236.794C517.393 236.794 517.546 236.808 517.663 236.835C517.789 236.853 517.902 236.884 518.001 236.929L517.677 238.644C517.551 238.608 517.434 238.581 517.326 238.563C517.218 238.545 517.092 238.536 516.948 238.536C516.696 238.536 516.43 238.626 516.151 238.806C515.881 238.986 515.656 239.305 515.476 239.764V243.652H513.492Z" fill="#1A1A1A"/>
<path d="M521.128 243.814C520.714 243.814 520.336 243.733 519.994 243.571C519.661 243.409 519.373 243.18 519.13 242.883C518.896 242.577 518.712 242.208 518.577 241.776C518.451 241.344 518.388 240.853 518.388 240.304C518.388 239.755 518.464 239.265 518.617 238.833C518.779 238.401 518.986 238.036 519.238 237.739C519.499 237.433 519.796 237.199 520.129 237.037C520.471 236.875 520.818 236.794 521.169 236.794C521.547 236.794 521.857 236.857 522.1 236.983C522.343 237.109 522.582 237.28 522.816 237.496L522.735 236.47V234.189H524.719V243.652H523.099L522.964 242.991H522.91C522.676 243.225 522.402 243.423 522.087 243.585C521.772 243.738 521.452 243.814 521.128 243.814ZM521.641 242.194C521.857 242.194 522.051 242.149 522.222 242.059C522.402 241.969 522.573 241.812 522.735 241.587V238.846C522.555 238.684 522.37 238.572 522.181 238.509C521.992 238.446 521.808 238.414 521.628 238.414C521.313 238.414 521.034 238.567 520.791 238.873C520.548 239.17 520.426 239.638 520.426 240.277C520.426 240.943 520.53 241.429 520.737 241.735C520.953 242.041 521.254 242.194 521.641 242.194Z" fill="#1A1A1A"/>
<rect x="136" y="436.372" width="131" height="56" rx="2.78542" fill="#F4F4F4"/>
<rect x="147.143" y="453.229" width="22.2833" height="22.2833" rx="4" fill="#7961F2"/>
<path fill-rule="evenodd" clip-rule="evenodd" d="M152.714 458.104V467.156H155.499V460.889H164.551V471.335H155.499V467.853H152.018V457.407H161.07V460.889H160.374V458.104H152.714ZM156.195 470.638V461.586H163.855V470.638H156.195ZM160.373 466.46H162.462V467.157H160.373V469.246H159.677V467.157H157.588V466.46H159.677V464.371H160.373V466.46Z" fill="white"/>
<path d="M181.607 468.871V460.069H183.78L185.198 463.984C185.288 464.245 185.373 464.515 185.454 464.794C185.535 465.064 185.621 465.334 185.711 465.604H185.765C185.855 465.334 185.936 465.064 186.008 464.794C186.089 464.515 186.174 464.245 186.264 463.984L187.655 460.069H189.815V468.871H188.006V465.644C188.006 465.428 188.015 465.19 188.033 464.929C188.051 464.668 188.073 464.407 188.1 464.146C188.127 463.876 188.154 463.615 188.181 463.363C188.208 463.102 188.235 462.863 188.262 462.647H188.208L187.493 464.74L186.237 468.101H185.144L183.888 464.74L183.186 462.647H183.132C183.159 462.863 183.186 463.102 183.213 463.363C183.24 463.615 183.267 463.876 183.294 464.146C183.321 464.407 183.344 464.668 183.362 464.929C183.38 465.19 183.389 465.428 183.389 465.644V468.871H181.607Z" fill="#1A1A1A"/>
<path d="M194.725 469.033C194.248 469.033 193.803 468.956 193.389 468.803C192.975 468.641 192.615 468.412 192.309 468.115C192.003 467.809 191.764 467.44 191.593 467.008C191.422 466.576 191.337 466.081 191.337 465.523C191.337 464.983 191.427 464.497 191.607 464.065C191.787 463.624 192.021 463.255 192.309 462.958C192.606 462.652 192.943 462.418 193.321 462.256C193.699 462.094 194.091 462.013 194.496 462.013C194.973 462.013 195.387 462.094 195.738 462.256C196.098 462.418 196.395 462.643 196.629 462.931C196.872 463.219 197.052 463.561 197.169 463.957C197.286 464.344 197.344 464.767 197.344 465.226C197.344 465.406 197.335 465.577 197.317 465.739C197.299 465.901 197.281 466.022 197.263 466.103H193.254C193.344 466.589 193.542 466.949 193.848 467.183C194.163 467.408 194.545 467.521 194.995 467.521C195.472 467.521 195.954 467.372 196.44 467.075L197.101 468.277C196.759 468.511 196.377 468.695 195.954 468.83C195.54 468.965 195.13 469.033 194.725 469.033ZM193.24 464.794H195.657C195.657 464.416 195.571 464.11 195.4 463.876C195.229 463.642 194.941 463.525 194.536 463.525C194.221 463.525 193.942 463.628 193.699 463.835C193.465 464.042 193.312 464.362 193.24 464.794Z" fill="#1A1A1A"/>
<path d="M198.715 468.871V462.175H200.335L200.47 463.349H200.524C200.767 462.89 201.06 462.553 201.402 462.337C201.744 462.121 202.086 462.013 202.428 462.013C202.617 462.013 202.77 462.026 202.887 462.053C203.013 462.071 203.125 462.103 203.224 462.148L202.9 463.862C202.774 463.826 202.657 463.799 202.549 463.781C202.441 463.763 202.315 463.754 202.171 463.754C201.919 463.754 201.654 463.844 201.375 464.024C201.105 464.204 200.88 464.524 200.7 464.983V468.871H198.715Z" fill="#1A1A1A"/>
<path d="M206.352 471.719C205.956 471.719 205.587 471.683 205.245 471.611C204.912 471.548 204.615 471.449 204.354 471.314C204.102 471.179 203.904 471.004 203.76 470.788C203.616 470.572 203.544 470.315 203.544 470.018C203.544 469.478 203.864 469.028 204.503 468.668V468.614C204.323 468.497 204.174 468.349 204.057 468.169C203.94 467.989 203.882 467.759 203.882 467.48C203.882 467.237 203.954 467.008 204.098 466.792C204.242 466.567 204.422 466.378 204.638 466.225V466.171C204.404 466.009 204.192 465.779 204.003 465.482C203.823 465.176 203.733 464.825 203.733 464.429C203.733 464.024 203.81 463.673 203.963 463.376C204.116 463.07 204.318 462.818 204.57 462.62C204.831 462.413 205.128 462.26 205.461 462.161C205.794 462.062 206.141 462.013 206.501 462.013C206.897 462.013 207.243 462.067 207.54 462.175H209.984V463.619H208.917C208.98 463.718 209.03 463.844 209.066 463.997C209.111 464.15 209.133 464.317 209.133 464.497C209.133 464.884 209.066 465.221 208.931 465.509C208.796 465.788 208.607 466.022 208.364 466.211C208.13 466.391 207.851 466.526 207.527 466.616C207.212 466.706 206.87 466.751 206.501 466.751C206.24 466.751 205.97 466.706 205.691 466.616C205.601 466.688 205.538 466.76 205.502 466.832C205.466 466.904 205.448 466.999 205.448 467.116C205.448 467.287 205.52 467.413 205.664 467.494C205.817 467.575 206.082 467.615 206.46 467.615H207.54C208.368 467.615 208.998 467.75 209.43 468.02C209.871 468.281 210.092 468.713 210.092 469.316C210.092 469.667 210.002 469.987 209.822 470.275C209.651 470.572 209.403 470.824 209.079 471.031C208.755 471.247 208.364 471.413 207.905 471.53C207.446 471.656 206.928 471.719 206.352 471.719ZM206.501 465.55C206.762 465.55 206.978 465.46 207.149 465.28C207.329 465.091 207.419 464.807 207.419 464.429C207.419 464.078 207.329 463.813 207.149 463.633C206.978 463.444 206.762 463.349 206.501 463.349C206.24 463.349 206.019 463.439 205.839 463.619C205.668 463.799 205.583 464.069 205.583 464.429C205.583 464.807 205.668 465.091 205.839 465.28C206.019 465.46 206.24 465.55 206.501 465.55ZM206.663 470.477C207.113 470.477 207.482 470.396 207.77 470.234C208.058 470.081 208.202 469.888 208.202 469.654C208.202 469.447 208.112 469.307 207.932 469.235C207.761 469.163 207.509 469.127 207.176 469.127H206.487C206.253 469.127 206.064 469.118 205.92 469.1C205.776 469.091 205.65 469.073 205.542 469.046C205.299 469.262 205.178 469.483 205.178 469.708C205.178 469.96 205.313 470.149 205.583 470.275C205.853 470.41 206.213 470.477 206.663 470.477Z" fill="#1A1A1A"/>
<path d="M213.934 469.033C213.457 469.033 213.011 468.956 212.597 468.803C212.183 468.641 211.823 468.412 211.517 468.115C211.211 467.809 210.973 467.44 210.802 467.008C210.631 466.576 210.545 466.081 210.545 465.523C210.545 464.983 210.635 464.497 210.815 464.065C210.995 463.624 211.229 463.255 211.517 462.958C211.814 462.652 212.152 462.418 212.53 462.256C212.908 462.094 213.299 462.013 213.704 462.013C214.181 462.013 214.595 462.094 214.946 462.256C215.306 462.418 215.603 462.643 215.837 462.931C216.08 463.219 216.26 463.561 216.377 463.957C216.494 464.344 216.553 464.767 216.553 465.226C216.553 465.406 216.544 465.577 216.526 465.739C216.508 465.901 216.49 466.022 216.472 466.103H212.462C212.552 466.589 212.75 466.949 213.056 467.183C213.371 467.408 213.754 467.521 214.204 467.521C214.681 467.521 215.162 467.372 215.648 467.075L216.31 468.277C215.968 468.511 215.585 468.695 215.162 468.83C214.748 468.965 214.339 469.033 213.934 469.033ZM212.449 464.794H214.865C214.865 464.416 214.78 464.11 214.609 463.876C214.438 463.642 214.15 463.525 213.745 463.525C213.43 463.525 213.151 463.628 212.908 463.835C212.674 464.042 212.521 464.362 212.449 464.794Z" fill="#1A1A1A"/>
<path d="M220.789 468.871V460.069H223.813C224.299 460.069 224.753 460.118 225.176 460.217C225.599 460.307 225.968 460.465 226.283 460.69C226.598 460.906 226.846 461.198 227.026 461.567C227.215 461.927 227.309 462.373 227.309 462.904C227.309 463.417 227.215 463.862 227.026 464.24C226.846 464.618 226.598 464.929 226.283 465.172C225.968 465.415 225.604 465.595 225.19 465.712C224.776 465.829 224.335 465.887 223.867 465.887H222.773V468.871H220.789ZM222.773 464.308H223.745C224.825 464.308 225.365 463.84 225.365 462.904C225.365 462.445 225.221 462.121 224.933 461.932C224.645 461.743 224.231 461.648 223.691 461.648H222.773V464.308Z" fill="#1A1A1A"/>
<path d="M228.831 468.871V460.069H231.315C231.99 460.069 232.597 460.154 233.137 460.325C233.677 460.496 234.141 460.762 234.528 461.122C234.915 461.473 235.212 461.923 235.419 462.472C235.626 463.021 235.729 463.673 235.729 464.429C235.729 465.185 235.626 465.842 235.419 466.4C235.212 466.958 234.919 467.422 234.541 467.791C234.163 468.151 233.709 468.421 233.178 468.601C232.656 468.781 232.071 468.871 231.423 468.871H228.831ZM230.815 467.264H231.193C231.571 467.264 231.913 467.215 232.219 467.116C232.525 467.017 232.786 466.859 233.002 466.643C233.218 466.418 233.385 466.126 233.502 465.766C233.628 465.406 233.691 464.96 233.691 464.429C233.691 463.907 233.628 463.471 233.502 463.12C233.385 462.76 233.218 462.476 233.002 462.269C232.786 462.053 232.525 461.9 232.219 461.81C231.913 461.72 231.571 461.675 231.193 461.675H230.815V467.264Z" fill="#1A1A1A"/>
<path d="M237.4 468.871V460.069H242.948V461.743H239.384V463.781H242.435V465.455H239.384V468.871H237.4Z" fill="#1A1A1A"/>
<rect x="429" y="313.372" width="147" height="57" rx="2.81132" fill="#F4F4F4"/>
<rect x="440.245" y="331.128" width="22.4905" height="22.4905" rx="4" fill="#F23030"/>
<path fill-rule="evenodd" clip-rule="evenodd" d="M446.251 337.134L447.561 342.373L446.251 347.612L451.49 346.302L456.728 347.612L455.419 342.373L456.728 337.134L451.49 338.444L446.251 337.134ZM445.165 336.048L451.49 337.629L457.815 336.048L456.234 342.373L457.815 348.698L451.49 347.117L445.165 348.698L446.746 342.373L445.165 336.048Z" fill="white"/>
<path d="M478.071 345.775C477.513 345.775 476.986 345.68 476.491 345.491C475.996 345.293 475.56 345.005 475.182 344.627C474.813 344.249 474.52 343.781 474.304 343.223C474.088 342.656 473.98 342.004 473.98 341.266C473.98 340.537 474.093 339.889 474.318 339.322C474.543 338.746 474.844 338.26 475.222 337.864C475.6 337.468 476.041 337.166 476.545 336.959C477.049 336.752 477.58 336.649 478.138 336.649C478.705 336.649 479.214 336.766 479.664 337C480.114 337.225 480.487 337.49 480.784 337.796L479.731 339.065C479.506 338.858 479.268 338.692 479.016 338.566C478.773 338.431 478.494 338.363 478.179 338.363C477.882 338.363 477.598 338.431 477.328 338.566C477.067 338.692 476.838 338.876 476.64 339.119C476.451 339.362 476.298 339.659 476.181 340.01C476.073 340.361 476.019 340.757 476.019 341.198C476.019 342.107 476.212 342.814 476.599 343.318C476.986 343.813 477.504 344.06 478.152 344.06C478.512 344.06 478.831 343.984 479.11 343.831C479.398 343.669 479.65 343.471 479.866 343.237L480.919 344.479C480.181 345.343 479.232 345.775 478.071 345.775Z" fill="#1A1A1A"/>
<path d="M484.97 345.775C484.547 345.775 484.137 345.698 483.741 345.545C483.345 345.383 482.994 345.154 482.688 344.857C482.391 344.56 482.153 344.195 481.973 343.763C481.793 343.322 481.703 342.823 481.703 342.265C481.703 341.707 481.793 341.212 481.973 340.78C482.153 340.339 482.391 339.97 482.688 339.673C482.994 339.376 483.345 339.151 483.741 338.998C484.137 338.836 484.547 338.755 484.97 338.755C485.393 338.755 485.798 338.836 486.185 338.998C486.581 339.151 486.927 339.376 487.224 339.673C487.53 339.97 487.773 340.339 487.953 340.78C488.133 341.212 488.223 341.707 488.223 342.265C488.223 342.823 488.133 343.322 487.953 343.763C487.773 344.195 487.53 344.56 487.224 344.857C486.927 345.154 486.581 345.383 486.185 345.545C485.798 345.698 485.393 345.775 484.97 345.775ZM484.97 344.168C485.375 344.168 485.681 343.997 485.888 343.655C486.095 343.313 486.198 342.85 486.198 342.265C486.198 341.68 486.095 341.216 485.888 340.874C485.681 340.532 485.375 340.361 484.97 340.361C484.556 340.361 484.245 340.532 484.038 340.874C483.84 341.216 483.741 341.68 483.741 342.265C483.741 342.85 483.84 343.313 484.038 343.655C484.245 343.997 484.556 344.168 484.97 344.168Z" fill="#1A1A1A"/>
<path d="M489.583 345.613V338.917H491.203L491.338 339.781H491.392C491.671 339.502 491.968 339.263 492.283 339.065C492.598 338.858 492.976 338.755 493.417 338.755C493.894 338.755 494.276 338.854 494.564 339.052C494.861 339.241 495.095 339.515 495.266 339.875C495.563 339.569 495.874 339.308 496.198 339.092C496.531 338.867 496.922 338.755 497.372 338.755C498.092 338.755 498.619 338.998 498.952 339.484C499.294 339.961 499.465 340.618 499.465 341.455V345.613H497.48V341.711C497.48 341.225 497.413 340.892 497.278 340.712C497.152 340.532 496.945 340.442 496.657 340.442C496.324 340.442 495.941 340.658 495.509 341.09V345.613H493.525V341.711C493.525 341.225 493.457 340.892 493.322 340.712C493.196 340.532 492.989 340.442 492.701 340.442C492.359 340.442 491.981 340.658 491.567 341.09V345.613H489.583Z" fill="#1A1A1A"/>
<path d="M501.158 348.097V338.917H502.778L502.913 339.578H502.967C503.228 339.344 503.52 339.151 503.844 338.998C504.177 338.836 504.519 338.755 504.87 338.755C505.275 338.755 505.64 338.836 505.964 338.998C506.288 339.16 506.562 339.389 506.787 339.686C507.012 339.983 507.183 340.343 507.3 340.766C507.426 341.18 507.489 341.644 507.489 342.157C507.489 342.733 507.408 343.246 507.246 343.696C507.093 344.137 506.882 344.515 506.612 344.83C506.351 345.136 506.049 345.37 505.707 345.532C505.374 345.694 505.028 345.775 504.668 345.775C504.38 345.775 504.101 345.716 503.831 345.599C503.561 345.473 503.309 345.298 503.075 345.073L503.142 346.139V348.097H501.158ZM504.209 344.155C504.551 344.155 504.843 344.002 505.086 343.696C505.329 343.381 505.451 342.877 505.451 342.184C505.451 340.978 505.064 340.375 504.29 340.375C503.903 340.375 503.52 340.577 503.142 340.982V343.723C503.322 343.885 503.502 343.997 503.682 344.06C503.862 344.123 504.038 344.155 504.209 344.155Z" fill="#1A1A1A"/>
<path d="M508.897 345.613V338.917H510.517L510.652 340.091H510.706C510.949 339.632 511.241 339.295 511.583 339.079C511.925 338.863 512.267 338.755 512.609 338.755C512.798 338.755 512.951 338.768 513.068 338.795C513.194 338.813 513.307 338.845 513.406 338.89L513.082 340.604C512.956 340.568 512.839 340.541 512.731 340.523C512.623 340.505 512.497 340.496 512.353 340.496C512.101 340.496 511.835 340.586 511.556 340.766C511.286 340.946 511.061 341.266 510.881 341.725V345.613H508.897Z" fill="#1A1A1A"/>
<path d="M517.141 345.775C516.664 345.775 516.218 345.698 515.804 345.545C515.39 345.383 515.03 345.154 514.724 344.857C514.418 344.551 514.18 344.182 514.009 343.75C513.838 343.318 513.752 342.823 513.752 342.265C513.752 341.725 513.842 341.239 514.022 340.807C514.202 340.366 514.436 339.997 514.724 339.7C515.021 339.394 515.359 339.16 515.737 338.998C516.115 338.836 516.506 338.755 516.911 338.755C517.388 338.755 517.802 338.836 518.153 338.998C518.513 339.16 518.81 339.385 519.044 339.673C519.287 339.961 519.467 340.303 519.584 340.699C519.701 341.086 519.76 341.509 519.76 341.968C519.76 342.148 519.751 342.319 519.733 342.481C519.715 342.643 519.697 342.764 519.679 342.845H515.669C515.759 343.331 515.957 343.691 516.263 343.925C516.578 344.15 516.961 344.263 517.411 344.263C517.888 344.263 518.369 344.114 518.855 343.817L519.517 345.019C519.175 345.253 518.792 345.437 518.369 345.572C517.955 345.707 517.546 345.775 517.141 345.775ZM515.656 341.536H518.072C518.072 341.158 517.987 340.852 517.816 340.618C517.645 340.384 517.357 340.267 516.952 340.267C516.637 340.267 516.358 340.37 516.115 340.577C515.881 340.784 515.728 341.104 515.656 341.536Z" fill="#1A1A1A"/>
<path d="M523.102 345.775C522.661 345.775 522.207 345.689 521.739 345.518C521.28 345.347 520.879 345.122 520.537 344.843L521.428 343.601C521.734 343.835 522.027 344.011 522.306 344.128C522.585 344.245 522.868 344.303 523.156 344.303C523.453 344.303 523.669 344.254 523.804 344.155C523.939 344.056 524.007 343.916 524.007 343.736C524.007 343.628 523.966 343.534 523.885 343.453C523.813 343.363 523.71 343.282 523.575 343.21C523.449 343.138 523.305 343.075 523.143 343.021C522.981 342.958 522.814 342.89 522.643 342.818C522.436 342.737 522.229 342.643 522.022 342.535C521.815 342.427 521.626 342.296 521.455 342.143C521.284 341.981 521.145 341.797 521.037 341.59C520.929 341.374 520.875 341.126 520.875 340.847C520.875 340.541 520.933 340.258 521.05 339.997C521.176 339.736 521.352 339.515 521.577 339.335C521.802 339.155 522.072 339.016 522.387 338.917C522.702 338.809 523.053 338.755 523.44 338.755C523.953 338.755 524.403 338.845 524.79 339.025C525.177 339.196 525.514 339.389 525.802 339.605L524.911 340.793C524.668 340.613 524.43 340.474 524.196 340.375C523.962 340.276 523.728 340.226 523.494 340.226C522.99 340.226 522.738 340.402 522.738 340.753C522.738 340.861 522.774 340.955 522.846 341.036C522.918 341.108 523.012 341.176 523.129 341.239C523.255 341.302 523.395 341.365 523.548 341.428C523.71 341.482 523.876 341.54 524.047 341.603C524.263 341.684 524.475 341.779 524.682 341.887C524.898 341.986 525.091 342.112 525.262 342.265C525.442 342.418 525.586 342.607 525.694 342.832C525.802 343.048 525.856 343.309 525.856 343.615C525.856 343.921 525.798 344.204 525.681 344.465C525.564 344.726 525.388 344.956 525.154 345.154C524.92 345.343 524.632 345.496 524.29 345.613C523.948 345.721 523.552 345.775 523.102 345.775Z" fill="#1A1A1A"/>
<path d="M529.087 345.775C528.646 345.775 528.192 345.689 527.724 345.518C527.265 345.347 526.864 345.122 526.522 344.843L527.413 343.601C527.719 343.835 528.012 344.011 528.291 344.128C528.57 344.245 528.853 344.303 529.141 344.303C529.438 344.303 529.654 344.254 529.789 344.155C529.924 344.056 529.992 343.916 529.992 343.736C529.992 343.628 529.951 343.534 529.87 343.453C529.798 343.363 529.695 343.282 529.56 343.21C529.434 343.138 529.29 343.075 529.128 343.021C528.966 342.958 528.799 342.89 528.628 342.818C528.421 342.737 528.214 342.643 528.007 342.535C527.8 342.427 527.611 342.296 527.44 342.143C527.269 341.981 527.13 341.797 527.022 341.59C526.914 341.374 526.86 341.126 526.86 340.847C526.86 340.541 526.918 340.258 527.035 339.997C527.161 339.736 527.337 339.515 527.562 339.335C527.787 339.155 528.057 339.016 528.372 338.917C528.687 338.809 529.038 338.755 529.425 338.755C529.938 338.755 530.388 338.845 530.775 339.025C531.162 339.196 531.499 339.389 531.787 339.605L530.896 340.793C530.653 340.613 530.415 340.474 530.181 340.375C529.947 340.276 529.713 340.226 529.479 340.226C528.975 340.226 528.723 340.402 528.723 340.753C528.723 340.861 528.759 340.955 528.831 341.036C528.903 341.108 528.997 341.176 529.114 341.239C529.24 341.302 529.38 341.365 529.533 341.428C529.695 341.482 529.861 341.54 530.032 341.603C530.248 341.684 530.46 341.779 530.667 341.887C530.883 341.986 531.076 342.112 531.247 342.265C531.427 342.418 531.571 342.607 531.679 342.832C531.787 343.048 531.841 343.309 531.841 343.615C531.841 343.921 531.783 344.204 531.666 344.465C531.549 344.726 531.373 344.956 531.139 345.154C530.905 345.343 530.617 345.496 530.275 345.613C529.933 345.721 529.537 345.775 529.087 345.775Z" fill="#1A1A1A"/>
<path d="M535.966 345.613V336.811H538.99C539.476 336.811 539.931 336.86 540.354 336.959C540.777 337.049 541.146 337.207 541.461 337.432C541.776 337.648 542.023 337.94 542.203 338.309C542.392 338.669 542.487 339.115 542.487 339.646C542.487 340.159 542.392 340.604 542.203 340.982C542.023 341.36 541.776 341.671 541.461 341.914C541.146 342.157 540.781 342.337 540.367 342.454C539.953 342.571 539.512 342.629 539.044 342.629H537.951V345.613H535.966ZM537.951 341.05H538.923C540.003 341.05 540.543 340.582 540.543 339.646C540.543 339.187 540.399 338.863 540.111 338.674C539.823 338.485 539.409 338.39 538.869 338.39H537.951V341.05Z" fill="#1A1A1A"/>
<path d="M544.008 345.613V336.811H546.492C547.167 336.811 547.775 336.896 548.315 337.067C548.855 337.238 549.318 337.504 549.705 337.864C550.092 338.215 550.389 338.665 550.596 339.214C550.803 339.763 550.907 340.415 550.907 341.171C550.907 341.927 550.803 342.584 550.596 343.142C550.389 343.7 550.097 344.164 549.719 344.533C549.341 344.893 548.886 345.163 548.355 345.343C547.833 345.523 547.248 345.613 546.6 345.613H544.008ZM545.993 344.006H546.371C546.749 344.006 547.091 343.957 547.397 343.858C547.703 343.759 547.964 343.601 548.18 343.385C548.396 343.16 548.562 342.868 548.679 342.508C548.805 342.148 548.868 341.702 548.868 341.171C548.868 340.649 548.805 340.213 548.679 339.862C548.562 339.502 548.396 339.218 548.18 339.011C547.964 338.795 547.703 338.642 547.397 338.552C547.091 338.462 546.749 338.417 546.371 338.417H545.993V344.006Z" fill="#1A1A1A"/>
<path d="M552.578 345.613V336.811H558.126V338.485H554.562V340.523H557.613V342.197H554.562V345.613H552.578Z" fill="#1A1A1A"/>
<path fill-rule="evenodd" clip-rule="evenodd" d="M521 114.372C522.105 114.372 523 113.476 523 112.372C523 111.267 522.105 110.372 521 110.372C519.895 110.372 519 111.267 519 112.372C519 113.476 519.895 114.372 521 114.372ZM521 115.372C522.657 115.372 524 114.028 524 112.372C524 110.715 522.657 109.372 521 109.372C519.343 109.372 518 110.715 518 112.372C518 114.028 519.343 115.372 521 115.372Z" fill="#FF5975"/>
<path d="M503.612 95.5231L503.612 95.5231C503.463 95.374 503.463 95.1322 503.612 94.983C503.761 94.8339 504.003 94.8339 504.152 94.983L504.504 94.6313L504.152 94.983L506.023 96.8538C506.172 97.003 506.172 97.2448 506.023 97.3939C505.874 97.5431 505.632 97.5431 505.483 97.3939L503.612 95.5231ZM503.612 101.759L503.258 102.113L503.612 101.759C503.463 101.61 503.463 101.368 503.612 101.219L503.258 100.866L503.612 101.219L505.483 99.3483C505.632 99.1991 505.874 99.1991 506.023 99.3483C506.172 99.4974 506.172 99.7392 506.023 99.8884L504.152 101.759L504.427 102.034L504.152 101.759C504.003 101.908 503.761 101.908 503.612 101.759ZM508.517 97.3939C508.368 97.543 508.126 97.543 507.977 97.3939C507.828 97.2447 507.828 97.0029 507.977 96.8538L509.848 94.983L509.494 94.6294L509.848 94.983C509.997 94.8338 510.239 94.8338 510.388 94.983C510.537 95.1321 510.537 95.3739 510.388 95.523L508.517 97.3939ZM507.977 99.8884C507.828 99.7392 507.828 99.4974 507.977 99.3483C508.126 99.1991 508.368 99.1991 508.517 99.3483L510.388 101.219C510.537 101.368 510.537 101.61 510.388 101.759C510.239 101.908 509.997 101.908 509.848 101.759L507.977 99.8884ZM581.5 243.372C581.5 244.752 580.381 245.872 579 245.872C577.619 245.872 576.5 244.752 576.5 243.372C576.5 241.991 577.619 240.872 579 240.872C580.381 240.872 581.5 241.991 581.5 243.372Z" stroke="#0055FF"/>
</svg>
