<svg xmlns="http://www.w3.org/2000/svg" xmlns:xlink="http://www.w3.org/1999/xlink" width="24" height="24" viewBox="0 0 24 24" fill="currentColor">
  <path d="M20,20 L20,8 L15,8 L15,16 L15,17 L10,17 L10,20 L20,20 Z M21,20 L21,21 L9,21 L9,20 L9,17 L3,17 L3,16 L3,4 L3,3 L15,3 L15,4 L15,7 L21,7 L21,8 L21,20 Z M14,16 L14,13.6263753 L12.9568458,12.542563 L9.49546776,14.9400889 L7.1878824,12.542563 L4,14.750652 L4,16 L14,16 Z M14,4 L4,4 L4,13.3099182 L7.33489622,11 L9.64248158,13.3975259 L13.1038596,11 L14,11.9310684 L14,4 Z M11.5,10 C10.6715729,10 10,9.32842712 10,8.5 C10,7.67157288 10.6715729,7 11.5,7 C12.3284271,7 13,7.67157288 13,8.5 C13,9.32842712 12.3284271,10 11.5,10 Z"/>
</svg>
