<svg xmlns="http://www.w3.org/2000/svg" xmlns:xlink="http://www.w3.org/1999/xlink" width="24" height="24" viewBox="0 0 24 24" fill="currentColor">
  <path d="M10,21 L9,21 L9,17 L3,17 L3,16 L3,4 L3,3 L15,3 L15,4 L15,6 L20,6 L21,6 L21,21 L20,21 L10,21 Z M10,20 L20,20 L20,7 L15,7 L15,11 C17.209139,11 19,12.790861 19,15 C19,17.209139 17.209139,19 15,19 C13.5194353,19 12.2267476,18.1956027 11.5351288,17 L10,17 L10,20 Z M14,6 L14,4 L4,4 L4,16 L14,16 L14,7 L14,6 Z M15,12 L15,14.5 L17.9585208,14.5 C17.7204817,13.0811433 16.4864981,12 15,12 Z M15,15.5 L15,16 L15,17 L12.7633794,17 C13.3228061,17.6257453 14.1284363,18 15,18 C16.4864981,18 17.7204817,16.9188567 17.9585208,15.5 L15,15.5 Z"/>
</svg>
