<svg xmlns="http://www.w3.org/2000/svg" xmlns:xlink="http://www.w3.org/1999/xlink" width="24" height="24" viewBox="0 0 24 24" fill="currentColor">
  <path d="M11.8292943,12 L9,12 L8.5,12 L8.5,8.04147922 C7.08114333,8.27951827 6,9.51350186 6,11 C6,12.6568542 7.34314575,14 9,14 C10.3062188,14 11.4174579,13.1651924 11.8292943,12 Z M12,11 C12,9.51350186 10.9188567,8.27951827 9.5,8.04147922 L9.5,11 L12,11 Z M20,20 L20,7 L15,7 L15,16 L15,17 L10,17 L10,20 L20,20 Z M21,20 L21,21 L9,21 L9,20 L9,17 L3,17 L3,16 L3,4 L3,3 L15,3 L15,4 L15,6 L21,6 L21,7 L21,20 Z M14,16 L14,4 L4,4 L4,16 L14,16 Z M9,15 C6.790861,15 5,13.209139 5,11 C5,8.790861 6.790861,7 9,7 C11.209139,7 13,8.790861 13,11 C13,13.209139 11.209139,15 9,15 Z"/>
</svg>
