<svg xmlns="http://www.w3.org/2000/svg" xmlns:xlink="http://www.w3.org/1999/xlink" width="24" height="24" viewBox="0 0 24 24" fill="#fff">
  <path d="M8.28997343,17.2429821 C9.19593898,18.1375786 10.166301,18.8391859 11.1333007,19.367903 C11.4889618,19.5623644 11.7899577,19.7058067 12.0189601,19.803413 C12.2446403,19.7148505 12.5410138,19.583361 12.8911493,19.4029629 C13.852071,18.9078734 14.8166273,18.2358264 15.7176224,17.3627445 C18.1377542,15.0175892 19.6610011,11.690045 19.854971,7.1471145 C19.2366509,6.91524436 18.5737541,6.66665808 16.1049863,5.74087016 L11.6049865,4.05337034 L12.3950142,4.05337033 L7.89501403,5.74087034 L4.8012639,6.9010266 C4.43875712,7.03696663 4.29612784,7.09045261 4.14586918,7.1467996 C4.34323673,11.5516807 5.86673089,14.8501492 8.28997343,17.2429821 Z M3,6.375 C2.99999995,6.37500005 12,3 12,3 C12,3 21,6.37499955 21,6.375 C20.8910799,18.4364737 12,21 12,21 C12,21 3.10658955,18.0970558 3,6.375 Z"/>
</svg>
