<svg xmlns="http://www.w3.org/2000/svg" xmlns:xlink="http://www.w3.org/1999/xlink" width="24" height="24" viewBox="0 0 24 24" fill="currentColor">
  <path d="M11.068085,18.8082824 L10,17.8009431 L10.8492424,17 L13.5,19.5 L10.8492424,22 L10,21.1990569 L11.3013692,19.971701 C6.93375013,19.6163834 3.5,15.9591894 3.5,11.5 L4.63333333,11.5 C4.63333333,15.2528284 7.43955627,18.3502282 11.068085,18.8082824 Z M12.8972064,4.68741965 L14.5,6.1990569 L13.6507576,7 L11,4.5 L12,3.5568734 L12,3.5 C12.0200438,3.5 12.0400714,3.50006938 12.0600826,3.5002079 L13.6507576,2 L14.5,2.8009431 L13.5994694,3.65025748 C17.5292545,4.39851286 20.5,7.85232903 20.5,12 L19.3666667,12 C19.3666667,8.23521439 16.5425329,5.13004057 12.8972064,4.68741965 Z M8,8 L17,8 L17,16 L8,16 L8,8 Z M9,15 L16,15 L16,9 L9,9 L9,15 Z"/>
</svg>
