<svg fill="currentColor" xmlns="http://www.w3.org/2000/svg" width="24" height="24" viewBox="0 0 24 24"><path d="M18.238 6.982V4h.89v3.57h.005v.89h-4.46v-.89h2.894a7.099 7.099 0 0 0-5.558-2.678c-3.932 0-7.12 3.196-7.12 7.137a7.133 7.133 0 0 0 3.171 5.94l-.494.742A8.027 8.027 0 0 1 4 12.03C4 7.595 7.586 4 12.009 4a7.986 7.986 0 0 1 6.229 2.982zM9.398 18.67c.557.22 1.14.37 1.732.444l-.11.886a8.22 8.22 0 0 1-.572-.093l-.022-.005h-.001l-.03-.006-.024-.005-.022-.005h-.001l-.022-.004a.018.018 0 0 0-.008-.002.106.106 0 0 1-.016-.004l-.008-.002a.237.237 0 0 1-.023-.006h-.007l-.016-.003-.007-.002-.023-.006h-.001l-.022-.006h-.001l-.023-.004a7.816 7.816 0 0 1-1.1-.349l.326-.828zm3.52.44a7.163 7.163 0 0 0 1.733-.453l.329.829c-.049.02-.1.04-.15.058l-.006.003h-.002l-.005.003-.007.002h-.001l-.004.002-.002.001-.007.002s-.002 0-.003.002l-.007.002-.002.001-.007.002-.004.002h-.002l-.004.003a.234.234 0 0 0-.024.008c-.003 0-.005.001-.006.003l-.006.001a8.502 8.502 0 0 1-.352.118l-.036.011-.014.004-.005.002-.025.007-.005.002-.02.006-.017.005-.034.01a.027.027 0 0 1-.008.003l-.05.013-.003.001-.164.045h-.006l-.05.013h-.001l-.04.011-.008.001-.017.005-.015.003-.025.006h-.001l-.023.006h-.002l-.024.006-.008.001-.008.002a.113.113 0 0 0-.016.004l-.01.002a.086.086 0 0 0-.014.003h-.001c-.003.001-.005 0-.007.002h-.002c-.005.001-.01.003-.016.003l-.008.002-.025.006-.024.005-.008.001h-.001a.102.102 0 0 1-.016.004l-.007.002-.025.005-.025.005-.025.005-.081.016h-.001l-.106.019a.218.218 0 0 1-.024.004h-.001l-.025.004h-.007v.001a.098.098 0 0 1-.017.003h-.008v.001l-.017.002a.025.025 0 0 1-.008.002.02.02 0 0 1-.007 0l-.001.001c-.003 0-.006.002-.008.001h-.001l-.006.001h-.002a.015.015 0 0 1-.006.002h-.002l-.008.001-.007.001h-.003l-.004.001h-.003l-.007.002h-.007l-.004.002h-.004l-.003.001h-.005l-.003.001h-.006l-.007.003h-.011l-.003.002h-.008-.002l-.005.002h-.007l-.013.002-.006.001-.053.007-.115-.885zm4.595-2.554l.69.565a7.797 7.797 0 0 1-.453.507l-.015.018h-.001l-.017.017-.003.004-.001.001-.013.012-.004.004-.012.013h-.001a.02.02 0 0 1-.004.004v.001a.134.134 0 0 1-.017.017c-.002.002-.004.003-.004.005-.001 0-.001 0 0 0-.005.004-.01.007-.013.011v.001c-.002 0-.003.003-.004.003l-.002.002-.003.003-.008.008-.001.001a.012.012 0 0 1-.003.004h-.001l-.004.005a.204.204 0 0 0-.012.012l-.002.001-.004.003v.003c-.005.002-.008.005-.011.009l-.002.001-.003.004-.002.001-.003.004-.002.001-.006.006-.001.002c-.002 0-.002.001-.004.003l-.001.002-.003.002s0 .002-.002.002l-.005.005a.007.007 0 0 1-.003.002c0 .002-.001.003-.002.003l-.003.003-.003.002-.002.003-.004.002a.007.007 0 0 1-.004.003v.003l-.004.002-.003.003-.002.002-.003.003-.003.003a.015.015 0 0 1-.004.003.012.012 0 0 0-.002.004l-.003.002-.003.002a.007.007 0 0 1-.003.003l-.001.003c-.002 0-.003.001-.004.003l-.003.002a.007.007 0 0 1-.003.003l-.002.003c-.002 0-.003.002-.003.002l-.004.002c0 .001 0 .002-.002.002a.051.051 0 0 0-.005.005l-.002.002-.002.002-.002.003-.003.002-.002.003a.014.014 0 0 0-.006.005l-.002.001a.007.007 0 0 1-.003.003l-.002.003-.003.002-.003.003a.02.02 0 0 1-.004.004h-.001l-.004.005-.003.002-.003.003-.002.002-.003.002-.002.002-.005.005-.003.001-.002.004-.003.001a.012.012 0 0 1-.003.004l-.001.001-.005.005-.003.002a.007.007 0 0 1-.003.003l-.002.002-.003.003-.003.002a.043.043 0 0 1-.005.004v.001l-.004.004-.002.002a.02.02 0 0 1-.004.004h-.002l-.004.005h-.002a.051.051 0 0 0-.005.005l-.001.002-.004.003s-.002 0-.002.002l-.004.003-.006.006-.001.001-.005.004-.001.002c-.002 0-.002.002-.004.003 0 0-.002 0-.002.002a.043.043 0 0 1-.006.004v.001l-.005.004-.001.001-.004.004-.001.002c-.002 0-.003.002-.006.004a.01.01 0 0 0-.006.005l-.006.004-.001.002-.005.004c-.003.002-.003.004-.005.006h-.001l-.005.004-.001.001-.005.004-.001.002-.011.01h-.001l-.005.004v.001l-.012.01h-.001l-.006.005-.017.015v.001l-.006.005-.012.01H17.2c-.001.003-.004.004-.005.006h-.001l-.017.015h-.001l-.017.016a8.342 8.342 0 0 1-.418.33l-.526-.722a7.119 7.119 0 0 0 1.297-1.233zm1.498-3.23l.875.164a8.174 8.174 0 0 1-.255 1.005c0 .003 0 .006-.002.008a.375.375 0 0 0-.015.045l-.007.022v.001l-.002.007h-.001l-.005.015-.002.007s-.001 0 0 0l-.006.015v.001l-.001.007-.009.022-.002.008-.005.015-.001.001c0 .002 0 .004-.002.005v.001l-.005.014v.001l-.002.006-.001.002a.063.063 0 0 1-.005.014v.002l-.002.005v.001l-.004.006v.001a.027.027 0 0 0-.002.007v.001l-.003.007v.001l-.002.006-.003.009-.002.005-.001.002-.002.005-.001.002-.005.014v.001l-.002.007-.004.008s0 .004-.002.006v.001l-.002.006v.002l-.003.005v.001a.016.016 0 0 1-.003.008v.002l-.003.005v.002a.007.007 0 0 1-.003.004v.002l-.003.007a.019.019 0 0 0-.002.006l-.001.003v.004l-.002.002-.002.007-.003.007-.001.002a.012.012 0 0 1-.002.004l-.001.002-.001.005-.002.002-.002.007-.001.002-.001.005-.002.002-.001.005-.001.002-.002.006v.002a.012.012 0 0 1-.003.004v.003a.012.012 0 0 0-.002.004l-.001.003-.003.006v.002a.02.02 0 0 1-.002.005l-.001.003-.003.004v.002l-.002.006v.002c-.002 0-.003.003-.004.005l-.001.002v.005l-.002.002-.001.005v.002L19.45 15l-.001.003-.001.005-.002.002-.001.005-.001.002-.004.005v.002l-.001.005-.002.003s0 .003-.002.004v.003l-.002.006h-.001l-.002.006-.001.003a.012.012 0 0 0-.002.004l-.001.003a.012.012 0 0 0-.002.004v.003c-.002.001-.003.003-.003.005l-.001.003-.002.004-.001.002a.016.016 0 0 0-.002.006v.002l-.004.006v.002l-.002.004-.001.002-.002.004-.001.002-.003.007v.003l-.003.004v.003l-.003.003v.003l-.003.006v.003l-.003.004-.002.002v.004l-.001.003-.002.004-.001.002-.002.007-.001.003-.002.004c-.001 0-.002.001-.001.002l-.003.004v.003a.024.024 0 0 0-.003.006l-.001.002-.002.004-.001.003a.012.012 0 0 0-.002.004l-.001.002a.019.019 0 0 0-.002.006l-.001.003-.002.004-.001.003-.002.004-.001.002-.002.005-.002.002a.016.016 0 0 0-.002.006v.003l-.003.003v.003l-.003.004c0 .001 0 .002-.002.003l-.002.006v.002l-.002.005v.002a.016.016 0 0 0-.003.005v.001l-.004.007v.002c-.001 0-.003.002-.003.004l-.002.002a.012.012 0 0 1-.001.004l-.001.003-.003.007-.003.006-.001.002v.005l-.002.002-.003.005a.024.024 0 0 0-.003.007l-.001.002-.002.005-.001.002-.002.006h-.001a.024.024 0 0 0-.003.007l-.001.002c0 .002-.002.004-.003.005v.003a.012.012 0 0 0-.002.004h-.001l-.003.007v.002l-.003.005v.003c-.002 0-.002.003-.003.004v.002l-.004.007v.001l-.003.006v.002a.012.012 0 0 0-.003.003v.002l-.807-.376a7.2 7.2 0 0 0 .545-1.71zm.597-3.83c.02.06.04.12.058.182l.002.006.006.02.005.015.004.015c0 .002 0 .003.002.004l.007.029c.002.001.002.003.002.004l.01.037.003.006.014.052a.011.011 0 0 1 .002.005l.044.163v.004l.014.053v.004l.01.04v.003l.008.027v.004l.008.028v.005l.005.018v.002l.006.024v.002l.004.018v.004l.006.02v.001l.006.03.002.007v.001l.003.013v.004l.004.015v.004l.003.011v.002l.003.013v.005l.003.008v.005a.349.349 0 0 1 .007.032l.002.007v.005l.002.008v.005l.003.008v.003l.005.021v.006l.003.006v.006l.01.044V10.573l.003.007v.005l.002.007v.006l.002.006.001.007.001.006.002.006v.006l.012.07.001.005v.007l.003.007.001.012.003.012c.04.245.068.49.085.734l-.887.062a7.314 7.314 0 0 0-.35-1.762l.845-.28z"/></svg>