<?xml version="1.0" encoding="UTF-8"?>
<svg width="80px" height="80px" viewBox="0 0 80 80" version="1.1" xmlns="http://www.w3.org/2000/svg" xmlns:xlink="http://www.w3.org/1999/xlink">
    <!-- Generator: Sketch 49.3 (51167) - http://www.bohemiancoding.com/sketch -->
    <title>search</title>
    <desc>Created with Sketch.</desc>
    <defs></defs>
    <g id="Page-1" stroke="none" stroke-width="1" fill="none" fill-rule="evenodd">
        <g id="search" transform="translate(0.000000, -1.000000)" fill="#000000" fill-rule="nonzero">
            <g id="Group" transform="translate(0.000000, 0.637820)">
                <path d="M33.996915,0.36225 C15.292115,0.36225 1.5e-05,15.65415 1.5e-05,34.35915 C1.5e-05,53.0639 15.292115,68.356 33.996915,68.356 C41.196615,68.356 47.890315,66.1166 53.401315,62.2628 L69.74361,78.6051 C72.08641,80.9477 75.90011,80.9478 78.24281,78.6051 C80.58571,76.2622 80.58571,72.48 78.24281,70.137 L61.869315,53.7635 C65.721415,48.2534 67.99381,41.5572 67.99381,34.35915 C67.99381,15.65415 52.701715,0.36225 33.996915,0.36225 Z M33.996915,12.36115 C46.217115,12.36115 55.994915,22.13895 55.994915,34.35915 C55.994915,46.5792 46.217015,56.3571 33.996915,56.3571 C21.776915,56.3571 11.998915,46.5792 11.998915,34.35915 C11.998915,22.13895 21.776915,12.36115 33.996915,12.36115 Z" id="Shape"></path>
            </g>
        </g>
    </g>
</svg>