<svg xmlns="http://www.w3.org/2000/svg" width="24" height="24" viewBox="0 0 24 24" fill="currentColor"><path d="M12 19c-5.97 0-10-6.134-10-7 0-.866 4.03-7 10-7s10 6.134 10 7c0 .866-4.03 7-10 7zm0-1c2.365 0 4.614-1.087 6.556-2.905a13.285 13.285 0 0 0 1.893-2.196c.201-.298.362-.57.467-.787.058-.12.084-.197.084-.112s-.026.008-.084-.112a6.738 6.738 0 0 0-.467-.787 13.285 13.285 0 0 0-1.893-2.196C16.614 7.087 14.365 6 12 6S7.386 7.087 5.444 8.905a13.285 13.285 0 0 0-1.893 2.196c-.201.298-.362.57-.467.787-.058.12-.084.197-.084.112s.026-.008.084.112c.105.216.266.489.467.787a13.285 13.285 0 0 0 1.893 2.196C7.386 16.913 9.635 18 12 18zm0-2a4 4 0 1 1 0-8 4 4 0 0 1 0 8z"/></svg>