<svg xmlns="http://www.w3.org/2000/svg" xmlns:xlink="http://www.w3.org/1999/xlink" width="24" height="24" viewBox="0 0 24 24" fill="#fff">
  <path d="M7.35355339,16.3535534 C7.15829124,16.5488155 6.84170876,16.5488155 6.64644661,16.3535534 C6.45118446,16.1582912 6.45118446,15.8417088 6.64644661,15.6464466 L9.64644661,12.6464466 C9.903582,12.3893112 10.3404805,12.4839475 10.4681646,12.8244383 L11.2469226,14.9011264 L12.7226499,13.9173082 C12.9601836,13.7589524 13.2818682,13.8312884 13.4287465,14.0760855 L14.1905269,15.3457195 L15.7763932,14.5527864 C16.0233825,14.4292918 16.323719,14.529404 16.4472136,14.7763932 C16.5707082,15.0233825 16.470596,15.323719 16.2236068,15.4472136 L14.2236068,16.4472136 C13.9899215,16.5640563 13.7056749,16.4812835 13.5712535,16.2572479 L12.8410428,15.04023 L11.2773501,16.0826918 C11.0093945,16.2613289 10.6449121,16.1437662 10.5318354,15.8422284 L9.8044835,13.9026233 L7.35355339,16.3535534 Z M18,20 L18,9 L19,9 L19,21 L4,21 L4,3 L16,3 L16,4 L5,4 L5,20 L18,20 Z M6,18 L17,18 L17,19 L6,19 L6,18 Z M12,10 L19,3 L21,5 L14,12 L12,12 L12,10 Z"/>
</svg>
