<svg xmlns="http://www.w3.org/2000/svg" width="30" height="30" viewBox="0 0 30 30">
  <polygon fill="#FF46FB" points="19.922 19.922 29.883 19.922 29.883 29.883 19.922 29.883"/>
  <polygon fill="#CA41FC" points="9.961 19.922 19.922 19.922 19.922 29.883 9.961 29.883"/>
  <polygon fill="#8B48FE" points="0 19.922 9.961 19.922 9.961 29.883 0 29.883"/>
  <polygon fill="#81E650" points="19.922 9.961 29.883 9.961 29.883 19.922 19.922 19.922"/>
  <polygon fill="#00D267" points="9.961 9.961 19.922 9.961 19.922 19.922 9.961 19.922"/>
  <polygon fill="#00C0FF" points="0 9.961 9.961 9.961 9.961 19.922 0 19.922"/>
  <polygon fill="#FFD200" points="19.922 0 29.883 0 29.883 9.961 19.922 9.961"/>
  <polygon fill="#FF8E00" points="9.961 0 19.922 0 19.922 9.961 9.961 9.961"/>
  <polygon fill="#FF5400" points="0 0 9.961 0 9.961 9.961 0 9.961"/>
</svg>
