<svg xmlns="http://www.w3.org/2000/svg" width="140" height="30" viewBox="0 0 140 30">
      <path fill="#000000" d="M140,0.270574972 C139.796804,0.225760992 139.559742,0.180665163 139.288814,0.135287486 C139.039899,0.0904735062 138.752039,0.0566516347 138.425232,0.0338218715 C138.097578,0.0115558061 137.741986,3.55271368e-15 137.358453,3.55271368e-15 C136.139278,3.55271368e-15 135.111445,0.169109357 134.276649,0.507328072 C133.441006,0.845546787 132.757759,1.31369786 132.227757,1.91093574 C131.696908,2.50873732 131.313375,3.20208568 131.076313,3.99098083 C130.839251,4.78043968 130.720721,5.62598647 130.720721,6.5276212 L130.720721,7.40698985 L128.485566,7.40698985 L128.485566,11.6685457 L130.720721,11.6685457 L130.720721,24.0473506 L136.54567,24.0473506 L136.54567,11.6685457 L139.390412,11.6685457 L139.390412,7.40698985 L136.54567,7.40698985 L136.54567,6.89966178 C136.54567,6.17841037 136.742939,5.66516347 137.138324,5.36076663 C137.532863,5.05636979 138.001907,4.90417136 138.543763,4.90417136 C138.768972,4.90417136 138.967088,4.91572717 139.136417,4.93799324 C139.305747,4.960823 139.458144,4.98337091 139.593608,5.00563698 C139.729072,5.02846674 139.864536,5.05101466 140,5.07328072 L140,0.270574972 L140,0.270574972 Z M108.945175,19.4475761 C109.351567,20.5527057 109.898785,21.4768884 110.587676,22.2209696 C111.276284,22.9650507 112.083141,23.5231116 113.009093,23.8951522 C113.934764,24.2671928 114.927884,24.4532131 115.9893,24.4532131 C116.734352,24.4532131 117.535564,24.2781849 118.393785,23.9289741 C119.251723,23.5797632 119.973915,23.111894 120.561208,22.5253664 L120.561208,24.0473506 L125.844301,24.0473506 L125.844301,0.507328072 L120.019352,0.507328072 L120.019352,8.1848929 C119.499791,7.66657272 118.935641,7.29453213 118.326053,7.06877114 C117.716465,6.84357384 116.937547,6.73055242 115.9893,6.73055242 C115.131079,6.73055242 114.250564,6.91657272 113.347753,7.2886133 C112.44466,7.66065389 111.620588,8.21871477 110.875536,8.96279594 C110.130485,9.70687711 109.520897,10.6316234 109.046773,11.7361894 C108.57265,12.8413191 108.335588,14.1265502 108.335588,15.5918828 C108.335588,17.057779 108.538784,18.3430101 108.945175,19.4475761 L108.945175,19.4475761 Z M114.617728,13.6471251 C114.832212,13.1397971 115.091851,12.7285795 115.396645,12.4126268 C115.701439,12.0972379 116.034455,11.8714769 116.395692,11.7361894 C116.756647,11.6009019 117.095307,11.5332582 117.411671,11.5332582 C117.795486,11.5332582 118.252677,11.6009019 118.783244,11.7361894 C119.313528,11.8714769 119.748424,12.0972379 120.087084,12.4126268 L120.087084,18.43292 C119.770719,18.9064262 119.38126,19.2277339 118.918708,19.3968433 C118.455872,19.5659526 117.998682,19.6505073 117.547135,19.6505073 C117.140743,19.6505073 116.74564,19.5775085 116.361826,19.4306652 C115.977729,19.2843856 115.633707,19.0532694 115.328913,18.7373168 C115.024119,18.4219278 114.775487,17.9991545 114.583862,17.4689966 C114.391954,16.9394025 114.296001,16.2911499 114.296001,15.524239 C114.296001,14.7801578 114.402961,14.1544532 114.617728,13.6471251 L114.617728,13.6471251 Z M95.2977485,22.9988726 C95.8618994,23.5628523 96.4771314,23.945885 97.1434446,24.1488162 C97.8091934,24.3517475 98.4921574,24.4532131 99.1923366,24.4532131 C100.095147,24.4532131 101.009529,24.2671928 101.935481,23.8951522 C102.860869,23.5231116 103.696512,22.9596956 104.441564,22.2040586 C105.186616,21.4489853 105.796203,20.4960541 106.270327,19.3461105 C106.744451,18.1961669 106.981513,16.8548478 106.981513,15.3213078 C106.981513,13.9236189 106.789323,12.6891206 106.405791,11.6178129 C106.021694,10.5470688 105.496772,9.65078918 104.831023,8.92897407 C104.16471,8.20772266 103.385792,7.66065389 102.49427,7.2886133 C101.602184,6.91657272 100.65958,6.73055242 99.6664604,6.73055242 C98.8082399,6.73055242 97.9333687,6.90558061 97.0418467,7.25479143 C96.1497602,7.60456595 95.3877756,8.07243517 94.7558928,8.6583991 L94.7558928,7.13641488 L89.4727994,7.13641488 L89.4727994,30 L95.2977485,30 L95.2977485,22.9988726 L95.2977485,22.9988726 Z M95.2300165,12.7508455 C95.6135488,12.3001691 96.0428002,11.9844983 96.5169239,11.8038331 C96.9910477,11.6237317 97.4536006,11.5332582 97.9054292,11.5332582 C98.311821,11.5332582 98.7012799,11.6009019 99.0738057,11.7361894 C99.4463315,11.8714769 99.7734204,12.0913191 100.055919,12.3957159 C100.337854,12.7001127 100.569271,13.1006201 100.750172,13.5963923 C100.930508,14.0927283 101.0211,14.690248 101.0211,15.3889515 C101.0211,16.2006764 100.913575,16.8771139 100.699373,17.4182638 C100.484606,17.9594138 100.219323,18.3990981 99.9035223,18.7373168 C99.5871575,19.0755355 99.237209,19.3122886 98.8536768,19.4475761 C98.4695801,19.5828636 98.1086251,19.6505073 97.7699653,19.6505073 C97.3858686,19.6505073 96.9512552,19.5828636 96.4661249,19.4475761 C95.9804303,19.3122886 95.5686764,19.0870913 95.2300165,18.7711387 L95.2300165,12.7508455 L95.2300165,12.7508455 Z M79.7196784,24.0473506 L85.5446275,24.0473506 L85.5446275,0.507328072 L79.7196784,0.507328072 L79.7196784,24.0473506 Z M69.9662751,24.0473506 L75.7912243,24.0473506 L75.7912243,0.507328072 L69.9662751,0.507328072 L69.9662751,24.0473506 Z M49.1900587,19.4475761 C49.5848796,20.5527057 50.1267354,21.4768884 50.8156259,22.2209696 C51.503952,22.9650507 52.3057292,23.5231116 53.2201107,23.8951522 C54.1344923,24.2671928 55.1219679,24.4532131 56.1833843,24.4532131 C56.9284359,24.4532131 57.7296487,24.2841037 58.5878691,23.945885 C59.4455252,23.6076663 60.1679995,23.1457159 60.7552921,22.5591883 L60.7552921,24.0473506 L66.0383855,24.0473506 L66.0383855,7.13641488 L60.823024,7.13641488 L60.823024,8.75986471 C60.1679995,8.01578354 59.4568138,7.49154453 58.6894671,7.18714769 C57.9215559,6.88275085 57.1316318,6.73055242 56.3188482,6.73055242 C55.4606278,6.73055242 54.5747501,6.91657272 53.6603685,7.2886133 C52.745987,7.66065389 51.9162704,8.21871477 51.1712188,8.96279594 C50.4261671,9.70687711 49.8106529,10.6316234 49.3255227,11.7361894 C48.839828,12.8413191 48.597404,14.1265502 48.597404,15.5918828 C48.597404,17.057779 48.7946734,18.3430101 49.1900587,19.4475761 L49.1900587,19.4475761 Z M54.8626109,13.6471251 C55.0658068,13.1397971 55.3198017,12.7285795 55.6245956,12.4126268 C55.9293894,12.0972379 56.2564784,11.8714769 56.6067091,11.7361894 C56.9563754,11.6009019 57.2893909,11.5332582 57.6057556,11.5332582 C57.9892879,11.5332582 58.4464786,11.5955468 58.9773279,11.7192785 C59.5076128,11.8435738 59.9425085,12.0859639 60.2811683,12.4464487 L60.2811683,18.43292 C59.9648036,18.9064262 59.5753448,19.2277339 59.1127919,19.3968433 C58.6496745,19.5659526 58.1924838,19.6505073 57.7412195,19.6505073 C57.3348277,19.6505073 56.9453689,19.5775085 56.5728431,19.4306652 C56.2003173,19.2843856 55.8616575,19.0532694 55.5568636,18.7373168 C55.2520698,18.4219278 55.0090813,17.9991545 54.828745,17.4689966 C54.6478442,16.9394025 54.5578171,16.2911499 54.5578171,15.524239 C54.5578171,14.7801578 54.659415,14.1544532 54.8626109,13.6471251 L54.8626109,13.6471251 Z M20.5563697,24.0473506 L26.3813189,24.0473506 L26.3813189,12.9537768 C26.6296694,12.5256483 26.9513963,12.2043405 27.3464994,11.9898534 C27.7413203,11.7759301 28.1197727,11.6685457 28.4810099,11.6685457 C29.1128927,11.6685457 29.5985873,11.837655 29.9372471,12.1758737 C30.275907,12.5140924 30.4452369,13.2243517 30.4452369,14.3066516 L30.4452369,24.0473506 L36.270186,24.0473506 L36.270186,12.9537768 C36.5185366,12.5256483 36.8402634,12.2043405 37.2353666,11.9898534 C37.6301875,11.7759301 38.0086399,11.6685457 38.369877,11.6685457 C39.0017598,11.6685457 39.4874545,11.837655 39.8261143,12.1758737 C40.1647741,12.5140924 40.3341041,13.2243517 40.3341041,14.3066516 L40.3341041,24.0473506 L46.1590532,24.0473506 L46.1590532,13.3596392 C46.1590532,11.2404171 45.7072245,9.6054115 44.8044139,8.45546787 C43.901321,7.30552424 42.5238221,6.73055242 40.6727639,6.73055242 C39.5213205,6.73055242 38.5166296,7.0011274 37.6586914,7.54227734 C36.8004709,8.08342728 36.1121448,8.71505073 35.5928664,9.43630214 C34.6446188,7.63275085 33.0413467,6.73055242 30.7838967,6.73055242 C29.6324533,6.73055242 28.6503398,6.97886133 27.8375562,7.4746336 C27.0247726,7.97096956 26.3587416,8.54594138 25.8394631,9.19954904 L25.7039992,9.19954904 L25.5008033,7.13641488 L20.5563697,7.13641488 L20.5563697,24.0473506 L20.5563697,24.0473506 Z M0,21.7136415 C0.586728163,22.2325254 1.29791382,22.6944758 2.13355696,23.1003382 C2.85574905,23.4385569 3.75319761,23.7488726 4.82590264,24.0304397 C5.89804323,24.3120068 7.16801761,24.4532131 8.63582578,24.4532131 C10.2159561,24.4532131 11.5990993,24.255637 12.7844087,23.8613303 C13.9697182,23.4670237 14.9518317,22.9312289 15.7307493,22.2547914 C16.5096669,21.578354 17.0907508,20.7894589 17.4748475,19.8872604 C17.8583797,18.9856257 18.0505692,18.0270575 18.0505692,17.0124014 C18.0505692,15.1183766 17.5140755,13.636133 16.441935,12.5648253 C15.3692299,11.4940812 13.9073483,10.6877114 12.0562901,10.1465614 C11.0403106,9.85372041 10.176728,9.6054115 9.46554237,9.40248027 C8.75435672,9.19954904 8.178635,9.00253664 7.73837721,8.81059752 C7.29811943,8.6192221 6.9817547,8.41629087 6.79012968,8.20180383 C6.59794022,7.9878805 6.50226882,7.7229425 6.50226882,7.40698985 C6.50226882,6.82102593 6.77319669,6.3416009 7.31505242,5.96956032 C7.85690816,5.59751973 8.60195979,5.41149944 9.55020733,5.41149944 C10.2046675,5.41149944 10.8650541,5.53579481 11.5313674,5.78354002 C12.1971162,6.03184893 12.8123482,6.3024239 13.3770635,6.59526494 C14.0315236,6.95631342 14.6639708,7.35090192 15.2735585,7.77903044 L17.8473733,2.57046223 C17.1023216,2.09695603 16.289538,1.66882751 15.4090225,1.28523112 C14.6639708,0.969842165 13.7888174,0.67643743 12.7844087,0.405862458 C11.7794357,0.135287486 10.7016508,3.55271368e-15 9.55020733,3.55271368e-15 C8.06010406,3.55271368e-15 6.7562637,0.208850056 5.63868624,0.625704622 C4.52110879,1.04312289 3.58979424,1.59554679 2.84474261,2.28297632 C2.09969097,2.97096956 1.54090225,3.76014656 1.16837643,4.65050733 C0.795850611,5.54143179 0.609587702,6.45997745 0.609587702,7.40698985 C0.609587702,9.18855693 1.07778492,10.6369786 2.01502601,11.7531003 C2.95170267,12.8692221 4.27812036,13.6868658 5.99427907,14.205186 C7.1457225,14.5434047 8.11090303,14.8198985 8.88982065,15.0338219 C9.66873827,15.2483089 10.295259,15.4565953 10.7693827,15.6595265 C11.2435065,15.8624577 11.5821663,16.0713078 11.7853622,16.2852311 C11.9885581,16.4997182 12.0901561,16.7756483 12.0901561,17.113867 C12.0901561,17.6778467 11.7625027,18.1400789 11.1080426,18.5005637 C10.453018,18.8616122 9.57250243,19.0417136 8.46649586,19.0417136 C7.74373933,19.0417136 7.04948667,18.9064262 6.38373788,18.6358512 C5.71742465,18.3652762 5.12476994,18.0608794 4.60577375,17.7226607 C3.99618605,17.339628 3.40889345,16.8999436 2.84474261,16.4036077 L0,21.7136415 L0,21.7136415 Z"/>
</svg>
