<svg xmlns="http://www.w3.org/2000/svg" width="120" height="24" viewBox="0 0 120 24">
  <path fill="#212121" d="M116,5.16234498 C115.878082,5.1354566 115.735845,5.1083991 115.573289,5.08117249 C115.42394,5.0542841 115.251223,5.03399098 115.055139,5.02029312 C114.858547,5.00693348 114.645191,5 114.415072,5 C113.683567,5 113.066867,5.10146561 112.565989,5.30439684 C112.064603,5.50732807 111.654656,5.78821871 111.336654,6.14656144 C111.018145,6.50524239 110.788025,6.92125141 110.645788,7.3945885 C110.503551,7.86826381 110.432432,8.37559188 110.432432,8.91657272 L110.432432,9.44419391 L109.091339,9.44419391 L109.091339,12.0011274 L110.432432,12.0011274 L110.432432,19.4284104 L113.927402,19.4284104 L113.927402,12.0011274 L115.634247,12.0011274 L115.634247,9.44419391 L113.927402,9.44419391 L113.927402,9.13979707 C113.927402,8.70704622 114.045763,8.39909808 114.282995,8.21645998 C114.519718,8.03382187 114.801144,7.94250282 115.126258,7.94250282 C115.261383,7.94250282 115.380253,7.9494363 115.48185,7.96279594 C115.583448,7.9764938 115.674887,7.99002255 115.756165,8.00338219 C115.837443,8.01708005 115.918722,8.03060879 116,8.04396843 L116,5.16234498 L116,5.16234498 Z M100.770637,13.1882751 C100.899327,12.8838782 101.055111,12.6371477 101.237987,12.4475761 C101.420863,12.2583427 101.620673,12.1228861 101.837415,12.0417136 C102.053988,11.9605411 102.257184,11.9199549 102.447003,11.9199549 C102.677291,11.9199549 102.951606,11.9605411 103.269946,12.0417136 C103.588117,12.1228861 103.849054,12.2583427 104.05225,12.4475761 L104.05225,16.059752 C103.862432,16.3438557 103.628756,16.5366404 103.351225,16.638106 C103.073523,16.7395716 102.799209,16.7903044 102.528281,16.7903044 C102.284446,16.7903044 102.047384,16.7465051 101.817095,16.6583991 C101.586637,16.5706313 101.380224,16.4319617 101.197348,16.2423901 C101.014472,16.0531567 100.865292,15.7994927 100.750317,15.481398 C100.635173,15.1636415 100.5776,14.77469 100.5776,14.3145434 C100.5776,13.8680947 100.641777,13.4926719 100.770637,13.1882751 L100.770637,13.1882751 Z M97.3671052,16.6685457 C97.6109403,17.3316234 97.939271,17.886133 98.3526054,18.3325817 C98.7657704,18.7790304 99.2498846,19.113867 99.8054561,19.3370913 C100.360858,19.5603157 100.95673,19.6719278 101.59358,19.6719278 C102.040611,19.6719278 102.521339,19.5669109 103.036271,19.3573844 C103.551034,19.1478579 103.984349,18.8671364 104.336725,18.5152198 L104.336725,19.4284104 L107.506581,19.4284104 L107.506581,5.30439684 L104.011611,5.30439684 L104.011611,9.91093574 C103.699875,9.59994363 103.361384,9.37671928 102.995632,9.24126268 C102.629879,9.10614431 102.162528,9.03833145 101.59358,9.03833145 C101.078648,9.03833145 100.550338,9.14994363 100.008652,9.37316798 C99.4667962,9.59639233 98.9723529,9.93122886 98.5253219,10.3776776 C98.0782909,10.8241263 97.7125383,11.3789741 97.428064,12.0417136 C97.1435898,12.7047914 97.0013526,13.4759301 97.0013526,14.3551297 C97.0013526,15.2346674 97.1232702,16.0058061 97.3671052,16.6685457 L97.3671052,16.6685457 Z M89.1380099,12.6505073 C89.3681293,12.3801015 89.6256801,12.190699 89.9101544,12.0822999 C90.1946286,11.974239 90.4721603,11.9199549 90.7432575,11.9199549 C90.9870926,11.9199549 91.2207679,11.9605411 91.4442834,12.0417136 C91.6677989,12.1228861 91.8640523,12.2547914 92.0335515,12.4374295 C92.2027121,12.6200676 92.3415626,12.860372 92.4501031,13.1578354 C92.5583049,13.455637 92.6126598,13.8141488 92.6126598,14.2333709 C92.6126598,14.7204059 92.5481451,15.1262683 92.4196237,15.4509583 C92.2907637,15.7756483 92.1315935,16.0394589 91.9421134,16.2423901 C91.7522945,16.4453213 91.5423254,16.5873732 91.3122061,16.6685457 C91.081748,16.7497182 90.8651751,16.7903044 90.6619792,16.7903044 C90.4315212,16.7903044 90.1707531,16.7497182 89.879675,16.6685457 C89.5882582,16.5873732 89.3412058,16.4522548 89.1380099,16.2626832 L89.1380099,12.6505073 L89.1380099,12.6505073 Z M89.1786491,18.7993236 C89.5171396,19.1377114 89.8862788,19.367531 90.2860668,19.4892897 C90.685516,19.6110485 91.0952944,19.6719278 91.515402,19.6719278 C92.0570884,19.6719278 92.6057173,19.5603157 93.1612888,19.3370913 C93.7165216,19.113867 94.2179074,18.7758174 94.6649384,18.3224352 C95.1119694,17.8693912 95.477722,17.2976325 95.7621963,16.6076663 C96.0466706,15.9177001 96.1889077,15.1129087 96.1889077,14.1927847 C96.1889077,13.3541714 96.073594,12.6134724 95.8434746,11.9706877 C95.6130166,11.3282413 95.298063,10.7904735 94.8986137,10.3573844 C94.4988258,9.9246336 94.0314752,9.59639233 93.496562,9.37316798 C92.9613101,9.14994363 92.3957482,9.03833145 91.7998762,9.03833145 C91.2849439,9.03833145 90.7600212,9.14334837 90.225108,9.35287486 C89.6898561,9.56273957 89.2326654,9.8434611 88.8535357,10.1950395 L88.8535357,9.28184893 L85.6836796,9.28184893 L85.6836796,23 L89.1786491,23 L89.1786491,18.7993236 L89.1786491,18.7993236 Z M79.831807,19.4284104 L83.3267765,19.4284104 L83.3267765,5.30439684 L79.831807,5.30439684 L79.831807,19.4284104 Z M73.9797651,19.4284104 L77.4747346,19.4284104 L77.4747346,5.30439684 L73.9797651,5.30439684 L73.9797651,19.4284104 Z M61.5140352,16.6685457 C61.7509278,17.3316234 62.0760412,17.886133 62.4893756,18.3325817 C62.9023712,18.7790304 63.3834375,19.113867 63.9320664,19.3370913 C64.4806954,19.5603157 65.0731808,19.6719278 65.7100306,19.6719278 C66.1570616,19.6719278 66.6377892,19.5704622 67.1527215,19.367531 C67.6673151,19.1645998 68.1007997,18.8874295 68.4531752,18.535513 L68.4531752,19.4284104 L71.6230313,19.4284104 L71.6230313,9.28184893 L68.4938144,9.28184893 L68.4938144,10.2559188 C68.1007997,9.80947012 67.6740883,9.49492672 67.2136802,9.31228861 C66.7529335,9.12965051 66.2789791,9.03833145 65.7913089,9.03833145 C65.2763767,9.03833145 64.7448501,9.14994363 64.1962211,9.37316798 C63.6475922,9.59639233 63.1497622,9.93122886 62.7027313,10.3776776 C62.2557003,10.8241263 61.8863917,11.3789741 61.5953136,12.0417136 C61.3038968,12.7047914 61.1584424,13.4759301 61.1584424,14.3551297 C61.1584424,15.2346674 61.276804,16.0058061 61.5140352,16.6685457 L61.5140352,16.6685457 Z M64.9175666,13.1882751 C65.0394841,12.8838782 65.191881,12.6371477 65.3747573,12.4475761 C65.5576337,12.2583427 65.753887,12.1228861 65.9640255,12.0417136 C66.1738252,11.9605411 66.3736345,11.9199549 66.5634534,11.9199549 C66.7935727,11.9199549 67.0678872,11.9573281 67.3863968,12.0315671 C67.7045677,12.1061443 67.9655051,12.2515784 68.168701,12.4678692 L68.168701,16.059752 C67.9788821,16.3438557 67.7452069,16.5366404 67.4676751,16.638106 C67.1898047,16.7395716 66.9154903,16.7903044 66.6447317,16.7903044 C66.4008966,16.7903044 66.1672214,16.7465051 65.9437059,16.6583991 C65.7201904,16.5706313 65.5169945,16.4319617 65.3341182,16.2423901 C65.1512419,16.0531567 65.0054488,15.7994927 64.897247,15.481398 C64.7887065,15.1636415 64.7346903,14.77469 64.7346903,14.3145434 C64.7346903,13.8680947 64.795649,13.4926719 64.9175666,13.1882751 L64.9175666,13.1882751 Z M44.3338218,19.4284104 L47.8287913,19.4284104 L47.8287913,12.7722661 C47.9778017,12.515389 48.1708378,12.3226043 48.4078996,12.1939121 C48.6447922,12.0655581 48.8718636,12.0011274 49.0886059,12.0011274 C49.4677356,12.0011274 49.7591524,12.102593 49.9623483,12.3055242 C50.1655442,12.5084555 50.2671421,12.934611 50.2671421,13.583991 L50.2671421,19.4284104 L53.7621116,19.4284104 L53.7621116,12.7722661 C53.911122,12.515389 54.1041581,12.3226043 54.3412199,12.1939121 C54.5781125,12.0655581 54.8051839,12.0011274 55.0219262,12.0011274 C55.4010559,12.0011274 55.6924727,12.102593 55.8956686,12.3055242 C56.0988645,12.5084555 56.2004624,12.934611 56.2004624,13.583991 L56.2004624,19.4284104 L59.6954319,19.4284104 L59.6954319,13.0157835 C59.6954319,11.7442503 59.4243347,10.7632469 58.8826483,10.0732807 C58.3407926,9.38331454 57.5142933,9.03833145 56.4036583,9.03833145 C55.7127923,9.03833145 55.1099778,9.20067644 54.5952148,9.5253664 C54.0802825,9.85005637 53.6672869,10.2290304 53.3557198,10.6617813 C52.7867713,9.57965051 51.824808,9.03833145 50.470338,9.03833145 C49.779472,9.03833145 49.1902039,9.1873168 48.7025337,9.48478016 C48.2148635,9.78258174 47.8152449,10.1275648 47.5036779,10.5197294 L47.4223995,10.5197294 L47.300482,9.28184893 L44.3338218,9.28184893 L44.3338218,19.4284104 L44.3338218,19.4284104 Z M32,18.0281849 C32.3520369,18.3395152 32.7787483,18.6166855 33.2801342,18.8602029 C33.7134494,19.0631342 34.2519186,19.2493236 34.8955416,19.4182638 C35.5388259,19.5872041 36.3008106,19.6719278 37.1814955,19.6719278 C38.1295737,19.6719278 38.9594596,19.5533822 39.6706452,19.3167982 C40.3818309,19.0802142 40.971099,18.7587373 41.4384496,18.3528749 C41.9058002,17.9470124 42.2544505,17.4736753 42.4849085,16.9323563 C42.7150278,16.3913754 42.8303415,15.8162345 42.8303415,15.2074408 C42.8303415,14.0710259 42.5084453,13.1816798 41.865161,12.5388952 C41.221538,11.8964487 40.344409,11.4126268 39.2337741,11.0879369 C38.6241864,10.9122322 38.1060368,10.7632469 37.6793254,10.6414882 C37.252614,10.5197294 36.907181,10.401522 36.6430263,10.2863585 C36.3788717,10.1715333 36.1890528,10.0497745 36.0740778,9.9210823 C35.9587641,9.7927283 35.9013613,9.6337655 35.9013613,9.44419391 C35.9013613,9.09261556 36.063918,8.80496054 36.3890315,8.58173619 C36.7141449,8.35851184 37.1611759,8.24689966 37.7301244,8.24689966 C38.1228005,8.24689966 38.5190325,8.32147689 38.9188204,8.47012401 C39.3182697,8.61910936 39.6874089,8.78145434 40.0262381,8.95715896 C40.4189142,9.17378805 40.7983825,9.41054115 41.1641351,9.66741826 L42.708424,6.54227734 C42.261393,6.25817362 41.7737228,6.00129651 41.2454135,5.77113867 C40.7983825,5.5819053 40.2732904,5.40586246 39.6706452,5.24351747 C39.0676614,5.08117249 38.4209905,5 37.7301244,5 C36.8360624,5 36.0537582,5.12531003 35.3832117,5.37542277 C34.7126653,5.62587373 34.1538765,5.95732807 33.7068456,6.36978579 C33.2598146,6.78258174 32.9245413,7.25608794 32.7010259,7.7903044 C32.4775104,8.32485908 32.3657526,8.87598647 32.3657526,9.44419391 C32.3657526,10.5131342 32.646671,11.3821871 33.2090156,12.0518602 C33.7710216,12.7215333 34.5668722,13.2121195 35.5965674,13.5231116 C36.2874335,13.7260428 36.8665418,13.8919391 37.3338924,14.0202931 C37.801243,14.1489853 38.1771554,14.2739572 38.4616296,14.3957159 C38.7461039,14.5174746 38.9492998,14.6427847 39.0712173,14.7711387 C39.1931349,14.8998309 39.2540937,15.065389 39.2540937,15.2683202 C39.2540937,15.606708 39.0575016,15.8840474 38.6648255,16.1003382 C38.2718108,16.3169673 37.7435015,16.4250282 37.0798975,16.4250282 C36.6462436,16.4250282 36.229692,16.3438557 35.8302427,16.1815107 C35.4304548,16.0191657 35.074862,15.8365276 34.7634642,15.6335964 C34.3977116,15.4037768 34.0453361,15.1399662 33.7068456,14.8421646 L32,18.0281849 L32,18.0281849 Z"/>
  <polygon fill="#FF46FB" points="16 16 24 16 24 24 16 24"/>
  <polygon fill="#CA41FC" points="8 16 16 16 16 24 8 24"/>
  <polygon fill="#8B48FE" points="0 16 8 16 8 24 0 24"/>
  <polygon fill="#81E650" points="16 8 24 8 24 16 16 16"/>
  <polygon fill="#00D267" points="8 8 16 8 16 16 8 16"/>
  <polygon fill="#00C0FF" points="0 8 8 8 8 16 0 16"/>
  <polygon fill="#FFD200" points="16 0 24 0 24 8 16 8"/>
  <polygon fill="#FF8E00" points="8 0 16 0 16 8 8 8"/>
  <polygon fill="#FF5400" points="0 0 8 0 8 8 0 8"/>
</svg>
