<svg xmlns="http://www.w3.org/2000/svg" xmlns:xlink="http://www.w3.org/1999/xlink" width="24" height="24" viewBox="0 0 24 24" fill="#fff">
  <path d="M11.355763,11.6544154 L8.14285714,3 L8.88064959,3.37144149 C9.42498837,3.64548876 9.84393276,4.11140048 10.0534237,4.67569377 L12,9.91907196 L13.9465763,4.67569377 C14.1560672,4.11140048 14.5750116,3.64548876 15.1193504,3.37144149 L15.8571429,3 L12.644237,11.6544154 L14.162376,15.7437368 C14.5691123,14.9972491 15.2466804,14.3898078 16.1208753,14.0778576 C18.0059605,13.4051785 20.0915013,14.3612388 20.7790611,16.2132782 C21.4666209,18.0653175 20.4958347,20.1120063 18.6107495,20.7846854 C16.7256643,21.4573645 14.6401235,20.5013042 13.9525637,18.6492648 L12,13.3897588 L10.0474363,18.6492648 C9.35987648,20.5013042 7.27433566,21.4573645 5.38925047,20.7846854 C3.50416527,20.1120063 2.53337912,18.0653175 3.22093891,16.2132782 C3.9084987,14.3612388 5.99403952,13.4051785 7.87912472,14.0778576 C8.75331964,14.3898078 9.43088769,14.9972491 9.83762405,15.7437368 L11.355763,11.6544154 Z M5.80422951,19.6668808 C7.06095297,20.1153335 8.45131352,19.47796 8.90968671,18.2432671 C9.36805991,17.0085742 8.72086914,15.644115 7.46414568,15.1956622 C6.20742221,14.7472095 4.81706166,15.384583 4.35868847,16.619276 C3.90031528,17.8539689 4.54750605,19.218428 5.80422951,19.6668808 Z M18.1957705,19.6668808 C19.452494,19.218428 20.0996847,17.8539689 19.6413115,16.619276 C19.1829383,15.384583 17.7925778,14.7472095 16.5358543,15.1956622 C15.2791309,15.644115 14.6319401,17.0085742 15.0903133,18.2432671 C15.5486865,19.47796 16.939047,20.1153335 18.1957705,19.6668808 Z"/>
</svg>
