<svg xmlns="http://www.w3.org/2000/svg" xmlns:xlink="http://www.w3.org/1999/xlink" width="60" height="60" viewBox="0 0 60 60" fill="#000">
  <path d="M42,25 L26,25 L26,30 L42,30 L42,25 Z M43,25 L43,48 L43,49 L17,49 L17,48 L17,25 L17,24 L43,24 L43,25 Z M42,48 L42,43 L26,43 L26,48 L42,48 Z M42,42 L42,37 L26,37 L26,42 L42,42 Z M42,36 L42,31 L26,31 L26,36 L42,36 Z M25,25 L18,25 L18,30 L25,30 L25,25 Z M25,48 L25,43 L18,43 L18,48 L25,48 Z M25,42 L25,37 L18,37 L18,42 L25,42 Z M25,36 L25,31 L18,31 L18,36 L25,36 Z M52.5857864,12 L42,1.41421356 L42,12 L52.5857864,12 Z M53,13 L41,13 L41,12 L41,1 L8,1 C7.44771525,1 7,1.44771525 7,2 L7,58 C7,58.5522847 7.44771525,59 8,59 L52,59 C52.5522847,59 53,58.5522847 53,58 L53,13 Z M8,0 L42,0 L54,12 L54,58 C54,59.1045695 53.1045695,60 52,60 L8,60 C6.8954305,60 6,59.1045695 6,58 L6,2 C6,0.8954305 6.8954305,2.02906125e-16 8,0 Z"/>
</svg>
