<svg xmlns="http://www.w3.org/2000/svg" xmlns:xlink="http://www.w3.org/1999/xlink" width="60" height="60" viewBox="0 0 60 60" fill="#000">
  <path d="M30,25 C23.372583,25 18,30.372583 18,37 C18,43.627417 23.372583,49 30,49 C36.627417,49 42,43.627417 42,37 L30,37 L30,25 Z M52.5857864,12 L42,1.41421356 L42,12 L52.5857864,12 Z M53,13 L41,13 L41,12 L41,1 L8,1 C7.44771525,1 7,1.44771525 7,2 L7,58 C7,58.5522847 7.44771525,59 8,59 L52,59 C52.5522847,59 53,58.5522847 53,58 L53,13 Z M8,0 L42,0 L54,12 L54,58 C54,59.1045695 53.1045695,60 52,60 L8,60 C6.8954305,60 6,59.1045695 6,58 L6,2 C6,0.8954305 6.8954305,2.02906125e-16 8,0 Z M30,50 C22.8202983,50 17,44.1797017 17,37 C17,29.8202983 22.8202983,24 30,24 C37.1797017,24 43,29.8202983 43,37 C43,44.1797017 37.1797017,50 30,50 Z"/>
</svg>
