<svg xmlns="http://www.w3.org/2000/svg" xmlns:xlink="http://www.w3.org/1999/xlink" width="60" height="60" viewBox="0 0 60 60" fill="#000">
  <path d="M53,48.4028808 L53,13 L41,13 L41,12 L41,1 L8,1 C7.44771525,1 7,1.44771525 7,2 L7,48.2314967 L19.682448,38.9752848 L27.3206913,44.7075 L37.8073737,33.972411 L53,48.4028808 Z M53,49.7820777 L37.7995357,35.3441631 L27.4422206,45.9591567 L19.7281335,40.1799531 L7,49.4695083 L7,58 C7,58.5522847 7.44771525,59 8,59 L52,59 C52.5522847,59 53,58.5522847 53,58 L53,49.7820777 Z M52.5857864,12 L42,1.41421356 L42,12 L52.5857864,12 Z M8,0 L42,0 L54,12 L54,58 C54,59.1045695 53.1045695,60 52,60 L8,60 C6.8954305,60 6,59.1045695 6,58 L6,2 C6,0.8954305 6.8954305,2.02906125e-16 8,0 Z M20.5,33 C18.0147186,33 16,30.9852814 16,28.5 C16,26.0147186 18.0147186,24 20.5,24 C22.9852814,24 25,26.0147186 25,28.5 C25,30.9852814 22.9852814,33 20.5,33 Z"/>
</svg>
