<svg xmlns="http://www.w3.org/2000/svg" xmlns:xlink="http://www.w3.org/1999/xlink" width="60" height="60" viewBox="0 0 60 60" fill="#000">
  <path d="M30,59 L52,59 C52.5522847,59 53,58.5522847 53,58 L53,12.4142136 L41.5857864,1 L8,1 C7.44771525,1 7,1.44771525 7,2 L7,58 C7,58.5522847 7.44771525,59 8,59 L29,59 L29,7 L30,7 L30,59 Z M8,0 L42,0 L54,12 L54,58 C54,59.1045695 53.1045695,60 52,60 L8,60 C6.8954305,60 6,59.1045695 6,58 L6,2 C6,0.8954305 6.8954305,2.02906125e-16 8,0 Z M22,6 L37,6 L37,7 L22,7 L22,6 Z M22,0 L23,0 L23,7 L22,7 L22,0 Z M36,0 L37,0 L37,7 L36,7 L36,0 Z"/>
</svg>
