<svg xmlns="http://www.w3.org/2000/svg" xmlns:xlink="http://www.w3.org/1999/xlink" width="60" height="60" viewBox="0 0 60 60" fill="#000">
  <path d="M52.5857864,12 L42,1.41421356 L42,12 L52.5857864,12 Z M53,13 L41,13 L41,12 L41,1 L8,1 C7.44771525,1 7,1.44771525 7,2 L7,58 C7,58.5522847 7.44771525,59 8,59 L52,59 C52.5522847,59 53,58.5522847 53,58 L53,13 Z M8,0 L42,0 L54,12 L54,58 C54,59.1045695 53.1045695,60 52,60 L8,60 C6.8954305,60 6,59.1045695 6,58 L6,2 C6,0.8954305 6.8954305,2.02906125e-16 8,0 Z M17,24 L43,24 L43,25 L17,25 L17,24 Z M17,30 L43,30 L43,31 L17,31 L17,30 Z M17,36 L43,36 L43,37 L17,37 L17,36 Z M17,42 L43,42 L43,43 L17,43 L17,42 Z M17,48 L43,48 L43,49 L17,49 L17,48 Z"/>
</svg>
