<svg width="168" height="141" viewBox="0 0 168 141" fill="none" xmlns="http://www.w3.org/2000/svg">
<path d="M1.39834 134.685C1.27102 134.93 1.36644 135.232 1.61147 135.36L5.60457 137.434C5.8496 137.562 6.15146 137.466 6.27879 137.221C6.40611 136.976 6.31069 136.674 6.06566 136.547L2.51624 134.703L4.3606 131.153C4.48792 130.908 4.3925 130.606 4.14747 130.479C3.90243 130.352 3.60057 130.447 3.47324 130.692L1.39834 134.685ZM165.501 0.538582C165.565 1.3632 165.614 2.18424 165.648 3.0017L166.647 2.96011C166.612 2.13088 166.563 1.29815 166.499 0.461886L165.501 0.538582ZM165.677 7.89134C165.628 9.53253 165.52 11.159 165.355 12.771L166.349 12.8733C166.518 11.2372 166.627 9.58654 166.677 7.92109L165.677 7.89134ZM164.676 17.6211C164.39 19.2318 164.047 20.8276 163.647 22.4086L164.616 22.6538C165.022 21.0497 165.371 19.4304 165.661 17.7958L164.676 17.6211ZM162.28 27.109C161.771 28.6555 161.208 30.1876 160.593 31.7054L161.52 32.0811C162.143 30.543 162.714 28.9898 163.23 27.4215L162.28 27.109ZM158.606 36.1847C157.9 37.6493 157.145 39.1003 156.343 40.5375L157.216 41.025C158.028 39.5707 158.792 38.102 159.507 36.6188L158.606 36.1847ZM153.829 44.7544C152.961 46.1227 152.05 47.4783 151.097 48.8211L151.913 49.3998C152.875 48.0433 153.796 46.6734 154.674 45.29L153.829 44.7544ZM148.163 52.7506C147.161 54.0279 146.122 55.2933 145.046 56.5468L145.805 57.1981C146.89 55.9337 147.939 54.657 148.95 53.3677L148.163 52.7506ZM141.764 60.2145C140.657 61.4025 139.517 62.5796 138.346 63.7456L139.052 64.4543C140.232 63.2797 141.38 62.0937 142.496 60.8962L141.764 60.2145ZM134.809 67.1464C133.619 68.2532 132.399 69.3497 131.153 70.436L131.81 71.1898C133.064 70.0967 134.291 68.9931 135.49 67.879L134.809 67.1464ZM127.388 73.6202C126.132 74.6511 124.852 75.6724 123.549 76.6844L124.162 77.4742C125.472 76.4569 126.759 75.4299 128.022 74.3931L127.388 73.6202ZM119.628 79.6493C118.314 80.6173 116.979 81.5763 115.624 82.5265L116.198 83.3453C117.56 82.3908 118.901 81.4272 120.221 80.4544L119.628 79.6493ZM111.562 85.308C110.209 86.2134 108.837 87.1105 107.448 87.9993L107.987 88.8416C109.382 87.9492 110.759 87.0484 112.118 86.1391L111.562 85.308ZM103.269 90.6173C101.878 91.4708 100.47 92.3163 99.0479 93.154L99.5554 94.0157C100.983 93.175 102.395 92.3264 103.792 91.4697L103.269 90.6173ZM94.7881 95.6146C93.3639 96.4216 91.9261 97.2209 90.4755 98.0128L90.9546 98.8905C92.4098 98.0962 93.8522 97.2943 95.281 96.4847L94.7881 95.6146ZM86.1378 100.338C84.6912 101.1 83.2331 101.855 81.7641 102.602L82.2176 103.494C83.6907 102.744 85.153 101.987 86.6038 101.223L86.1378 100.338ZM77.3483 104.812C75.8825 105.533 74.4068 106.248 72.922 106.955L73.3522 107.858C74.8407 107.149 76.3202 106.432 77.7898 105.709L77.3483 104.812ZM68.4584 109.049C66.9705 109.736 65.4744 110.417 63.9706 111.09L64.3794 112.003C65.8866 111.328 67.3863 110.646 68.8777 109.957L68.4584 109.049ZM59.4652 113.079C57.9603 113.734 56.4486 114.382 54.9307 115.024L55.32 115.945C56.8411 115.302 58.356 114.653 59.8641 113.996L59.4652 113.079ZM50.3844 116.919C48.8667 117.543 47.3435 118.16 45.8155 118.771L46.1868 119.7C47.7177 119.087 49.2438 118.469 50.7646 117.844L50.3844 116.919ZM41.2289 120.581C39.6995 121.177 38.1658 121.766 36.6287 122.349L36.9834 123.284C38.5232 122.7 40.0595 122.11 41.5918 121.513L41.2289 120.581ZM32.0107 124.079C30.4699 124.648 28.9262 125.212 27.3803 125.769L27.7195 126.71C29.2679 126.152 30.8141 125.587 32.3575 125.017L32.0107 124.079ZM22.7352 127.423C21.1846 127.969 19.6323 128.508 18.079 129.041L18.4037 129.987C19.9593 129.453 21.5139 128.913 23.067 128.367L22.7352 127.423ZM13.408 130.626C11.8487 131.148 10.289 131.665 8.72962 132.175L9.04071 133.126C10.6023 132.614 12.1642 132.097 13.7258 131.574L13.408 130.626ZM4.03632 133.694C3.2544 133.944 2.47271 134.192 1.69131 134.439L1.99273 135.393C2.77517 135.145 3.55792 134.896 4.3409 134.646L4.03632 133.694ZM0.954665 134.455C0.700013 134.945 0.890858 135.549 1.38093 135.803L9.36711 139.953C9.85719 140.208 10.4609 140.017 10.7156 139.527C10.9702 139.037 10.7794 138.433 10.2893 138.178L3.19046 134.49L6.87918 127.391C7.13383 126.901 6.94298 126.297 6.45291 126.042C5.96284 125.788 5.35912 125.979 5.10447 126.469L0.954665 134.455ZM165.003 0.57693C165.066 1.39573 165.114 2.21091 165.148 3.02249L167.146 2.93931C167.112 2.10421 167.062 1.26562 166.997 0.423537L165.003 0.57693ZM165.178 7.87646C165.129 9.50553 165.022 11.1199 164.857 12.7198L166.847 12.9244C167.016 11.2763 167.127 9.61354 167.177 7.93596L165.178 7.87646ZM164.184 17.5338C163.9 19.1325 163.559 20.7165 163.162 22.2861L165.101 22.7764C165.51 21.1607 165.861 19.5297 166.153 17.8831L164.184 17.5338ZM161.805 26.9527C161.3 28.4884 160.741 30.0099 160.13 31.5175L161.983 32.269C162.611 30.7207 163.185 29.1569 163.705 27.5777L161.805 26.9527ZM158.156 35.9676C157.454 37.423 156.704 38.865 155.906 40.2938L157.653 41.2687C158.469 39.806 159.238 38.3284 159.958 36.8359L158.156 35.9676ZM153.407 44.4866C152.544 45.8474 151.637 47.1958 150.689 48.5317L152.321 49.6891C153.288 48.3258 154.214 46.9488 155.096 45.5579L153.407 44.4866ZM147.77 52.442C146.773 53.7133 145.738 54.973 144.667 56.2211L146.184 57.5237C147.274 56.254 148.328 54.9715 149.343 53.6762L147.77 52.442ZM141.398 59.8736C140.296 61.057 139.16 62.2295 137.994 63.3913L139.405 64.8086C140.589 63.6297 141.741 62.4392 142.862 61.237L141.398 59.8736ZM134.469 66.7802C133.282 67.8832 132.067 68.9761 130.824 70.0591L132.139 71.5667C133.397 70.4703 134.628 69.3631 135.831 68.2452L134.469 66.7802ZM127.07 73.2338C125.818 74.2617 124.542 75.2802 123.242 76.2894L124.469 77.8691C125.782 76.8491 127.073 75.8193 128.339 74.7796L127.07 73.2338ZM119.331 79.2468C118.021 80.2124 116.689 81.1691 115.337 82.1171L116.485 83.7547C117.85 82.798 119.194 81.8321 120.518 80.8569L119.331 79.2468ZM111.284 84.8924C109.934 85.7959 108.565 86.6911 107.179 87.5781L108.257 89.2627C109.654 88.3686 111.034 87.4659 112.396 86.5547L111.284 84.8924ZM103.008 90.191C101.619 91.0429 100.214 91.887 98.7942 92.7232L99.8092 94.4465C101.239 93.6044 102.654 92.7542 104.053 91.8959L103.008 90.191ZM94.5416 95.1796C93.1198 95.9852 91.6843 96.7833 90.2359 97.5739L91.1942 99.3294C92.6516 98.5338 94.0963 97.7306 95.5275 96.9197L94.5416 95.1796ZM85.9048 99.896C84.4604 100.657 83.0043 101.41 81.5373 102.157L82.4443 103.939C83.9195 103.189 85.3839 102.431 86.8368 101.666L85.9048 99.896ZM77.1275 104.363C75.6637 105.084 74.1899 105.797 72.7069 106.504L73.5673 108.309C75.0577 107.599 76.539 106.882 78.0106 106.158L77.1275 104.363ZM68.2487 108.595C66.7626 109.281 65.2682 109.961 63.7661 110.634L64.5839 112.459C66.0928 111.783 67.5941 111.1 69.0873 110.411L68.2487 108.595ZM59.2657 112.621C57.7625 113.275 56.2524 113.922 54.736 114.563L55.5147 116.406C57.0373 115.762 58.5538 115.112 60.0636 114.455L59.2657 112.621ZM50.1943 116.456C48.6781 117.08 47.1564 117.696 45.6298 118.307L46.3725 120.164C47.9048 119.551 49.4324 118.932 50.9546 118.306L50.1943 116.456ZM41.0475 120.115C39.5194 120.71 37.9871 121.299 36.4513 121.882L37.1607 123.752C38.7019 123.167 40.2396 122.576 41.7732 121.979L41.0475 120.115ZM31.8373 123.61C30.2978 124.179 28.7554 124.742 27.2107 125.299L27.889 127.18C29.4387 126.622 30.9862 126.057 32.5309 125.486L31.8373 123.61ZM22.5693 126.952C21.0199 127.497 19.4688 128.036 17.9167 128.568L18.5661 130.46C20.1228 129.926 21.6786 129.385 23.2329 128.838L22.5693 126.952ZM13.2491 130.152C11.6909 130.674 10.1324 131.19 8.57408 131.7L9.19625 133.601C10.759 133.089 12.322 132.572 13.8846 132.048L13.2491 130.152ZM3.88402 133.217C3.10264 133.467 2.32147 133.716 1.5406 133.962L2.14343 135.869C2.9264 135.622 3.70968 135.373 4.4932 135.122L3.88402 133.217Z" fill="black"/>
</svg>
