<svg width="16" height="16" viewBox="0 0 16 16" fill="none" xmlns="http://www.w3.org/2000/svg">
<path d="M1.76573 10.9332C1.72348 10.8911 1.67071 10.8611 1.61291 10.8463C1.55512 10.8315 1.49441 10.8326 1.43714 10.8492C1.37986 10.8659 1.32812 10.8977 1.28729 10.9412C1.24647 10.9847 1.21808 11.0383 1.20506 11.0966L0.262396 15.3399C0.250188 15.3946 0.251974 15.4515 0.267589 15.5053C0.283203 15.5592 0.312142 15.6082 0.351729 15.6479C0.391658 15.6871 0.440678 15.7159 0.494419 15.7316C0.548159 15.7473 0.60495 15.7495 0.659729 15.7379L4.9024 14.7952C4.96075 14.7823 5.01454 14.7539 5.05816 14.713C5.10177 14.6722 5.13359 14.6203 5.15029 14.5629C5.16699 14.5055 5.16795 14.4447 5.15307 14.3868C5.1382 14.3289 5.10803 14.2761 5.06573 14.2339L1.76573 10.9332Z" fill="#41536B"/>
<path d="M11.9015 4.80525L4.5948 12.1119C4.56378 12.1434 4.54639 12.1857 4.54639 12.2299C4.54639 12.2741 4.56378 12.3165 4.5948 12.3479L5.77347 13.5266C5.83657 13.588 5.92112 13.6223 6.00914 13.6223C6.09716 13.6223 6.18171 13.588 6.2448 13.5266L13.3161 6.45525C13.3786 6.39274 13.4137 6.30797 13.4137 6.21959C13.4137 6.1312 13.3786 6.04643 13.3161 5.98392L12.1375 4.80525C12.106 4.77423 12.0636 4.75684 12.0195 4.75684C11.9753 4.75684 11.9329 4.77423 11.9015 4.80525Z" fill="#41536B"/>
<path d="M11.1944 3.86275L10.0158 2.68475C9.95324 2.62226 9.86847 2.58716 9.78008 2.58716C9.6917 2.58716 9.60693 2.62226 9.54442 2.68475L2.47308 9.75542C2.41059 9.81793 2.37549 9.9027 2.37549 9.99109C2.37549 10.0795 2.41059 10.1642 2.47308 10.2268L3.65175 11.4054C3.68319 11.4364 3.72558 11.4538 3.76975 11.4538C3.81392 11.4538 3.85631 11.4364 3.88775 11.4054L11.1944 4.09875C11.2254 4.06731 11.2428 4.02492 11.2428 3.98075C11.2428 3.93659 11.2254 3.89419 11.1944 3.86275Z" fill="#41536B"/>
<path d="M14.9659 1.03469C14.4654 0.535176 13.7871 0.254639 13.0799 0.254639C12.3728 0.254639 11.6945 0.535176 11.1939 1.03469L10.7226 1.50602C10.6601 1.56853 10.625 1.6533 10.625 1.74169C10.625 1.83008 10.6601 1.91485 10.7226 1.97736L14.0226 5.27669C14.0862 5.33714 14.1705 5.37085 14.2583 5.37085C14.346 5.37085 14.4304 5.33714 14.4939 5.27669L14.9659 4.80536C15.4659 4.30528 15.7467 3.62713 15.7467 2.92002C15.7467 2.21292 15.4659 1.53476 14.9659 1.03469Z" fill="#41536B"/>
</svg>
