<svg id="Layer_1" data-name="Layer 1" xmlns="http://www.w3.org/2000/svg" viewBox="10 10 108 108"><defs><style>.cls-1{fill:#fff;}.cls-2{fill:#46b1e5;}</style></defs><title>CXQ_Video_G-bg</title><rect class="cls-1"/><path class="cls-2" d="M64.24,9a47.54,47.54,0,0,0-11.39,1.32l3.5,11a48.12,48.12,0,0,1,7.89-.88A35.17,35.17,0,0,1,99.31,55.44,34.24,34.24,0,0,1,78.71,87l3.5,11a46.17,46.17,0,0,0,28.06-42.51A45.85,45.85,0,0,0,64.24,9Z" transform="translate(0 0.17)"/><path class="cls-2" d="M64.24,90.5A35.17,35.17,0,0,1,29.18,55.44a34.77,34.77,0,0,1,21-32l-3.95-11a46.53,46.53,0,0,0,18,89.42,35.1,35.1,0,0,0,11.84-1.76l-3.51-11A27.74,27.74,0,0,1,64.24,90.5Z" transform="translate(0 0.17)"/><polygon class="cls-2" points="76.95 88.91 79.14 82.34 93.61 118.72 81.34 104.69 78.27 109.52 63.37 72.7 76.95 88.91"/><polygon class="cls-2" points="46.48 41.84 46.48 49.31 59.57 49.31 59.57 56.24 39.87 56.24 39.87 34.8 59.57 34.8 59.57 41.84 46.48 41.84"/><polygon class="cls-2" points="81.31 56.73 71.29 56.73 50.23 34.8 60.24 34.8 81.31 56.73"/><polygon class="cls-2" points="49.88 66.1 39.87 66.1 75.26 30.07 85.28 30.07 49.88 66.1"/><path class="cls-2" d="M90.06,61.13v9.61a.77.77,0,0,1-1.22.49l-4.29-2.94v1.53a2.26,2.26,0,0,1-2.26,2.25H68.53a2.25,2.25,0,0,1-2.25-2.25V62.06a2.26,2.26,0,0,1,2.25-2.26H82.29a2.26,2.26,0,0,1,2.26,2.26v1.53l4.29-2.94C89.33,60.31,90.06,60.6,90.06,61.13Z" transform="translate(0 0.17)"/></svg>