<svg id="Layer_1" data-name="Layer 1" xmlns="http://www.w3.org/2000/svg" viewBox="10 10 108 108"><defs><style>.cls-1{fill:#fff;}.cls-2{fill:#ecb431;}.cls-3{fill:#3669b1;}.cls-4{fill:#b1b2b5;}.cls-5{fill:#46b1e5;}.cls-6{fill:#231f20;}</style></defs><title>CXQ_Video_Colored</title><rect class="cls-1"/><path class="cls-2" d="M64.05,9.14a48.2,48.2,0,0,0-11.4,1.31l3.51,11a48.1,48.1,0,0,1,7.89-.87A35.17,35.17,0,0,1,99.12,55.6a34.24,34.24,0,0,1-20.6,31.56l3.5,11A46.17,46.17,0,0,0,110.07,55.6C110.51,29.74,89.47,9.14,64.05,9.14Z" transform="translate(0.19)"/><path class="cls-3" d="M64.05,90.67A35.16,35.16,0,0,1,29,55.6a34.79,34.79,0,0,1,21-32l-3.94-11a46.52,46.52,0,0,0,18,89.41,35.1,35.1,0,0,0,11.84-1.75l-3.51-11A27.44,27.44,0,0,1,64.05,90.67Z" transform="translate(0.19)"/><polygon class="cls-4" points="76.95 88.91 79.14 82.34 93.61 118.72 81.34 104.69 78.27 109.52 63.37 72.7 76.95 88.91"/><polygon class="cls-5" points="46.48 41.84 46.48 49.31 59.57 49.31 59.57 56.24 39.87 56.24 39.87 34.8 59.57 34.8 59.57 41.84 46.48 41.84"/><polygon class="cls-6" points="81.31 56.73 71.29 56.73 50.23 34.8 60.24 34.8 81.31 56.73"/><polygon class="cls-6" points="49.88 66.1 39.87 66.1 75.26 30.07 85.28 30.07 49.88 66.1"/><path class="cls-6" d="M89.87,61.3v9.61c0,.53-.73.82-1.23.48l-4.28-2.94V70a2.26,2.26,0,0,1-2.26,2.25H68.34A2.25,2.25,0,0,1,66.09,70V62.22A2.25,2.25,0,0,1,68.34,60H82.1a2.26,2.26,0,0,1,2.26,2.25v1.54l4.28-2.95C89.14,60.48,89.87,60.77,89.87,61.3Z" transform="translate(0.19)"/></svg>