<?xml version="1.0" encoding="UTF-8"?>
<svg xmlns="http://www.w3.org/2000/svg" xmlns:xlink="http://www.w3.org/1999/xlink" width="350pt" height="350pt" viewBox="0 0 350 350" version="1.1">
<g id="surface1">
<path style=" stroke:none;fill-rule:nonzero;fill:rgb(0%,0%,0%);fill-opacity:1;" d="M 272.492188 213.785156 C 269.875 212.742188 267.582031 213.199219 265.621094 215.160156 L 253.054688 227.726562 C 251.878906 228.902344 251.285156 230.34375 251.285156 232.042969 L 251.285156 256.78125 C 251.285156 265.421875 248.214844 272.8125 242.066406 278.964844 C 235.910156 285.117188 228.519531 288.191406 219.878906 288.191406 L 56.539062 288.191406 C 47.902344 288.191406 40.503906 285.117188 34.355469 278.964844 C 28.203125 272.8125 25.128906 265.421875 25.128906 256.78125 L 25.128906 93.445312 C 25.128906 84.804688 28.203125 77.410156 34.355469 71.257812 C 40.503906 65.109375 47.902344 62.03125 56.539062 62.03125 L 219.882812 62.03125 C 222.757812 62.03125 225.707031 62.425781 228.714844 63.210938 C 231.074219 63.996094 233.164062 63.472656 234.996094 61.640625 L 244.613281 52.019531 C 246.183594 50.453125 246.769531 48.550781 246.378906 46.328125 C 245.988281 44.234375 244.808594 42.730469 242.84375 41.8125 C 235.777344 38.546875 228.121094 36.90625 219.875 36.90625 L 56.539062 36.90625 C 40.964844 36.90625 27.648438 42.433594 16.585938 53.496094 C 5.53125 64.554688 0 77.871094 0 93.445312 L 0 256.785156 C 0 272.359375 5.53125 285.675781 16.585938 296.734375 C 27.648438 307.796875 40.964844 313.328125 56.539062 313.328125 L 219.878906 313.328125 C 235.449219 313.328125 248.765625 307.796875 259.828125 296.734375 C 270.890625 285.675781 276.417969 272.359375 276.417969 256.785156 L 276.417969 219.484375 C 276.417969 216.734375 275.105469 214.835938 272.492188 213.785156 Z M 272.492188 213.785156 "/>
<path style=" stroke:none;fill-rule:nonzero;fill:rgb(0%,0%,0%);fill-opacity:1;" d="M 125.644531 206.53125 L 125.644531 263.066406 L 182.1875 263.066406 L 314.113281 131.140625 L 257.570312 74.601562 Z M 174.328125 244.222656 L 163.332031 244.21875 L 163.332031 225.375 L 144.488281 225.375 L 144.488281 214.386719 L 167.261719 191.609375 L 197.101562 221.453125 Z M 260.511719 109.347656 L 191.796875 178.0625 C 189.574219 180.289062 187.414062 180.351562 185.320312 178.257812 C 183.226562 176.164062 183.292969 174.003906 185.519531 171.78125 L 254.234375 103.070312 C 256.457031 100.839844 258.613281 100.777344 260.710938 102.871094 C 262.808594 104.964844 262.734375 107.125 260.511719 109.347656 Z M 260.511719 109.347656 "/>
<path style=" stroke:none;fill-rule:nonzero;fill:rgb(0%,0%,0%);fill-opacity:1;" d="M 344.738281 73.816406 L 314.898438 43.976562 C 311.234375 40.308594 306.785156 38.476562 301.546875 38.476562 C 296.3125 38.476562 291.863281 40.308594 288.199219 43.976562 L 270.136719 62.035156 L 326.679688 118.578125 L 344.738281 100.515625 C 348.402344 96.851562 350.230469 92.398438 350.230469 87.164062 C 350.230469 81.929688 348.402344 77.480469 344.738281 73.816406 Z M 344.738281 73.816406 "/>
</g>
</svg>
