<?xml version="1.0" encoding="iso-8859-1"?>
<!-- Generator: Adobe Illustrator 19.0.0, SVG Export Plug-In . SVG Version: 6.00 Build 0)  -->
<svg xmlns="http://www.w3.org/2000/svg" xmlns:xlink="http://www.w3.org/1999/xlink" version="1.1" id="Layer_1" x="0px" y="0px" viewBox="0 0 512 512" style="enable-background:new 0 0 512 512;" xml:space="preserve" width="512" height="512">
<path d="M271,180c0,11.046-8.954,20-20,20H20c-11.046,0-20-8.954-20-20s8.954-20,20-20h231C262.046,160,271,168.954,271,180z M251,0  H20C8.954,0,0,8.954,0,20s8.954,20,20,20h231c11.046,0,20-8.954,20-20S262.046,0,251,0z M251,80H90c-11.046,0-20,8.954-20,20  s8.954,20,20,20h161c11.046,0,20-8.954,20-20S262.046,80,251,80z M251,240H90c-11.046,0-20,8.954-20,20s8.954,20,20,20h161  c11.046,0,20-8.954,20-20S262.046,240,251,240z M492,472c-33.084,0-60-26.916-60-60v-78h40c11.046,0,20-8.954,20-20s-8.954-20-20-20  h-40V100c0-33.084,26.916-60,60-60c11.046,0,20-8.954,20-20s-8.954-20-20-20c-32.676,0-61.74,15.755-80,40.066  C393.74,15.755,364.676,0,332,0c-11.046,0-20,8.954-20,20s8.954,20,20,20c33.084,0,60,26.916,60,60v194h-40  c-11.046,0-20,8.954-20,20s8.954,20,20,20h40v78c0,33.084-26.916,60-60,60c-11.046,0-20,8.954-20,20s8.954,20,20,20  c32.676,0,61.74-15.755,80-40.066C430.26,496.245,459.324,512,492,512c11.046,0,20-8.954,20-20S503.046,472,492,472z"/>















</svg>
